<svg width="99" height="42" viewBox="0 0 99 42" fill="none" xmlns="http://www.w3.org/2000/svg">
<path d="M20 12.875C18.393 12.875 16.8221 13.3515 15.486 14.2443C14.1498 15.1371 13.1084 16.406 12.4935 17.8907C11.8785 19.3753 11.7176 21.009 12.0311 22.5851C12.3446 24.1612 13.1185 25.6089 14.2548 26.7452C15.3911 27.8815 16.8388 28.6554 18.4149 28.9689C19.991 29.2824 21.6247 29.1215 23.1093 28.5065C24.594 27.8916 25.8629 26.8502 26.7557 25.514C27.6485 24.1779 28.125 22.607 28.125 21C28.1227 18.8458 27.266 16.7805 25.7427 15.2573C24.2195 13.734 22.1542 12.8773 20 12.875ZM20 27.875C18.6403 27.875 17.311 27.4718 16.1805 26.7164C15.0499 25.9609 14.1687 24.8872 13.6483 23.6309C13.128 22.3747 12.9918 20.9924 13.2571 19.6588C13.5224 18.3251 14.1772 17.1001 15.1386 16.1386C16.1001 15.1772 17.3251 14.5224 18.6588 14.2571C19.9924 13.9918 21.3747 14.128 22.631 14.6483C23.8872 15.1687 24.9609 16.0499 25.7164 17.1805C26.4718 18.311 26.875 19.6403 26.875 21C26.8729 22.8227 26.1479 24.5702 24.8591 25.8591C23.5702 27.1479 21.8227 27.8729 20 27.875ZM21.25 24.75C21.25 24.9158 21.1842 25.0747 21.0669 25.1919C20.9497 25.3092 20.7908 25.375 20.625 25.375C20.2935 25.375 19.9755 25.2433 19.7411 25.0089C19.5067 24.7745 19.375 24.4565 19.375 24.125V21C19.2092 21 19.0503 20.9342 18.9331 20.8169C18.8159 20.6997 18.75 20.5408 18.75 20.375C18.75 20.2092 18.8159 20.0503 18.9331 19.9331C19.0503 19.8158 19.2092 19.75 19.375 19.75C19.7065 19.75 20.0245 19.8817 20.2589 20.1161C20.4933 20.3505 20.625 20.6685 20.625 21V24.125C20.7908 24.125 20.9497 24.1908 21.0669 24.3081C21.1842 24.4253 21.25 24.5842 21.25 24.75ZM18.75 17.5625C18.75 17.3771 18.805 17.1958 18.908 17.0417C19.011 16.8875 19.1574 16.7673 19.3287 16.6964C19.5 16.6254 19.6885 16.6068 19.8704 16.643C20.0523 16.6792 20.2193 16.7685 20.3504 16.8996C20.4815 17.0307 20.5708 17.1977 20.607 17.3796C20.6432 17.5615 20.6246 17.75 20.5536 17.9213C20.4827 18.0926 20.3625 18.239 20.2084 18.342C20.0542 18.445 19.8729 18.5 19.6875 18.5C19.4389 18.5 19.2004 18.4012 19.0246 18.2254C18.8488 18.0496 18.75 17.8111 18.75 17.5625Z" fill="#404040"/>
<path d="M45.5432 14.4H47.3702L51.9512 27H50.3492L49.4132 24.426H43.5002L42.5732 27H40.9622L45.5432 14.4ZM44.0582 22.914H48.8552L46.4522 16.335L44.0582 22.914ZM58.1457 17.748C59.0217 17.748 59.8167 17.961 60.5307 18.387C61.2507 18.813 61.8237 19.386 62.2497 20.106C62.6757 20.82 62.8887 21.615 62.8887 22.491C62.8887 23.145 62.7657 23.76 62.5197 24.336C62.2737 24.906 61.9317 25.41 61.4937 25.848C61.0617 26.28 60.5577 26.619 59.9817 26.865C59.4117 27.111 58.7997 27.234 58.1457 27.234C57.4497 27.234 56.8437 27.072 56.3277 26.748C55.8177 26.418 55.4097 25.989 55.1037 25.461V27H53.5917V13.5H55.1037V19.521C55.4097 18.993 55.8177 18.567 56.3277 18.243C56.8437 17.913 57.4497 17.748 58.1457 17.748ZM58.1277 25.758C58.7217 25.758 59.2617 25.611 59.7477 25.317C60.2337 25.023 60.6207 24.63 60.9087 24.138C61.1967 23.64 61.3407 23.091 61.3407 22.491C61.3407 21.879 61.1937 21.327 60.8997 20.835C60.6057 20.337 60.2157 19.944 59.7297 19.656C59.2437 19.362 58.7097 19.215 58.1277 19.215C57.5397 19.215 57.0267 19.362 56.5887 19.656C56.1567 19.95 55.8207 20.346 55.5807 20.844C55.3467 21.342 55.2297 21.891 55.2297 22.491C55.2297 23.097 55.3467 23.649 55.5807 24.147C55.8207 24.639 56.1597 25.032 56.5977 25.326C57.0357 25.614 57.5457 25.758 58.1277 25.758ZM68.292 27.234C67.464 27.234 66.708 27.021 66.024 26.595C65.346 26.169 64.803 25.599 64.395 24.885C63.993 24.165 63.792 23.37 63.792 22.5C63.792 21.84 63.909 21.225 64.143 20.655C64.377 20.079 64.698 19.575 65.106 19.143C65.52 18.705 66 18.363 66.546 18.117C67.092 17.871 67.674 17.748 68.292 17.748C69.12 17.748 69.873 17.961 70.551 18.387C71.235 18.813 71.778 19.386 72.18 20.106C72.588 20.826 72.792 21.624 72.792 22.5C72.792 23.154 72.675 23.766 72.441 24.336C72.207 24.906 71.883 25.41 71.469 25.848C71.061 26.28 70.584 26.619 70.038 26.865C69.498 27.111 68.916 27.234 68.292 27.234ZM68.292 25.722C68.856 25.722 69.363 25.575 69.813 25.281C70.269 24.981 70.626 24.588 70.884 24.102C71.148 23.61 71.28 23.076 71.28 22.5C71.28 21.912 71.145 21.372 70.875 20.88C70.611 20.388 70.254 19.995 69.804 19.701C69.354 19.407 68.85 19.26 68.292 19.26C67.728 19.26 67.221 19.41 66.771 19.71C66.321 20.004 65.964 20.397 65.7 20.889C65.436 21.381 65.304 21.918 65.304 22.5C65.304 23.1 65.439 23.646 65.709 24.138C65.979 24.624 66.342 25.011 66.798 25.299C67.254 25.581 67.752 25.722 68.292 25.722ZM73.7981 23.58V18H75.3101V23.247C75.3101 23.703 75.4211 24.117 75.6431 24.489C75.8651 24.861 76.1621 25.158 76.5341 25.38C76.9121 25.596 77.3261 25.704 77.7761 25.704C78.2321 25.704 78.6431 25.596 79.0091 25.38C79.3811 25.158 79.6781 24.861 79.9001 24.489C80.1221 24.117 80.2331 23.703 80.2331 23.247V18H81.7451L81.7541 27H80.2421L80.2331 25.857C79.9151 26.277 79.5131 26.613 79.0271 26.865C78.5411 27.111 78.0161 27.234 77.4521 27.234C76.7801 27.234 76.1651 27.072 75.6071 26.748C75.0551 26.418 74.6141 25.977 74.2841 25.425C73.9601 24.873 73.7981 24.258 73.7981 23.58ZM88.2244 19.512H86.1814L86.1724 27H84.6604L84.6694 19.512H83.1214V18H84.6694L84.6604 15.174H86.1724L86.1814 18H88.2244V19.512Z" fill="#404040"/>
</svg>
