<svg width="142" height="162" viewBox="0 0 142 162" fill="none" xmlns="http://www.w3.org/2000/svg">
<mask id="mask0_3107_17350" style="mask-type:luminance" maskUnits="userSpaceOnUse" x="1" y="0" width="139" height="162">
<path d="M47.2344 0L139.866 71.4065L94.6302 161.665L1.99861 90.2589L47.2344 0Z" fill="white"/>
</mask>
<g mask="url(#mask0_3107_17350)">
<path d="M125.292 84.2257C123.711 81.1695 122.037 78.2275 120.206 75.4571C118.127 72.3359 115.856 69.4804 113.259 66.9716C107.623 61.016 99.5491 56.3769 91.6815 55.2532C85.2204 54.3336 78.8872 55.8445 74.2834 61.3136C75.6321 62.832 76.8766 64.4436 77.9878 66.1787C80.1301 69.5485 81.7264 73.3759 82.4255 77.8846C82.9167 81.0459 82.9136 85.5464 81.7545 88.7542C80.7243 91.609 78.865 93.5318 75.9801 93.5453C70.2344 93.5524 67.0452 88.8828 65.852 82.5817C64.5133 75.4898 65.9421 66.3108 68.4639 61.6074C67.0502 60.2652 65.5974 58.9979 64.1568 57.7559C58.192 52.6248 50.921 50.1217 43.6326 50.5246C36.8818 50.9141 30.1278 53.7787 24.3684 59.3669C19.6702 63.776 16.6779 70.0069 14.7321 76.2186C13.3785 80.5424 12.5882 84.8481 12.1222 88.6709C11.6983 92.1526 11.4537 95.1342 11.712 97.4901C11.7332 97.5871 11.685 97.6833 11.6055 97.7026C11.5255 97.7198 11.4404 97.6542 11.4185 97.5584C10.6238 95.2134 9.94904 92.0438 9.82596 88.3123C9.68333 84.1273 10.2346 79.3569 11.4079 74.6152C13.1596 67.5209 16.5473 60.5972 21.6314 55.4861C28.0405 49.2397 35.587 46.0391 43.1217 45.6156C51.3888 45.143 59.651 47.9947 66.4381 53.8141C67.9722 55.1299 69.5224 56.4845 71.0206 57.9182C76.5043 51.2109 84.0986 49.2342 91.8744 50.4204C100.582 51.7515 109.487 57.0857 115.661 63.7756C117.723 66.2045 119.55 68.8391 121.185 71.6702C122.382 73.7518 123.469 75.9347 124.484 78.1688C124.581 78.8698 124.665 79.5728 124.761 80.2729C124.914 81.5903 125.112 82.9143 125.292 84.2257ZM69.9609 81.888C70.6552 85.5391 72.2864 88.5412 75.6192 88.5258C77.1529 88.5228 77.8044 86.9875 78.1687 85.2974C78.6613 83.0662 78.5805 80.3808 78.2813 78.3915C77.7264 74.769 76.4284 71.6906 74.7087 68.9797C73.8243 67.5912 72.8401 66.2872 71.7764 65.0675C69.8669 69.0417 68.8964 76.2717 69.9609 81.888ZM130.192 90.4C130.35 89.8029 130.336 89.0067 130.291 88.5321C129.849 84.6611 129.391 80.7521 128.659 76.8722C128.325 75.1371 127.922 73.4268 127.504 71.719C126.506 67.6872 125.379 63.795 124.367 59.8181C124.298 59.3657 123.934 59.0326 123.554 59.0849C123.178 59.1285 122.928 59.5351 123.004 59.9935C123.303 64.8323 123.546 69.6415 124.036 74.5464C124.159 75.7599 124.308 76.9674 124.465 78.1809C125.44 80.3301 126.346 82.5467 127.192 84.8104C127.38 85.2355 127.248 85.7336 126.906 85.9227C126.564 86.1109 126.133 85.9119 125.944 85.488C125.731 85.069 125.515 84.6504 125.301 84.2326C125.34 84.5293 125.384 84.8417 125.424 85.1393C121.928 82.2327 116.963 77.6721 115.744 76.5989L112.727 74.0999C112.423 73.9322 111.911 73.2589 111.551 73.1533C111.048 73.0055 111.293 73.0345 111.045 73.1505C110.709 73.3036 110.829 72.8766 110.704 73.0328C110.462 73.3267 110.375 72.7264 110.321 73.0185C110.297 73.1854 110.146 72.9221 110.156 73.0911C110.187 73.5005 109.486 73.1337 109.876 73.5538C109.952 73.6384 109.753 73.6591 109.882 73.7317C110.237 73.9391 109.353 73.9624 110.355 73.9894C110.377 74.0852 110.466 74.1419 110.547 74.1235C110.626 74.1054 110.666 74.0032 110.644 73.9053C110.987 73.6912 110.872 73.8026 110.872 73.8026C110.872 73.8026 111.177 73.7574 111.022 73.8109C110.847 73.8766 111.195 73.9583 111.08 73.9755C110.925 74.0032 111.163 74.1862 111.041 74.1714C110.844 74.1405 111.067 74.4722 110.913 74.3798C110.801 74.3194 110.892 74.5629 110.795 74.4742C110.537 74.2366 110.472 75.0251 110.369 74.5459C110.325 74.3523 109.982 74.8473 110.057 74.4651C110.075 74.3592 109.815 74.4781 109.939 74.5348C110.098 74.6171 109.777 74.5293 109.778 74.809C109.782 75.1999 110.009 75.7345 110.218 76.2141C110.377 76.5773 110.614 76.8121 110.769 76.9982L113.571 80.0388C115.078 81.4795 122.226 88.6271 125.387 91.1186C126.344 91.868 127.114 92.2357 127.496 92.3442C128.344 92.5576 128.916 92.2396 129.294 91.9313C129.709 91.5989 130.022 91.0683 130.192 90.4Z" fill="#003C3C"/>
</g>
</svg>
