<svg width="145" height="54" viewBox="0 0 145 54" fill="none" xmlns="http://www.w3.org/2000/svg">
<rect x="0.266602" width="144" height="54" rx="18" fill="#003C3C"/>
<path d="M25.3466 33V20.4H29.5136C30.3836 20.4 31.1996 20.565 31.9616 20.895C32.7236 21.219 33.3926 21.672 33.9686 22.254C34.5446 22.83 34.9946 23.499 35.3186 24.261C35.6486 25.017 35.8136 25.83 35.8136 26.7C35.8136 27.57 35.6486 28.386 35.3186 29.148C34.9946 29.904 34.5446 30.573 33.9686 31.155C33.3926 31.731 32.7236 32.184 31.9616 32.514C31.1996 32.838 30.3836 33 29.5136 33H25.3466ZM27.2186 31.128H29.5136C30.1256 31.128 30.6956 31.014 31.2236 30.786C31.7576 30.558 32.2286 30.24 32.6366 29.832C33.0506 29.424 33.3716 28.953 33.5996 28.419C33.8276 27.885 33.9416 27.312 33.9416 26.7C33.9416 26.088 33.8276 25.515 33.5996 24.981C33.3716 24.447 33.0506 23.976 32.6366 23.568C32.2286 23.16 31.7576 22.842 31.2236 22.614C30.6956 22.386 30.1256 22.272 29.5136 22.272H27.2186V31.128ZM41.1718 33.234C40.3438 33.234 39.5878 33.021 38.9038 32.595C38.2258 32.169 37.6828 31.599 37.2748 30.885C36.8728 30.165 36.6718 29.37 36.6718 28.5C36.6718 27.84 36.7888 27.225 37.0228 26.655C37.2568 26.079 37.5778 25.575 37.9858 25.143C38.3998 24.705 38.8798 24.363 39.4258 24.117C39.9718 23.871 40.5538 23.748 41.1718 23.748C41.8618 23.748 42.4948 23.892 43.0708 24.18C43.6468 24.462 44.1388 24.855 44.5468 25.359C44.9548 25.857 45.2548 26.433 45.4468 27.087C45.6388 27.735 45.6958 28.425 45.6178 29.157H38.6788C38.7568 29.571 38.9068 29.946 39.1288 30.282C39.3568 30.612 39.6448 30.873 39.9928 31.065C40.3468 31.257 40.7398 31.356 41.1718 31.362C41.6278 31.362 42.0418 31.248 42.4138 31.02C42.7918 30.792 43.1008 30.477 43.3408 30.075L45.2398 30.516C44.8798 31.314 44.3368 31.968 43.6108 32.478C42.8848 32.982 42.0718 33.234 41.1718 33.234ZM38.6158 27.726H43.7278C43.6678 27.294 43.5148 26.904 43.2688 26.556C43.0288 26.202 42.7258 25.923 42.3598 25.719C41.9998 25.509 41.6038 25.404 41.1718 25.404C40.7458 25.404 40.3498 25.506 39.9838 25.71C39.6238 25.914 39.3238 26.193 39.0838 26.547C38.8498 26.895 38.6938 27.288 38.6158 27.726ZM47.1083 33V24H48.9803V24.954C49.2923 24.582 49.6733 24.288 50.1233 24.072C50.5793 23.856 51.0713 23.748 51.5993 23.748C52.2413 23.748 52.8323 23.904 53.3723 24.216C53.9123 24.522 54.3413 24.93 54.6593 25.44C54.9773 24.93 55.4003 24.522 55.9283 24.216C56.4623 23.904 57.0503 23.748 57.6923 23.748C58.3583 23.748 58.9643 23.91 59.5103 24.234C60.0563 24.558 60.4913 24.993 60.8153 25.539C61.1393 26.085 61.3013 26.691 61.3013 27.357V33H59.4293V27.834C59.4293 27.438 59.3333 27.075 59.1413 26.745C58.9493 26.415 58.6913 26.148 58.3673 25.944C58.0433 25.74 57.6833 25.638 57.2873 25.638C56.8913 25.638 56.5313 25.734 56.2073 25.926C55.8833 26.118 55.6253 26.379 55.4333 26.709C55.2413 27.039 55.1453 27.414 55.1453 27.834V33H53.2733V27.834C53.2733 27.414 53.1773 27.039 52.9853 26.709C52.7933 26.379 52.5323 26.118 52.2023 25.926C51.8783 25.734 51.5183 25.638 51.1223 25.638C50.7323 25.638 50.3723 25.74 50.0423 25.944C49.7183 26.148 49.4603 26.415 49.2683 26.745C49.0763 27.075 48.9803 27.438 48.9803 27.834V33H47.1083ZM66.8886 33.234C66.0606 33.234 65.3046 33.021 64.6206 32.595C63.9426 32.169 63.3996 31.599 62.9916 30.885C62.5896 30.165 62.3886 29.37 62.3886 28.5C62.3886 27.84 62.5056 27.225 62.7396 26.655C62.9736 26.079 63.2946 25.575 63.7026 25.143C64.1166 24.705 64.5966 24.363 65.1426 24.117C65.6886 23.871 66.2706 23.748 66.8886 23.748C67.7166 23.748 68.4696 23.961 69.1476 24.387C69.8316 24.813 70.3746 25.386 70.7766 26.106C71.1846 26.826 71.3886 27.624 71.3886 28.5C71.3886 29.154 71.2716 29.766 71.0376 30.336C70.8036 30.906 70.4796 31.41 70.0656 31.848C69.6576 32.28 69.1806 32.619 68.6346 32.865C68.0946 33.111 67.5126 33.234 66.8886 33.234ZM66.8886 31.362C67.3866 31.362 67.8336 31.23 68.2296 30.966C68.6256 30.702 68.9376 30.354 69.1656 29.922C69.3996 29.484 69.5166 29.01 69.5166 28.5C69.5166 27.978 69.3966 27.498 69.1566 27.06C68.9226 26.622 68.6076 26.274 68.2116 26.016C67.8156 25.752 67.3746 25.62 66.8886 25.62C66.3966 25.62 65.9496 25.752 65.5476 26.016C65.1516 26.28 64.8366 26.631 64.6026 27.069C64.3746 27.507 64.2606 27.984 64.2606 28.5C64.2606 29.034 64.3806 29.517 64.6206 29.949C64.8606 30.381 65.1786 30.726 65.5746 30.984C65.9766 31.236 66.4146 31.362 66.8886 31.362ZM81.8161 33.234C81.1261 33.234 80.4631 33.126 79.8271 32.91C79.1911 32.694 78.6361 32.385 78.1621 31.983C77.6881 31.575 77.3491 31.092 77.1451 30.534L78.9001 29.877C79.0021 30.165 79.1971 30.423 79.4851 30.651C79.7791 30.873 80.1271 31.047 80.5291 31.173C80.9371 31.299 81.3661 31.362 81.8161 31.362C82.2961 31.362 82.7461 31.284 83.1661 31.128C83.5921 30.972 83.9341 30.756 84.1921 30.48C84.4561 30.204 84.5881 29.88 84.5881 29.508C84.5881 29.124 84.4501 28.809 84.1741 28.563C83.9041 28.317 83.5561 28.122 83.1301 27.978C82.7101 27.834 82.2721 27.726 81.8161 27.654C80.9341 27.51 80.1421 27.3 79.4401 27.024C78.7441 26.748 78.1921 26.361 77.7841 25.863C77.3821 25.365 77.1811 24.717 77.1811 23.919C77.1811 23.169 77.3941 22.515 77.8201 21.957C78.2521 21.399 78.8191 20.967 79.5211 20.661C80.2291 20.349 80.9941 20.193 81.8161 20.193C82.4941 20.193 83.1481 20.301 83.7781 20.517C84.4141 20.727 84.9721 21.036 85.4521 21.444C85.9381 21.846 86.2861 22.335 86.4961 22.911L84.7231 23.55C84.6211 23.256 84.4261 23.001 84.1381 22.785C83.8501 22.563 83.5021 22.389 83.0941 22.263C82.6921 22.137 82.2661 22.074 81.8161 22.074C81.3361 22.068 80.8861 22.146 80.4661 22.308C80.0521 22.464 79.7131 22.68 79.4491 22.956C79.1851 23.232 79.0531 23.553 79.0531 23.919C79.0531 24.369 79.1761 24.711 79.4221 24.945C79.6681 25.179 79.9981 25.353 80.4121 25.467C80.8321 25.575 81.3001 25.674 81.8161 25.764C82.6441 25.896 83.4091 26.115 84.1111 26.421C84.8191 26.727 85.3861 27.135 85.8121 27.645C86.2441 28.149 86.4601 28.77 86.4601 29.508C86.4601 30.252 86.2441 30.906 85.8121 31.47C85.3861 32.028 84.8191 32.463 84.1111 32.775C83.4091 33.081 82.6441 33.234 81.8161 33.234ZM93.0634 25.872H91.1734L91.1644 33H89.2924L89.3014 25.872H87.8704V24H89.3014L89.2924 21.174H91.1644L91.1734 24H93.0634V25.872ZM98.4238 33.234C97.5958 33.234 96.8398 33.021 96.1558 32.595C95.4778 32.169 94.9348 31.599 94.5268 30.885C94.1248 30.165 93.9238 29.37 93.9238 28.5C93.9238 27.84 94.0408 27.225 94.2748 26.655C94.5088 26.079 94.8298 25.575 95.2378 25.143C95.6518 24.705 96.1318 24.363 96.6778 24.117C97.2238 23.871 97.8058 23.748 98.4238 23.748C99.2518 23.748 100.005 23.961 100.683 24.387C101.367 24.813 101.91 25.386 102.312 26.106C102.72 26.826 102.924 27.624 102.924 28.5C102.924 29.154 102.807 29.766 102.573 30.336C102.339 30.906 102.015 31.41 101.601 31.848C101.193 32.28 100.716 32.619 100.17 32.865C99.6298 33.111 99.0478 33.234 98.4238 33.234ZM98.4238 31.362C98.9218 31.362 99.3688 31.23 99.7648 30.966C100.161 30.702 100.473 30.354 100.701 29.922C100.935 29.484 101.052 29.01 101.052 28.5C101.052 27.978 100.932 27.498 100.692 27.06C100.458 26.622 100.143 26.274 99.7468 26.016C99.3508 25.752 98.9098 25.62 98.4238 25.62C97.9318 25.62 97.4848 25.752 97.0828 26.016C96.6868 26.28 96.3718 26.631 96.1378 27.069C95.9098 27.507 95.7958 27.984 95.7958 28.5C95.7958 29.034 95.9158 29.517 96.1558 29.949C96.3958 30.381 96.7138 30.726 97.1098 30.984C97.5118 31.236 97.9498 31.362 98.4238 31.362ZM104.378 33V24H106.25V24.954C106.562 24.582 106.946 24.288 107.402 24.072C107.858 23.856 108.35 23.748 108.878 23.748C109.214 23.748 109.547 23.793 109.877 23.883L109.13 25.773C108.896 25.683 108.662 25.638 108.428 25.638C108.032 25.638 107.669 25.737 107.339 25.935C107.009 26.127 106.745 26.388 106.547 26.718C106.349 27.048 106.25 27.414 106.25 27.816V33H104.378ZM114.455 33.234C113.627 33.234 112.871 33.021 112.187 32.595C111.509 32.169 110.966 31.599 110.558 30.885C110.156 30.165 109.955 29.37 109.955 28.5C109.955 27.84 110.072 27.225 110.306 26.655C110.54 26.079 110.861 25.575 111.269 25.143C111.683 24.705 112.163 24.363 112.709 24.117C113.255 23.871 113.837 23.748 114.455 23.748C115.145 23.748 115.778 23.892 116.354 24.18C116.93 24.462 117.422 24.855 117.83 25.359C118.238 25.857 118.538 26.433 118.73 27.087C118.922 27.735 118.979 28.425 118.901 29.157H111.962C112.04 29.571 112.19 29.946 112.412 30.282C112.64 30.612 112.928 30.873 113.276 31.065C113.63 31.257 114.023 31.356 114.455 31.362C114.911 31.362 115.325 31.248 115.697 31.02C116.075 30.792 116.384 30.477 116.624 30.075L118.523 30.516C118.163 31.314 117.62 31.968 116.894 32.478C116.168 32.982 115.355 33.234 114.455 33.234ZM111.899 27.726H117.011C116.951 27.294 116.798 26.904 116.552 26.556C116.312 26.202 116.009 25.923 115.643 25.719C115.283 25.509 114.887 25.404 114.455 25.404C114.029 25.404 113.633 25.506 113.267 25.71C112.907 25.914 112.607 26.193 112.367 26.547C112.133 26.895 111.977 27.288 111.899 27.726Z" fill="#F8F9FB"/>
</svg>
