<svg width="86" height="42" viewBox="0 0 86 42" fill="none" xmlns="http://www.w3.org/2000/svg">
<path d="M17.5 27.875C17.5 28.1222 17.4267 28.3639 17.2893 28.5695C17.152 28.775 16.9568 28.9352 16.7284 29.0299C16.4999 29.1245 16.2486 29.1492 16.0061 29.101C15.7637 29.0527 15.5409 28.9337 15.3661 28.7589C15.1913 28.5841 15.0722 28.3613 15.024 28.1189C14.9758 27.8764 15.0005 27.6251 15.0952 27.3966C15.1898 27.1682 15.35 26.973 15.5555 26.8357C15.7611 26.6983 16.0028 26.625 16.25 26.625C16.5815 26.625 16.8995 26.7567 17.1339 26.9911C17.3683 27.2255 17.5 27.5435 17.5 27.875ZM24.375 26.625C24.1278 26.625 23.8861 26.6983 23.6805 26.8357C23.475 26.973 23.3148 27.1682 23.2201 27.3966C23.1255 27.6251 23.1008 27.8764 23.149 28.1189C23.1972 28.3613 23.3163 28.5841 23.4911 28.7589C23.6659 28.9337 23.8887 29.0527 24.1311 29.101C24.3736 29.1492 24.6249 29.1245 24.8534 29.0299C25.0818 28.9352 25.277 28.775 25.4143 28.5695C25.5517 28.3639 25.625 28.1222 25.625 27.875C25.625 27.5435 25.4933 27.2255 25.2589 26.9911C25.0245 26.7567 24.7065 26.625 24.375 26.625ZM28.0977 16.8086L25.8687 24.0516C25.752 24.4355 25.5146 24.7716 25.1918 25.01C24.8689 25.2484 24.4779 25.3764 24.0766 25.375H16.568C16.1609 25.3735 15.7653 25.2401 15.4404 24.9949C15.1155 24.7497 14.8787 24.4059 14.7656 24.0148L11.9391 14.125H10.625C10.4592 14.125 10.3003 14.0592 10.1831 13.9419C10.0658 13.8247 10 13.6658 10 13.5C10 13.3342 10.0658 13.1753 10.1831 13.0581C10.3003 12.9408 10.4592 12.875 10.625 12.875H11.9391C12.2105 12.8759 12.4743 12.9647 12.691 13.128C12.9078 13.2914 13.0658 13.5206 13.1414 13.7812L13.775 16H27.5C27.5978 16 27.6943 16.0229 27.7816 16.0669C27.8689 16.1109 27.9447 16.1749 28.0028 16.2535C28.061 16.3322 28.0998 16.4234 28.1163 16.5198C28.1328 16.6162 28.1264 16.7151 28.0977 16.8086ZM26.6539 17.25H14.132L15.9672 23.6719C16.0045 23.8024 16.0833 23.9172 16.1917 23.999C16.3001 24.0807 16.4322 24.125 16.568 24.125H24.0766C24.2103 24.125 24.3405 24.0822 24.4481 24.0027C24.5557 23.9233 24.6349 23.8114 24.6742 23.6836L26.6539 17.25Z" fill="#404040"/>
<path d="M47.1669 27.234C46.3149 27.234 45.5139 27.066 44.7639 26.73C44.0139 26.388 43.3539 25.92 42.7839 25.326C42.2199 24.726 41.7759 24.03 41.4519 23.238C41.1339 22.446 40.9749 21.6 40.9749 20.7C40.9749 19.8 41.1339 18.954 41.4519 18.162C41.7759 17.37 42.2199 16.677 42.7839 16.083C43.3539 15.483 44.0139 15.015 44.7639 14.679C45.5139 14.337 46.3149 14.166 47.1669 14.166C48.1869 14.166 49.1259 14.403 49.9839 14.877C50.8419 15.351 51.5529 15.981 52.1169 16.767L50.7759 17.487C50.3559 16.935 49.8249 16.497 49.1829 16.173C48.5469 15.843 47.8749 15.678 47.1669 15.678C46.5129 15.678 45.9009 15.81 45.3309 16.074C44.7669 16.338 44.2719 16.701 43.8459 17.163C43.4199 17.625 43.0869 18.159 42.8469 18.765C42.6069 19.371 42.4869 20.016 42.4869 20.7C42.4869 21.39 42.6069 22.038 42.8469 22.644C43.0929 23.25 43.4289 23.784 43.8549 24.246C44.2869 24.708 44.7849 25.071 45.3489 25.335C45.9189 25.593 46.5249 25.722 47.1669 25.722C47.8989 25.722 48.5769 25.557 49.2009 25.227C49.8309 24.891 50.3559 24.453 50.7759 23.913L52.1169 24.642C51.5529 25.428 50.8419 26.058 49.9839 26.532C49.1259 27 48.1869 27.234 47.1669 27.234ZM60.6646 18H62.1766V27H60.6646L60.6016 25.479C60.3196 26.001 59.9296 26.424 59.4316 26.748C58.9396 27.072 58.3516 27.234 57.6676 27.234C57.0076 27.234 56.3896 27.111 55.8136 26.865C55.2376 26.613 54.7276 26.268 54.2836 25.83C53.8456 25.386 53.5036 24.876 53.2576 24.3C53.0116 23.724 52.8886 23.103 52.8886 22.437C52.8886 21.795 53.0086 21.189 53.2486 20.619C53.4886 20.049 53.8216 19.551 54.2476 19.125C54.6796 18.693 55.1776 18.357 55.7416 18.117C56.3056 17.871 56.9116 17.748 57.5596 17.748C58.2676 17.748 58.8886 17.916 59.4226 18.252C59.9566 18.582 60.3886 19.011 60.7186 19.539L60.6646 18ZM57.6406 25.767C58.2346 25.767 58.7476 25.623 59.1796 25.335C59.6176 25.041 59.9536 24.645 60.1876 24.147C60.4276 23.649 60.5476 23.1 60.5476 22.5C60.5476 21.888 60.4276 21.336 60.1876 20.844C59.9476 20.346 59.6086 19.953 59.1706 19.665C58.7386 19.371 58.2286 19.224 57.6406 19.224C57.0466 19.224 56.5066 19.371 56.0206 19.665C55.5346 19.959 55.1476 20.355 54.8596 20.853C54.5776 21.345 54.4366 21.894 54.4366 22.5C54.4366 23.106 54.5836 23.658 54.8776 24.156C55.1716 24.648 55.5616 25.041 56.0476 25.335C56.5336 25.623 57.0646 25.767 57.6406 25.767ZM63.9755 27V18H65.4875V19.125C65.8055 18.705 66.2075 18.372 66.6935 18.126C67.1795 17.874 67.7075 17.748 68.2775 17.748C68.6255 17.748 68.9615 17.793 69.2855 17.883L68.6735 19.395C68.4275 19.317 68.1875 19.278 67.9535 19.278C67.5035 19.278 67.0895 19.389 66.7115 19.611C66.3395 19.827 66.0425 20.121 65.8205 20.493C65.5985 20.865 65.4875 21.279 65.4875 21.735V27H63.9755ZM75.2117 19.512H73.1687L73.1597 27H71.6477L71.6567 19.512H70.1087V18H71.6567L71.6477 15.174H73.1597L73.1687 18H75.2117V19.512Z" fill="#404040"/>
</svg>
