<svg width="137" height="54" viewBox="0 0 137 54" fill="none" xmlns="http://www.w3.org/2000/svg">
<rect x="1.23242" y="0.5" width="134.535" height="53" rx="14.5" stroke="black"/>
<path d="M20.5707 33V20.4H22.0827V33H20.5707ZM29.1815 25.512H27.1385L27.1295 33H25.6175L25.6265 25.512H24.0785V24H25.6265L25.6175 21.174H27.1295L27.1385 24H29.1815V25.512ZM30.707 24H32.219V33H30.707V24ZM31.481 22.533C31.241 22.533 31.04 22.455 30.878 22.299C30.716 22.143 30.635 21.948 30.635 21.714C30.635 21.48 30.716 21.285 30.878 21.129C31.04 20.973 31.238 20.895 31.472 20.895C31.706 20.895 31.904 20.973 32.066 21.129C32.228 21.285 32.309 21.48 32.309 21.714C32.309 21.948 32.228 22.143 32.066 22.299C31.91 22.455 31.715 22.533 31.481 22.533ZM42.284 27.402V33H40.772V27.735C40.772 27.279 40.661 26.865 40.439 26.493C40.217 26.121 39.92 25.827 39.548 25.611C39.176 25.389 38.762 25.278 38.306 25.278C37.856 25.278 37.442 25.389 37.064 25.611C36.692 25.827 36.395 26.121 36.173 26.493C35.951 26.865 35.84 27.279 35.84 27.735V33H34.328V24H35.84V25.125C36.158 24.705 36.56 24.372 37.046 24.126C37.532 23.874 38.06 23.748 38.63 23.748C39.302 23.748 39.914 23.913 40.466 24.243C41.024 24.567 41.465 25.005 41.789 25.557C42.119 26.109 42.284 26.724 42.284 27.402ZM47.8681 33.234C47.0401 33.234 46.2841 33.021 45.6001 32.595C44.9221 32.169 44.3791 31.599 43.9711 30.885C43.5691 30.165 43.3681 29.37 43.3681 28.5C43.3681 27.84 43.4851 27.225 43.7191 26.655C43.9531 26.079 44.2741 25.575 44.6821 25.143C45.0961 24.705 45.5761 24.363 46.1221 24.117C46.6681 23.871 47.2501 23.748 47.8681 23.748C48.5461 23.748 49.1671 23.886 49.7311 24.162C50.3011 24.432 50.7871 24.81 51.1891 25.296C51.5971 25.782 51.9001 26.346 52.0981 26.988C52.3021 27.63 52.3771 28.317 52.3231 29.049H44.9791C45.0511 29.559 45.2191 30.015 45.4831 30.417C45.7471 30.813 46.0831 31.128 46.4911 31.362C46.9051 31.596 47.3641 31.716 47.8681 31.722C48.4081 31.722 48.8971 31.584 49.3351 31.308C49.7731 31.026 50.1271 30.642 50.3971 30.156L51.9361 30.516C51.5761 31.314 51.0331 31.968 50.3071 32.478C49.5811 32.982 48.7681 33.234 47.8681 33.234ZM44.9341 27.861H50.8021C50.7541 27.357 50.5921 26.898 50.3161 26.484C50.0401 26.064 49.6891 25.728 49.2631 25.476C48.8371 25.224 48.3721 25.098 47.8681 25.098C47.3641 25.098 46.9021 25.221 46.4821 25.467C46.0621 25.713 45.7141 26.046 45.4381 26.466C45.1681 26.88 45.0001 27.345 44.9341 27.861ZM53.8398 33V24H55.3518V25.125C55.6698 24.705 56.0718 24.372 56.5578 24.126C57.0438 23.874 57.5718 23.748 58.1418 23.748C58.4898 23.748 58.8258 23.793 59.1498 23.883L58.5378 25.395C58.2918 25.317 58.0518 25.278 57.8178 25.278C57.3678 25.278 56.9538 25.389 56.5758 25.611C56.2038 25.827 55.9068 26.121 55.6848 26.493C55.4628 26.865 55.3518 27.279 55.3518 27.735V33H53.8398ZM67.0348 24H68.5468V33H67.0348L66.9718 31.479C66.6898 32.001 66.2998 32.424 65.8018 32.748C65.3098 33.072 64.7218 33.234 64.0378 33.234C63.3778 33.234 62.7598 33.111 62.1838 32.865C61.6078 32.613 61.0978 32.268 60.6538 31.83C60.2158 31.386 59.8738 30.876 59.6278 30.3C59.3818 29.724 59.2588 29.103 59.2588 28.437C59.2588 27.795 59.3788 27.189 59.6188 26.619C59.8588 26.049 60.1918 25.551 60.6178 25.125C61.0498 24.693 61.5478 24.357 62.1118 24.117C62.6758 23.871 63.2818 23.748 63.9298 23.748C64.6378 23.748 65.2588 23.916 65.7928 24.252C66.3268 24.582 66.7588 25.011 67.0888 25.539L67.0348 24ZM64.0107 31.767C64.6048 31.767 65.1178 31.623 65.5498 31.335C65.9878 31.041 66.3238 30.645 66.5578 30.147C66.7978 29.649 66.9178 29.1 66.9178 28.5C66.9178 27.888 66.7978 27.336 66.5578 26.844C66.3178 26.346 65.9788 25.953 65.5408 25.665C65.1088 25.371 64.5988 25.224 64.0107 25.224C63.4168 25.224 62.8768 25.371 62.3908 25.665C61.9048 25.959 61.5178 26.355 61.2298 26.853C60.9478 27.345 60.8068 27.894 60.8068 28.5C60.8068 29.106 60.9538 29.658 61.2478 30.156C61.5418 30.648 61.9318 31.041 62.4178 31.335C62.9038 31.623 63.4348 31.767 64.0107 31.767ZM70.3456 33V24H71.8576V25.125C72.1756 24.705 72.5776 24.372 73.0636 24.126C73.5496 23.874 74.0776 23.748 74.6476 23.748C74.9956 23.748 75.3316 23.793 75.6556 23.883L75.0436 25.395C74.7976 25.317 74.5576 25.278 74.3236 25.278C73.8736 25.278 73.4596 25.389 73.0816 25.611C72.7096 25.827 72.4126 26.121 72.1906 26.493C71.9686 26.865 71.8576 27.279 71.8576 27.735V33H70.3456ZM82.9266 24H84.5286L79.6056 37.5H78.0036L79.6326 33L76.4016 24H78.0576L80.3886 30.921L82.9266 24Z" fill="black"/>
<path d="M20.5707 33V20.4H22.0827V33H20.5707ZM29.1815 25.512H27.1385L27.1295 33H25.6175L25.6265 25.512H24.0785V24H25.6265L25.6175 21.174H27.1295L27.1385 24H29.1815V25.512ZM30.707 24H32.219V33H30.707V24ZM31.481 22.533C31.241 22.533 31.04 22.455 30.878 22.299C30.716 22.143 30.635 21.948 30.635 21.714C30.635 21.48 30.716 21.285 30.878 21.129C31.04 20.973 31.238 20.895 31.472 20.895C31.706 20.895 31.904 20.973 32.066 21.129C32.228 21.285 32.309 21.48 32.309 21.714C32.309 21.948 32.228 22.143 32.066 22.299C31.91 22.455 31.715 22.533 31.481 22.533ZM42.284 27.402V33H40.772V27.735C40.772 27.279 40.661 26.865 40.439 26.493C40.217 26.121 39.92 25.827 39.548 25.611C39.176 25.389 38.762 25.278 38.306 25.278C37.856 25.278 37.442 25.389 37.064 25.611C36.692 25.827 36.395 26.121 36.173 26.493C35.951 26.865 35.84 27.279 35.84 27.735V33H34.328V24H35.84V25.125C36.158 24.705 36.56 24.372 37.046 24.126C37.532 23.874 38.06 23.748 38.63 23.748C39.302 23.748 39.914 23.913 40.466 24.243C41.024 24.567 41.465 25.005 41.789 25.557C42.119 26.109 42.284 26.724 42.284 27.402ZM47.8681 33.234C47.0401 33.234 46.2841 33.021 45.6001 32.595C44.9221 32.169 44.3791 31.599 43.9711 30.885C43.5691 30.165 43.3681 29.37 43.3681 28.5C43.3681 27.84 43.4851 27.225 43.7191 26.655C43.9531 26.079 44.2741 25.575 44.6821 25.143C45.0961 24.705 45.5761 24.363 46.1221 24.117C46.6681 23.871 47.2501 23.748 47.8681 23.748C48.5461 23.748 49.1671 23.886 49.7311 24.162C50.3011 24.432 50.7871 24.81 51.1891 25.296C51.5971 25.782 51.9001 26.346 52.0981 26.988C52.3021 27.63 52.3771 28.317 52.3231 29.049H44.9791C45.0511 29.559 45.2191 30.015 45.4831 30.417C45.7471 30.813 46.0831 31.128 46.4911 31.362C46.9051 31.596 47.3641 31.716 47.8681 31.722C48.4081 31.722 48.8971 31.584 49.3351 31.308C49.7731 31.026 50.1271 30.642 50.3971 30.156L51.9361 30.516C51.5761 31.314 51.0331 31.968 50.3071 32.478C49.5811 32.982 48.7681 33.234 47.8681 33.234ZM44.9341 27.861H50.8021C50.7541 27.357 50.5921 26.898 50.3161 26.484C50.0401 26.064 49.6891 25.728 49.2631 25.476C48.8371 25.224 48.3721 25.098 47.8681 25.098C47.3641 25.098 46.9021 25.221 46.4821 25.467C46.0621 25.713 45.7141 26.046 45.4381 26.466C45.1681 26.88 45.0001 27.345 44.9341 27.861ZM53.8398 33V24H55.3518V25.125C55.6698 24.705 56.0718 24.372 56.5578 24.126C57.0438 23.874 57.5718 23.748 58.1418 23.748C58.4898 23.748 58.8258 23.793 59.1498 23.883L58.5378 25.395C58.2918 25.317 58.0518 25.278 57.8178 25.278C57.3678 25.278 56.9538 25.389 56.5758 25.611C56.2038 25.827 55.9068 26.121 55.6848 26.493C55.4628 26.865 55.3518 27.279 55.3518 27.735V33H53.8398ZM67.0348 24H68.5468V33H67.0348L66.9718 31.479C66.6898 32.001 66.2998 32.424 65.8018 32.748C65.3098 33.072 64.7218 33.234 64.0378 33.234C63.3778 33.234 62.7598 33.111 62.1838 32.865C61.6078 32.613 61.0978 32.268 60.6538 31.83C60.2158 31.386 59.8738 30.876 59.6278 30.3C59.3818 29.724 59.2588 29.103 59.2588 28.437C59.2588 27.795 59.3788 27.189 59.6188 26.619C59.8588 26.049 60.1918 25.551 60.6178 25.125C61.0498 24.693 61.5478 24.357 62.1118 24.117C62.6758 23.871 63.2818 23.748 63.9298 23.748C64.6378 23.748 65.2588 23.916 65.7928 24.252C66.3268 24.582 66.7588 25.011 67.0888 25.539L67.0348 24ZM64.0107 31.767C64.6048 31.767 65.1178 31.623 65.5498 31.335C65.9878 31.041 66.3238 30.645 66.5578 30.147C66.7978 29.649 66.9178 29.1 66.9178 28.5C66.9178 27.888 66.7978 27.336 66.5578 26.844C66.3178 26.346 65.9788 25.953 65.5408 25.665C65.1088 25.371 64.5988 25.224 64.0107 25.224C63.4168 25.224 62.8768 25.371 62.3908 25.665C61.9048 25.959 61.5178 26.355 61.2298 26.853C60.9478 27.345 60.8068 27.894 60.8068 28.5C60.8068 29.106 60.9538 29.658 61.2478 30.156C61.5418 30.648 61.9318 31.041 62.4178 31.335C62.9038 31.623 63.4348 31.767 64.0107 31.767ZM70.3456 33V24H71.8576V25.125C72.1756 24.705 72.5776 24.372 73.0636 24.126C73.5496 23.874 74.0776 23.748 74.6476 23.748C74.9956 23.748 75.3316 23.793 75.6556 23.883L75.0436 25.395C74.7976 25.317 74.5576 25.278 74.3236 25.278C73.8736 25.278 73.4596 25.389 73.0816 25.611C72.7096 25.827 72.4126 26.121 72.1906 26.493C71.9686 26.865 71.8576 27.279 71.8576 27.735V33H70.3456ZM82.9266 24H84.5286L79.6056 37.5H78.0036L79.6326 33L76.4016 24H78.0576L80.3886 30.921L82.9266 24Z" fill="black" fill-opacity="0.2"/>
<path d="M20.5707 33V20.4H22.0827V33H20.5707ZM29.1815 25.512H27.1385L27.1295 33H25.6175L25.6265 25.512H24.0785V24H25.6265L25.6175 21.174H27.1295L27.1385 24H29.1815V25.512ZM30.707 24H32.219V33H30.707V24ZM31.481 22.533C31.241 22.533 31.04 22.455 30.878 22.299C30.716 22.143 30.635 21.948 30.635 21.714C30.635 21.48 30.716 21.285 30.878 21.129C31.04 20.973 31.238 20.895 31.472 20.895C31.706 20.895 31.904 20.973 32.066 21.129C32.228 21.285 32.309 21.48 32.309 21.714C32.309 21.948 32.228 22.143 32.066 22.299C31.91 22.455 31.715 22.533 31.481 22.533ZM42.284 27.402V33H40.772V27.735C40.772 27.279 40.661 26.865 40.439 26.493C40.217 26.121 39.92 25.827 39.548 25.611C39.176 25.389 38.762 25.278 38.306 25.278C37.856 25.278 37.442 25.389 37.064 25.611C36.692 25.827 36.395 26.121 36.173 26.493C35.951 26.865 35.84 27.279 35.84 27.735V33H34.328V24H35.84V25.125C36.158 24.705 36.56 24.372 37.046 24.126C37.532 23.874 38.06 23.748 38.63 23.748C39.302 23.748 39.914 23.913 40.466 24.243C41.024 24.567 41.465 25.005 41.789 25.557C42.119 26.109 42.284 26.724 42.284 27.402ZM47.8681 33.234C47.0401 33.234 46.2841 33.021 45.6001 32.595C44.9221 32.169 44.3791 31.599 43.9711 30.885C43.5691 30.165 43.3681 29.37 43.3681 28.5C43.3681 27.84 43.4851 27.225 43.7191 26.655C43.9531 26.079 44.2741 25.575 44.6821 25.143C45.0961 24.705 45.5761 24.363 46.1221 24.117C46.6681 23.871 47.2501 23.748 47.8681 23.748C48.5461 23.748 49.1671 23.886 49.7311 24.162C50.3011 24.432 50.7871 24.81 51.1891 25.296C51.5971 25.782 51.9001 26.346 52.0981 26.988C52.3021 27.63 52.3771 28.317 52.3231 29.049H44.9791C45.0511 29.559 45.2191 30.015 45.4831 30.417C45.7471 30.813 46.0831 31.128 46.4911 31.362C46.9051 31.596 47.3641 31.716 47.8681 31.722C48.4081 31.722 48.8971 31.584 49.3351 31.308C49.7731 31.026 50.1271 30.642 50.3971 30.156L51.9361 30.516C51.5761 31.314 51.0331 31.968 50.3071 32.478C49.5811 32.982 48.7681 33.234 47.8681 33.234ZM44.9341 27.861H50.8021C50.7541 27.357 50.5921 26.898 50.3161 26.484C50.0401 26.064 49.6891 25.728 49.2631 25.476C48.8371 25.224 48.3721 25.098 47.8681 25.098C47.3641 25.098 46.9021 25.221 46.4821 25.467C46.0621 25.713 45.7141 26.046 45.4381 26.466C45.1681 26.88 45.0001 27.345 44.9341 27.861ZM53.8398 33V24H55.3518V25.125C55.6698 24.705 56.0718 24.372 56.5578 24.126C57.0438 23.874 57.5718 23.748 58.1418 23.748C58.4898 23.748 58.8258 23.793 59.1498 23.883L58.5378 25.395C58.2918 25.317 58.0518 25.278 57.8178 25.278C57.3678 25.278 56.9538 25.389 56.5758 25.611C56.2038 25.827 55.9068 26.121 55.6848 26.493C55.4628 26.865 55.3518 27.279 55.3518 27.735V33H53.8398ZM67.0348 24H68.5468V33H67.0348L66.9718 31.479C66.6898 32.001 66.2998 32.424 65.8018 32.748C65.3098 33.072 64.7218 33.234 64.0378 33.234C63.3778 33.234 62.7598 33.111 62.1838 32.865C61.6078 32.613 61.0978 32.268 60.6538 31.83C60.2158 31.386 59.8738 30.876 59.6278 30.3C59.3818 29.724 59.2588 29.103 59.2588 28.437C59.2588 27.795 59.3788 27.189 59.6188 26.619C59.8588 26.049 60.1918 25.551 60.6178 25.125C61.0498 24.693 61.5478 24.357 62.1118 24.117C62.6758 23.871 63.2818 23.748 63.9298 23.748C64.6378 23.748 65.2588 23.916 65.7928 24.252C66.3268 24.582 66.7588 25.011 67.0888 25.539L67.0348 24ZM64.0107 31.767C64.6048 31.767 65.1178 31.623 65.5498 31.335C65.9878 31.041 66.3238 30.645 66.5578 30.147C66.7978 29.649 66.9178 29.1 66.9178 28.5C66.9178 27.888 66.7978 27.336 66.5578 26.844C66.3178 26.346 65.9788 25.953 65.5408 25.665C65.1088 25.371 64.5988 25.224 64.0107 25.224C63.4168 25.224 62.8768 25.371 62.3908 25.665C61.9048 25.959 61.5178 26.355 61.2298 26.853C60.9478 27.345 60.8068 27.894 60.8068 28.5C60.8068 29.106 60.9538 29.658 61.2478 30.156C61.5418 30.648 61.9318 31.041 62.4178 31.335C62.9038 31.623 63.4348 31.767 64.0107 31.767ZM70.3456 33V24H71.8576V25.125C72.1756 24.705 72.5776 24.372 73.0636 24.126C73.5496 23.874 74.0776 23.748 74.6476 23.748C74.9956 23.748 75.3316 23.793 75.6556 23.883L75.0436 25.395C74.7976 25.317 74.5576 25.278 74.3236 25.278C73.8736 25.278 73.4596 25.389 73.0816 25.611C72.7096 25.827 72.4126 26.121 72.1906 26.493C71.9686 26.865 71.8576 27.279 71.8576 27.735V33H70.3456ZM82.9266 24H84.5286L79.6056 37.5H78.0036L79.6326 33L76.4016 24H78.0576L80.3886 30.921L82.9266 24Z" fill="black" fill-opacity="0.2"/>
<path d="M20.5707 33V20.4H22.0827V33H20.5707ZM29.1815 25.512H27.1385L27.1295 33H25.6175L25.6265 25.512H24.0785V24H25.6265L25.6175 21.174H27.1295L27.1385 24H29.1815V25.512ZM30.707 24H32.219V33H30.707V24ZM31.481 22.533C31.241 22.533 31.04 22.455 30.878 22.299C30.716 22.143 30.635 21.948 30.635 21.714C30.635 21.48 30.716 21.285 30.878 21.129C31.04 20.973 31.238 20.895 31.472 20.895C31.706 20.895 31.904 20.973 32.066 21.129C32.228 21.285 32.309 21.48 32.309 21.714C32.309 21.948 32.228 22.143 32.066 22.299C31.91 22.455 31.715 22.533 31.481 22.533ZM42.284 27.402V33H40.772V27.735C40.772 27.279 40.661 26.865 40.439 26.493C40.217 26.121 39.92 25.827 39.548 25.611C39.176 25.389 38.762 25.278 38.306 25.278C37.856 25.278 37.442 25.389 37.064 25.611C36.692 25.827 36.395 26.121 36.173 26.493C35.951 26.865 35.84 27.279 35.84 27.735V33H34.328V24H35.84V25.125C36.158 24.705 36.56 24.372 37.046 24.126C37.532 23.874 38.06 23.748 38.63 23.748C39.302 23.748 39.914 23.913 40.466 24.243C41.024 24.567 41.465 25.005 41.789 25.557C42.119 26.109 42.284 26.724 42.284 27.402ZM47.8681 33.234C47.0401 33.234 46.2841 33.021 45.6001 32.595C44.9221 32.169 44.3791 31.599 43.9711 30.885C43.5691 30.165 43.3681 29.37 43.3681 28.5C43.3681 27.84 43.4851 27.225 43.7191 26.655C43.9531 26.079 44.2741 25.575 44.6821 25.143C45.0961 24.705 45.5761 24.363 46.1221 24.117C46.6681 23.871 47.2501 23.748 47.8681 23.748C48.5461 23.748 49.1671 23.886 49.7311 24.162C50.3011 24.432 50.7871 24.81 51.1891 25.296C51.5971 25.782 51.9001 26.346 52.0981 26.988C52.3021 27.63 52.3771 28.317 52.3231 29.049H44.9791C45.0511 29.559 45.2191 30.015 45.4831 30.417C45.7471 30.813 46.0831 31.128 46.4911 31.362C46.9051 31.596 47.3641 31.716 47.8681 31.722C48.4081 31.722 48.8971 31.584 49.3351 31.308C49.7731 31.026 50.1271 30.642 50.3971 30.156L51.9361 30.516C51.5761 31.314 51.0331 31.968 50.3071 32.478C49.5811 32.982 48.7681 33.234 47.8681 33.234ZM44.9341 27.861H50.8021C50.7541 27.357 50.5921 26.898 50.3161 26.484C50.0401 26.064 49.6891 25.728 49.2631 25.476C48.8371 25.224 48.3721 25.098 47.8681 25.098C47.3641 25.098 46.9021 25.221 46.4821 25.467C46.0621 25.713 45.7141 26.046 45.4381 26.466C45.1681 26.88 45.0001 27.345 44.9341 27.861ZM53.8398 33V24H55.3518V25.125C55.6698 24.705 56.0718 24.372 56.5578 24.126C57.0438 23.874 57.5718 23.748 58.1418 23.748C58.4898 23.748 58.8258 23.793 59.1498 23.883L58.5378 25.395C58.2918 25.317 58.0518 25.278 57.8178 25.278C57.3678 25.278 56.9538 25.389 56.5758 25.611C56.2038 25.827 55.9068 26.121 55.6848 26.493C55.4628 26.865 55.3518 27.279 55.3518 27.735V33H53.8398ZM67.0348 24H68.5468V33H67.0348L66.9718 31.479C66.6898 32.001 66.2998 32.424 65.8018 32.748C65.3098 33.072 64.7218 33.234 64.0378 33.234C63.3778 33.234 62.7598 33.111 62.1838 32.865C61.6078 32.613 61.0978 32.268 60.6538 31.83C60.2158 31.386 59.8738 30.876 59.6278 30.3C59.3818 29.724 59.2588 29.103 59.2588 28.437C59.2588 27.795 59.3788 27.189 59.6188 26.619C59.8588 26.049 60.1918 25.551 60.6178 25.125C61.0498 24.693 61.5478 24.357 62.1118 24.117C62.6758 23.871 63.2818 23.748 63.9298 23.748C64.6378 23.748 65.2588 23.916 65.7928 24.252C66.3268 24.582 66.7588 25.011 67.0888 25.539L67.0348 24ZM64.0107 31.767C64.6048 31.767 65.1178 31.623 65.5498 31.335C65.9878 31.041 66.3238 30.645 66.5578 30.147C66.7978 29.649 66.9178 29.1 66.9178 28.5C66.9178 27.888 66.7978 27.336 66.5578 26.844C66.3178 26.346 65.9788 25.953 65.5408 25.665C65.1088 25.371 64.5988 25.224 64.0107 25.224C63.4168 25.224 62.8768 25.371 62.3908 25.665C61.9048 25.959 61.5178 26.355 61.2298 26.853C60.9478 27.345 60.8068 27.894 60.8068 28.5C60.8068 29.106 60.9538 29.658 61.2478 30.156C61.5418 30.648 61.9318 31.041 62.4178 31.335C62.9038 31.623 63.4348 31.767 64.0107 31.767ZM70.3456 33V24H71.8576V25.125C72.1756 24.705 72.5776 24.372 73.0636 24.126C73.5496 23.874 74.0776 23.748 74.6476 23.748C74.9956 23.748 75.3316 23.793 75.6556 23.883L75.0436 25.395C74.7976 25.317 74.5576 25.278 74.3236 25.278C73.8736 25.278 73.4596 25.389 73.0816 25.611C72.7096 25.827 72.4126 26.121 72.1906 26.493C71.9686 26.865 71.8576 27.279 71.8576 27.735V33H70.3456ZM82.9266 24H84.5286L79.6056 37.5H78.0036L79.6326 33L76.4016 24H78.0576L80.3886 30.921L82.9266 24Z" fill="black" fill-opacity="0.2"/>
<path d="M20.5707 33V20.4H22.0827V33H20.5707ZM29.1815 25.512H27.1385L27.1295 33H25.6175L25.6265 25.512H24.0785V24H25.6265L25.6175 21.174H27.1295L27.1385 24H29.1815V25.512ZM30.707 24H32.219V33H30.707V24ZM31.481 22.533C31.241 22.533 31.04 22.455 30.878 22.299C30.716 22.143 30.635 21.948 30.635 21.714C30.635 21.48 30.716 21.285 30.878 21.129C31.04 20.973 31.238 20.895 31.472 20.895C31.706 20.895 31.904 20.973 32.066 21.129C32.228 21.285 32.309 21.48 32.309 21.714C32.309 21.948 32.228 22.143 32.066 22.299C31.91 22.455 31.715 22.533 31.481 22.533ZM42.284 27.402V33H40.772V27.735C40.772 27.279 40.661 26.865 40.439 26.493C40.217 26.121 39.92 25.827 39.548 25.611C39.176 25.389 38.762 25.278 38.306 25.278C37.856 25.278 37.442 25.389 37.064 25.611C36.692 25.827 36.395 26.121 36.173 26.493C35.951 26.865 35.84 27.279 35.84 27.735V33H34.328V24H35.84V25.125C36.158 24.705 36.56 24.372 37.046 24.126C37.532 23.874 38.06 23.748 38.63 23.748C39.302 23.748 39.914 23.913 40.466 24.243C41.024 24.567 41.465 25.005 41.789 25.557C42.119 26.109 42.284 26.724 42.284 27.402ZM47.8681 33.234C47.0401 33.234 46.2841 33.021 45.6001 32.595C44.9221 32.169 44.3791 31.599 43.9711 30.885C43.5691 30.165 43.3681 29.37 43.3681 28.5C43.3681 27.84 43.4851 27.225 43.7191 26.655C43.9531 26.079 44.2741 25.575 44.6821 25.143C45.0961 24.705 45.5761 24.363 46.1221 24.117C46.6681 23.871 47.2501 23.748 47.8681 23.748C48.5461 23.748 49.1671 23.886 49.7311 24.162C50.3011 24.432 50.7871 24.81 51.1891 25.296C51.5971 25.782 51.9001 26.346 52.0981 26.988C52.3021 27.63 52.3771 28.317 52.3231 29.049H44.9791C45.0511 29.559 45.2191 30.015 45.4831 30.417C45.7471 30.813 46.0831 31.128 46.4911 31.362C46.9051 31.596 47.3641 31.716 47.8681 31.722C48.4081 31.722 48.8971 31.584 49.3351 31.308C49.7731 31.026 50.1271 30.642 50.3971 30.156L51.9361 30.516C51.5761 31.314 51.0331 31.968 50.3071 32.478C49.5811 32.982 48.7681 33.234 47.8681 33.234ZM44.9341 27.861H50.8021C50.7541 27.357 50.5921 26.898 50.3161 26.484C50.0401 26.064 49.6891 25.728 49.2631 25.476C48.8371 25.224 48.3721 25.098 47.8681 25.098C47.3641 25.098 46.9021 25.221 46.4821 25.467C46.0621 25.713 45.7141 26.046 45.4381 26.466C45.1681 26.88 45.0001 27.345 44.9341 27.861ZM53.8398 33V24H55.3518V25.125C55.6698 24.705 56.0718 24.372 56.5578 24.126C57.0438 23.874 57.5718 23.748 58.1418 23.748C58.4898 23.748 58.8258 23.793 59.1498 23.883L58.5378 25.395C58.2918 25.317 58.0518 25.278 57.8178 25.278C57.3678 25.278 56.9538 25.389 56.5758 25.611C56.2038 25.827 55.9068 26.121 55.6848 26.493C55.4628 26.865 55.3518 27.279 55.3518 27.735V33H53.8398ZM67.0348 24H68.5468V33H67.0348L66.9718 31.479C66.6898 32.001 66.2998 32.424 65.8018 32.748C65.3098 33.072 64.7218 33.234 64.0378 33.234C63.3778 33.234 62.7598 33.111 62.1838 32.865C61.6078 32.613 61.0978 32.268 60.6538 31.83C60.2158 31.386 59.8738 30.876 59.6278 30.3C59.3818 29.724 59.2588 29.103 59.2588 28.437C59.2588 27.795 59.3788 27.189 59.6188 26.619C59.8588 26.049 60.1918 25.551 60.6178 25.125C61.0498 24.693 61.5478 24.357 62.1118 24.117C62.6758 23.871 63.2818 23.748 63.9298 23.748C64.6378 23.748 65.2588 23.916 65.7928 24.252C66.3268 24.582 66.7588 25.011 67.0888 25.539L67.0348 24ZM64.0107 31.767C64.6048 31.767 65.1178 31.623 65.5498 31.335C65.9878 31.041 66.3238 30.645 66.5578 30.147C66.7978 29.649 66.9178 29.1 66.9178 28.5C66.9178 27.888 66.7978 27.336 66.5578 26.844C66.3178 26.346 65.9788 25.953 65.5408 25.665C65.1088 25.371 64.5988 25.224 64.0107 25.224C63.4168 25.224 62.8768 25.371 62.3908 25.665C61.9048 25.959 61.5178 26.355 61.2298 26.853C60.9478 27.345 60.8068 27.894 60.8068 28.5C60.8068 29.106 60.9538 29.658 61.2478 30.156C61.5418 30.648 61.9318 31.041 62.4178 31.335C62.9038 31.623 63.4348 31.767 64.0107 31.767ZM70.3456 33V24H71.8576V25.125C72.1756 24.705 72.5776 24.372 73.0636 24.126C73.5496 23.874 74.0776 23.748 74.6476 23.748C74.9956 23.748 75.3316 23.793 75.6556 23.883L75.0436 25.395C74.7976 25.317 74.5576 25.278 74.3236 25.278C73.8736 25.278 73.4596 25.389 73.0816 25.611C72.7096 25.827 72.4126 26.121 72.1906 26.493C71.9686 26.865 71.8576 27.279 71.8576 27.735V33H70.3456ZM82.9266 24H84.5286L79.6056 37.5H78.0036L79.6326 33L76.4016 24H78.0576L80.3886 30.921L82.9266 24Z" fill="black" fill-opacity="0.2"/>
<path d="M20.5707 33V20.4H22.0827V33H20.5707ZM29.1815 25.512H27.1385L27.1295 33H25.6175L25.6265 25.512H24.0785V24H25.6265L25.6175 21.174H27.1295L27.1385 24H29.1815V25.512ZM30.707 24H32.219V33H30.707V24ZM31.481 22.533C31.241 22.533 31.04 22.455 30.878 22.299C30.716 22.143 30.635 21.948 30.635 21.714C30.635 21.48 30.716 21.285 30.878 21.129C31.04 20.973 31.238 20.895 31.472 20.895C31.706 20.895 31.904 20.973 32.066 21.129C32.228 21.285 32.309 21.48 32.309 21.714C32.309 21.948 32.228 22.143 32.066 22.299C31.91 22.455 31.715 22.533 31.481 22.533ZM42.284 27.402V33H40.772V27.735C40.772 27.279 40.661 26.865 40.439 26.493C40.217 26.121 39.92 25.827 39.548 25.611C39.176 25.389 38.762 25.278 38.306 25.278C37.856 25.278 37.442 25.389 37.064 25.611C36.692 25.827 36.395 26.121 36.173 26.493C35.951 26.865 35.84 27.279 35.84 27.735V33H34.328V24H35.84V25.125C36.158 24.705 36.56 24.372 37.046 24.126C37.532 23.874 38.06 23.748 38.63 23.748C39.302 23.748 39.914 23.913 40.466 24.243C41.024 24.567 41.465 25.005 41.789 25.557C42.119 26.109 42.284 26.724 42.284 27.402ZM47.8681 33.234C47.0401 33.234 46.2841 33.021 45.6001 32.595C44.9221 32.169 44.3791 31.599 43.9711 30.885C43.5691 30.165 43.3681 29.37 43.3681 28.5C43.3681 27.84 43.4851 27.225 43.7191 26.655C43.9531 26.079 44.2741 25.575 44.6821 25.143C45.0961 24.705 45.5761 24.363 46.1221 24.117C46.6681 23.871 47.2501 23.748 47.8681 23.748C48.5461 23.748 49.1671 23.886 49.7311 24.162C50.3011 24.432 50.7871 24.81 51.1891 25.296C51.5971 25.782 51.9001 26.346 52.0981 26.988C52.3021 27.63 52.3771 28.317 52.3231 29.049H44.9791C45.0511 29.559 45.2191 30.015 45.4831 30.417C45.7471 30.813 46.0831 31.128 46.4911 31.362C46.9051 31.596 47.3641 31.716 47.8681 31.722C48.4081 31.722 48.8971 31.584 49.3351 31.308C49.7731 31.026 50.1271 30.642 50.3971 30.156L51.9361 30.516C51.5761 31.314 51.0331 31.968 50.3071 32.478C49.5811 32.982 48.7681 33.234 47.8681 33.234ZM44.9341 27.861H50.8021C50.7541 27.357 50.5921 26.898 50.3161 26.484C50.0401 26.064 49.6891 25.728 49.2631 25.476C48.8371 25.224 48.3721 25.098 47.8681 25.098C47.3641 25.098 46.9021 25.221 46.4821 25.467C46.0621 25.713 45.7141 26.046 45.4381 26.466C45.1681 26.88 45.0001 27.345 44.9341 27.861ZM53.8398 33V24H55.3518V25.125C55.6698 24.705 56.0718 24.372 56.5578 24.126C57.0438 23.874 57.5718 23.748 58.1418 23.748C58.4898 23.748 58.8258 23.793 59.1498 23.883L58.5378 25.395C58.2918 25.317 58.0518 25.278 57.8178 25.278C57.3678 25.278 56.9538 25.389 56.5758 25.611C56.2038 25.827 55.9068 26.121 55.6848 26.493C55.4628 26.865 55.3518 27.279 55.3518 27.735V33H53.8398ZM67.0348 24H68.5468V33H67.0348L66.9718 31.479C66.6898 32.001 66.2998 32.424 65.8018 32.748C65.3098 33.072 64.7218 33.234 64.0378 33.234C63.3778 33.234 62.7598 33.111 62.1838 32.865C61.6078 32.613 61.0978 32.268 60.6538 31.83C60.2158 31.386 59.8738 30.876 59.6278 30.3C59.3818 29.724 59.2588 29.103 59.2588 28.437C59.2588 27.795 59.3788 27.189 59.6188 26.619C59.8588 26.049 60.1918 25.551 60.6178 25.125C61.0498 24.693 61.5478 24.357 62.1118 24.117C62.6758 23.871 63.2818 23.748 63.9298 23.748C64.6378 23.748 65.2588 23.916 65.7928 24.252C66.3268 24.582 66.7588 25.011 67.0888 25.539L67.0348 24ZM64.0107 31.767C64.6048 31.767 65.1178 31.623 65.5498 31.335C65.9878 31.041 66.3238 30.645 66.5578 30.147C66.7978 29.649 66.9178 29.1 66.9178 28.5C66.9178 27.888 66.7978 27.336 66.5578 26.844C66.3178 26.346 65.9788 25.953 65.5408 25.665C65.1088 25.371 64.5988 25.224 64.0107 25.224C63.4168 25.224 62.8768 25.371 62.3908 25.665C61.9048 25.959 61.5178 26.355 61.2298 26.853C60.9478 27.345 60.8068 27.894 60.8068 28.5C60.8068 29.106 60.9538 29.658 61.2478 30.156C61.5418 30.648 61.9318 31.041 62.4178 31.335C62.9038 31.623 63.4348 31.767 64.0107 31.767ZM70.3456 33V24H71.8576V25.125C72.1756 24.705 72.5776 24.372 73.0636 24.126C73.5496 23.874 74.0776 23.748 74.6476 23.748C74.9956 23.748 75.3316 23.793 75.6556 23.883L75.0436 25.395C74.7976 25.317 74.5576 25.278 74.3236 25.278C73.8736 25.278 73.4596 25.389 73.0816 25.611C72.7096 25.827 72.4126 26.121 72.1906 26.493C71.9686 26.865 71.8576 27.279 71.8576 27.735V33H70.3456ZM82.9266 24H84.5286L79.6056 37.5H78.0036L79.6326 33L76.4016 24H78.0576L80.3886 30.921L82.9266 24Z" fill="black" fill-opacity="0.2"/>
<path d="M20.5707 33V20.4H22.0827V33H20.5707ZM29.1815 25.512H27.1385L27.1295 33H25.6175L25.6265 25.512H24.0785V24H25.6265L25.6175 21.174H27.1295L27.1385 24H29.1815V25.512ZM30.707 24H32.219V33H30.707V24ZM31.481 22.533C31.241 22.533 31.04 22.455 30.878 22.299C30.716 22.143 30.635 21.948 30.635 21.714C30.635 21.48 30.716 21.285 30.878 21.129C31.04 20.973 31.238 20.895 31.472 20.895C31.706 20.895 31.904 20.973 32.066 21.129C32.228 21.285 32.309 21.48 32.309 21.714C32.309 21.948 32.228 22.143 32.066 22.299C31.91 22.455 31.715 22.533 31.481 22.533ZM42.284 27.402V33H40.772V27.735C40.772 27.279 40.661 26.865 40.439 26.493C40.217 26.121 39.92 25.827 39.548 25.611C39.176 25.389 38.762 25.278 38.306 25.278C37.856 25.278 37.442 25.389 37.064 25.611C36.692 25.827 36.395 26.121 36.173 26.493C35.951 26.865 35.84 27.279 35.84 27.735V33H34.328V24H35.84V25.125C36.158 24.705 36.56 24.372 37.046 24.126C37.532 23.874 38.06 23.748 38.63 23.748C39.302 23.748 39.914 23.913 40.466 24.243C41.024 24.567 41.465 25.005 41.789 25.557C42.119 26.109 42.284 26.724 42.284 27.402ZM47.8681 33.234C47.0401 33.234 46.2841 33.021 45.6001 32.595C44.9221 32.169 44.3791 31.599 43.9711 30.885C43.5691 30.165 43.3681 29.37 43.3681 28.5C43.3681 27.84 43.4851 27.225 43.7191 26.655C43.9531 26.079 44.2741 25.575 44.6821 25.143C45.0961 24.705 45.5761 24.363 46.1221 24.117C46.6681 23.871 47.2501 23.748 47.8681 23.748C48.5461 23.748 49.1671 23.886 49.7311 24.162C50.3011 24.432 50.7871 24.81 51.1891 25.296C51.5971 25.782 51.9001 26.346 52.0981 26.988C52.3021 27.63 52.3771 28.317 52.3231 29.049H44.9791C45.0511 29.559 45.2191 30.015 45.4831 30.417C45.7471 30.813 46.0831 31.128 46.4911 31.362C46.9051 31.596 47.3641 31.716 47.8681 31.722C48.4081 31.722 48.8971 31.584 49.3351 31.308C49.7731 31.026 50.1271 30.642 50.3971 30.156L51.9361 30.516C51.5761 31.314 51.0331 31.968 50.3071 32.478C49.5811 32.982 48.7681 33.234 47.8681 33.234ZM44.9341 27.861H50.8021C50.7541 27.357 50.5921 26.898 50.3161 26.484C50.0401 26.064 49.6891 25.728 49.2631 25.476C48.8371 25.224 48.3721 25.098 47.8681 25.098C47.3641 25.098 46.9021 25.221 46.4821 25.467C46.0621 25.713 45.7141 26.046 45.4381 26.466C45.1681 26.88 45.0001 27.345 44.9341 27.861ZM53.8398 33V24H55.3518V25.125C55.6698 24.705 56.0718 24.372 56.5578 24.126C57.0438 23.874 57.5718 23.748 58.1418 23.748C58.4898 23.748 58.8258 23.793 59.1498 23.883L58.5378 25.395C58.2918 25.317 58.0518 25.278 57.8178 25.278C57.3678 25.278 56.9538 25.389 56.5758 25.611C56.2038 25.827 55.9068 26.121 55.6848 26.493C55.4628 26.865 55.3518 27.279 55.3518 27.735V33H53.8398ZM67.0348 24H68.5468V33H67.0348L66.9718 31.479C66.6898 32.001 66.2998 32.424 65.8018 32.748C65.3098 33.072 64.7218 33.234 64.0378 33.234C63.3778 33.234 62.7598 33.111 62.1838 32.865C61.6078 32.613 61.0978 32.268 60.6538 31.83C60.2158 31.386 59.8738 30.876 59.6278 30.3C59.3818 29.724 59.2588 29.103 59.2588 28.437C59.2588 27.795 59.3788 27.189 59.6188 26.619C59.8588 26.049 60.1918 25.551 60.6178 25.125C61.0498 24.693 61.5478 24.357 62.1118 24.117C62.6758 23.871 63.2818 23.748 63.9298 23.748C64.6378 23.748 65.2588 23.916 65.7928 24.252C66.3268 24.582 66.7588 25.011 67.0888 25.539L67.0348 24ZM64.0107 31.767C64.6048 31.767 65.1178 31.623 65.5498 31.335C65.9878 31.041 66.3238 30.645 66.5578 30.147C66.7978 29.649 66.9178 29.1 66.9178 28.5C66.9178 27.888 66.7978 27.336 66.5578 26.844C66.3178 26.346 65.9788 25.953 65.5408 25.665C65.1088 25.371 64.5988 25.224 64.0107 25.224C63.4168 25.224 62.8768 25.371 62.3908 25.665C61.9048 25.959 61.5178 26.355 61.2298 26.853C60.9478 27.345 60.8068 27.894 60.8068 28.5C60.8068 29.106 60.9538 29.658 61.2478 30.156C61.5418 30.648 61.9318 31.041 62.4178 31.335C62.9038 31.623 63.4348 31.767 64.0107 31.767ZM70.3456 33V24H71.8576V25.125C72.1756 24.705 72.5776 24.372 73.0636 24.126C73.5496 23.874 74.0776 23.748 74.6476 23.748C74.9956 23.748 75.3316 23.793 75.6556 23.883L75.0436 25.395C74.7976 25.317 74.5576 25.278 74.3236 25.278C73.8736 25.278 73.4596 25.389 73.0816 25.611C72.7096 25.827 72.4126 26.121 72.1906 26.493C71.9686 26.865 71.8576 27.279 71.8576 27.735V33H70.3456ZM82.9266 24H84.5286L79.6056 37.5H78.0036L79.6326 33L76.4016 24H78.0576L80.3886 30.921L82.9266 24Z" fill="black" fill-opacity="0.2"/>
<path d="M20.5707 33V20.4H22.0827V33H20.5707ZM29.1815 25.512H27.1385L27.1295 33H25.6175L25.6265 25.512H24.0785V24H25.6265L25.6175 21.174H27.1295L27.1385 24H29.1815V25.512ZM30.707 24H32.219V33H30.707V24ZM31.481 22.533C31.241 22.533 31.04 22.455 30.878 22.299C30.716 22.143 30.635 21.948 30.635 21.714C30.635 21.48 30.716 21.285 30.878 21.129C31.04 20.973 31.238 20.895 31.472 20.895C31.706 20.895 31.904 20.973 32.066 21.129C32.228 21.285 32.309 21.48 32.309 21.714C32.309 21.948 32.228 22.143 32.066 22.299C31.91 22.455 31.715 22.533 31.481 22.533ZM42.284 27.402V33H40.772V27.735C40.772 27.279 40.661 26.865 40.439 26.493C40.217 26.121 39.92 25.827 39.548 25.611C39.176 25.389 38.762 25.278 38.306 25.278C37.856 25.278 37.442 25.389 37.064 25.611C36.692 25.827 36.395 26.121 36.173 26.493C35.951 26.865 35.84 27.279 35.84 27.735V33H34.328V24H35.84V25.125C36.158 24.705 36.56 24.372 37.046 24.126C37.532 23.874 38.06 23.748 38.63 23.748C39.302 23.748 39.914 23.913 40.466 24.243C41.024 24.567 41.465 25.005 41.789 25.557C42.119 26.109 42.284 26.724 42.284 27.402ZM47.8681 33.234C47.0401 33.234 46.2841 33.021 45.6001 32.595C44.9221 32.169 44.3791 31.599 43.9711 30.885C43.5691 30.165 43.3681 29.37 43.3681 28.5C43.3681 27.84 43.4851 27.225 43.7191 26.655C43.9531 26.079 44.2741 25.575 44.6821 25.143C45.0961 24.705 45.5761 24.363 46.1221 24.117C46.6681 23.871 47.2501 23.748 47.8681 23.748C48.5461 23.748 49.1671 23.886 49.7311 24.162C50.3011 24.432 50.7871 24.81 51.1891 25.296C51.5971 25.782 51.9001 26.346 52.0981 26.988C52.3021 27.63 52.3771 28.317 52.3231 29.049H44.9791C45.0511 29.559 45.2191 30.015 45.4831 30.417C45.7471 30.813 46.0831 31.128 46.4911 31.362C46.9051 31.596 47.3641 31.716 47.8681 31.722C48.4081 31.722 48.8971 31.584 49.3351 31.308C49.7731 31.026 50.1271 30.642 50.3971 30.156L51.9361 30.516C51.5761 31.314 51.0331 31.968 50.3071 32.478C49.5811 32.982 48.7681 33.234 47.8681 33.234ZM44.9341 27.861H50.8021C50.7541 27.357 50.5921 26.898 50.3161 26.484C50.0401 26.064 49.6891 25.728 49.2631 25.476C48.8371 25.224 48.3721 25.098 47.8681 25.098C47.3641 25.098 46.9021 25.221 46.4821 25.467C46.0621 25.713 45.7141 26.046 45.4381 26.466C45.1681 26.88 45.0001 27.345 44.9341 27.861ZM53.8398 33V24H55.3518V25.125C55.6698 24.705 56.0718 24.372 56.5578 24.126C57.0438 23.874 57.5718 23.748 58.1418 23.748C58.4898 23.748 58.8258 23.793 59.1498 23.883L58.5378 25.395C58.2918 25.317 58.0518 25.278 57.8178 25.278C57.3678 25.278 56.9538 25.389 56.5758 25.611C56.2038 25.827 55.9068 26.121 55.6848 26.493C55.4628 26.865 55.3518 27.279 55.3518 27.735V33H53.8398ZM67.0348 24H68.5468V33H67.0348L66.9718 31.479C66.6898 32.001 66.2998 32.424 65.8018 32.748C65.3098 33.072 64.7218 33.234 64.0378 33.234C63.3778 33.234 62.7598 33.111 62.1838 32.865C61.6078 32.613 61.0978 32.268 60.6538 31.83C60.2158 31.386 59.8738 30.876 59.6278 30.3C59.3818 29.724 59.2588 29.103 59.2588 28.437C59.2588 27.795 59.3788 27.189 59.6188 26.619C59.8588 26.049 60.1918 25.551 60.6178 25.125C61.0498 24.693 61.5478 24.357 62.1118 24.117C62.6758 23.871 63.2818 23.748 63.9298 23.748C64.6378 23.748 65.2588 23.916 65.7928 24.252C66.3268 24.582 66.7588 25.011 67.0888 25.539L67.0348 24ZM64.0107 31.767C64.6048 31.767 65.1178 31.623 65.5498 31.335C65.9878 31.041 66.3238 30.645 66.5578 30.147C66.7978 29.649 66.9178 29.1 66.9178 28.5C66.9178 27.888 66.7978 27.336 66.5578 26.844C66.3178 26.346 65.9788 25.953 65.5408 25.665C65.1088 25.371 64.5988 25.224 64.0107 25.224C63.4168 25.224 62.8768 25.371 62.3908 25.665C61.9048 25.959 61.5178 26.355 61.2298 26.853C60.9478 27.345 60.8068 27.894 60.8068 28.5C60.8068 29.106 60.9538 29.658 61.2478 30.156C61.5418 30.648 61.9318 31.041 62.4178 31.335C62.9038 31.623 63.4348 31.767 64.0107 31.767ZM70.3456 33V24H71.8576V25.125C72.1756 24.705 72.5776 24.372 73.0636 24.126C73.5496 23.874 74.0776 23.748 74.6476 23.748C74.9956 23.748 75.3316 23.793 75.6556 23.883L75.0436 25.395C74.7976 25.317 74.5576 25.278 74.3236 25.278C73.8736 25.278 73.4596 25.389 73.0816 25.611C72.7096 25.827 72.4126 26.121 72.1906 26.493C71.9686 26.865 71.8576 27.279 71.8576 27.735V33H70.3456ZM82.9266 24H84.5286L79.6056 37.5H78.0036L79.6326 33L76.4016 24H78.0576L80.3886 30.921L82.9266 24Z" fill="black" fill-opacity="0.2"/>
<path d="M20.5707 33V20.4H22.0827V33H20.5707ZM29.1815 25.512H27.1385L27.1295 33H25.6175L25.6265 25.512H24.0785V24H25.6265L25.6175 21.174H27.1295L27.1385 24H29.1815V25.512ZM30.707 24H32.219V33H30.707V24ZM31.481 22.533C31.241 22.533 31.04 22.455 30.878 22.299C30.716 22.143 30.635 21.948 30.635 21.714C30.635 21.48 30.716 21.285 30.878 21.129C31.04 20.973 31.238 20.895 31.472 20.895C31.706 20.895 31.904 20.973 32.066 21.129C32.228 21.285 32.309 21.48 32.309 21.714C32.309 21.948 32.228 22.143 32.066 22.299C31.91 22.455 31.715 22.533 31.481 22.533ZM42.284 27.402V33H40.772V27.735C40.772 27.279 40.661 26.865 40.439 26.493C40.217 26.121 39.92 25.827 39.548 25.611C39.176 25.389 38.762 25.278 38.306 25.278C37.856 25.278 37.442 25.389 37.064 25.611C36.692 25.827 36.395 26.121 36.173 26.493C35.951 26.865 35.84 27.279 35.84 27.735V33H34.328V24H35.84V25.125C36.158 24.705 36.56 24.372 37.046 24.126C37.532 23.874 38.06 23.748 38.63 23.748C39.302 23.748 39.914 23.913 40.466 24.243C41.024 24.567 41.465 25.005 41.789 25.557C42.119 26.109 42.284 26.724 42.284 27.402ZM47.8681 33.234C47.0401 33.234 46.2841 33.021 45.6001 32.595C44.9221 32.169 44.3791 31.599 43.9711 30.885C43.5691 30.165 43.3681 29.37 43.3681 28.5C43.3681 27.84 43.4851 27.225 43.7191 26.655C43.9531 26.079 44.2741 25.575 44.6821 25.143C45.0961 24.705 45.5761 24.363 46.1221 24.117C46.6681 23.871 47.2501 23.748 47.8681 23.748C48.5461 23.748 49.1671 23.886 49.7311 24.162C50.3011 24.432 50.7871 24.81 51.1891 25.296C51.5971 25.782 51.9001 26.346 52.0981 26.988C52.3021 27.63 52.3771 28.317 52.3231 29.049H44.9791C45.0511 29.559 45.2191 30.015 45.4831 30.417C45.7471 30.813 46.0831 31.128 46.4911 31.362C46.9051 31.596 47.3641 31.716 47.8681 31.722C48.4081 31.722 48.8971 31.584 49.3351 31.308C49.7731 31.026 50.1271 30.642 50.3971 30.156L51.9361 30.516C51.5761 31.314 51.0331 31.968 50.3071 32.478C49.5811 32.982 48.7681 33.234 47.8681 33.234ZM44.9341 27.861H50.8021C50.7541 27.357 50.5921 26.898 50.3161 26.484C50.0401 26.064 49.6891 25.728 49.2631 25.476C48.8371 25.224 48.3721 25.098 47.8681 25.098C47.3641 25.098 46.9021 25.221 46.4821 25.467C46.0621 25.713 45.7141 26.046 45.4381 26.466C45.1681 26.88 45.0001 27.345 44.9341 27.861ZM53.8398 33V24H55.3518V25.125C55.6698 24.705 56.0718 24.372 56.5578 24.126C57.0438 23.874 57.5718 23.748 58.1418 23.748C58.4898 23.748 58.8258 23.793 59.1498 23.883L58.5378 25.395C58.2918 25.317 58.0518 25.278 57.8178 25.278C57.3678 25.278 56.9538 25.389 56.5758 25.611C56.2038 25.827 55.9068 26.121 55.6848 26.493C55.4628 26.865 55.3518 27.279 55.3518 27.735V33H53.8398ZM67.0348 24H68.5468V33H67.0348L66.9718 31.479C66.6898 32.001 66.2998 32.424 65.8018 32.748C65.3098 33.072 64.7218 33.234 64.0378 33.234C63.3778 33.234 62.7598 33.111 62.1838 32.865C61.6078 32.613 61.0978 32.268 60.6538 31.83C60.2158 31.386 59.8738 30.876 59.6278 30.3C59.3818 29.724 59.2588 29.103 59.2588 28.437C59.2588 27.795 59.3788 27.189 59.6188 26.619C59.8588 26.049 60.1918 25.551 60.6178 25.125C61.0498 24.693 61.5478 24.357 62.1118 24.117C62.6758 23.871 63.2818 23.748 63.9298 23.748C64.6378 23.748 65.2588 23.916 65.7928 24.252C66.3268 24.582 66.7588 25.011 67.0888 25.539L67.0348 24ZM64.0107 31.767C64.6048 31.767 65.1178 31.623 65.5498 31.335C65.9878 31.041 66.3238 30.645 66.5578 30.147C66.7978 29.649 66.9178 29.1 66.9178 28.5C66.9178 27.888 66.7978 27.336 66.5578 26.844C66.3178 26.346 65.9788 25.953 65.5408 25.665C65.1088 25.371 64.5988 25.224 64.0107 25.224C63.4168 25.224 62.8768 25.371 62.3908 25.665C61.9048 25.959 61.5178 26.355 61.2298 26.853C60.9478 27.345 60.8068 27.894 60.8068 28.5C60.8068 29.106 60.9538 29.658 61.2478 30.156C61.5418 30.648 61.9318 31.041 62.4178 31.335C62.9038 31.623 63.4348 31.767 64.0107 31.767ZM70.3456 33V24H71.8576V25.125C72.1756 24.705 72.5776 24.372 73.0636 24.126C73.5496 23.874 74.0776 23.748 74.6476 23.748C74.9956 23.748 75.3316 23.793 75.6556 23.883L75.0436 25.395C74.7976 25.317 74.5576 25.278 74.3236 25.278C73.8736 25.278 73.4596 25.389 73.0816 25.611C72.7096 25.827 72.4126 26.121 72.1906 26.493C71.9686 26.865 71.8576 27.279 71.8576 27.735V33H70.3456ZM82.9266 24H84.5286L79.6056 37.5H78.0036L79.6326 33L76.4016 24H78.0576L80.3886 30.921L82.9266 24Z" fill="black" fill-opacity="0.2"/>
<path d="M20.5707 33V20.4H22.0827V33H20.5707ZM29.1815 25.512H27.1385L27.1295 33H25.6175L25.6265 25.512H24.0785V24H25.6265L25.6175 21.174H27.1295L27.1385 24H29.1815V25.512ZM30.707 24H32.219V33H30.707V24ZM31.481 22.533C31.241 22.533 31.04 22.455 30.878 22.299C30.716 22.143 30.635 21.948 30.635 21.714C30.635 21.48 30.716 21.285 30.878 21.129C31.04 20.973 31.238 20.895 31.472 20.895C31.706 20.895 31.904 20.973 32.066 21.129C32.228 21.285 32.309 21.48 32.309 21.714C32.309 21.948 32.228 22.143 32.066 22.299C31.91 22.455 31.715 22.533 31.481 22.533ZM42.284 27.402V33H40.772V27.735C40.772 27.279 40.661 26.865 40.439 26.493C40.217 26.121 39.92 25.827 39.548 25.611C39.176 25.389 38.762 25.278 38.306 25.278C37.856 25.278 37.442 25.389 37.064 25.611C36.692 25.827 36.395 26.121 36.173 26.493C35.951 26.865 35.84 27.279 35.84 27.735V33H34.328V24H35.84V25.125C36.158 24.705 36.56 24.372 37.046 24.126C37.532 23.874 38.06 23.748 38.63 23.748C39.302 23.748 39.914 23.913 40.466 24.243C41.024 24.567 41.465 25.005 41.789 25.557C42.119 26.109 42.284 26.724 42.284 27.402ZM47.8681 33.234C47.0401 33.234 46.2841 33.021 45.6001 32.595C44.9221 32.169 44.3791 31.599 43.9711 30.885C43.5691 30.165 43.3681 29.37 43.3681 28.5C43.3681 27.84 43.4851 27.225 43.7191 26.655C43.9531 26.079 44.2741 25.575 44.6821 25.143C45.0961 24.705 45.5761 24.363 46.1221 24.117C46.6681 23.871 47.2501 23.748 47.8681 23.748C48.5461 23.748 49.1671 23.886 49.7311 24.162C50.3011 24.432 50.7871 24.81 51.1891 25.296C51.5971 25.782 51.9001 26.346 52.0981 26.988C52.3021 27.63 52.3771 28.317 52.3231 29.049H44.9791C45.0511 29.559 45.2191 30.015 45.4831 30.417C45.7471 30.813 46.0831 31.128 46.4911 31.362C46.9051 31.596 47.3641 31.716 47.8681 31.722C48.4081 31.722 48.8971 31.584 49.3351 31.308C49.7731 31.026 50.1271 30.642 50.3971 30.156L51.9361 30.516C51.5761 31.314 51.0331 31.968 50.3071 32.478C49.5811 32.982 48.7681 33.234 47.8681 33.234ZM44.9341 27.861H50.8021C50.7541 27.357 50.5921 26.898 50.3161 26.484C50.0401 26.064 49.6891 25.728 49.2631 25.476C48.8371 25.224 48.3721 25.098 47.8681 25.098C47.3641 25.098 46.9021 25.221 46.4821 25.467C46.0621 25.713 45.7141 26.046 45.4381 26.466C45.1681 26.88 45.0001 27.345 44.9341 27.861ZM53.8398 33V24H55.3518V25.125C55.6698 24.705 56.0718 24.372 56.5578 24.126C57.0438 23.874 57.5718 23.748 58.1418 23.748C58.4898 23.748 58.8258 23.793 59.1498 23.883L58.5378 25.395C58.2918 25.317 58.0518 25.278 57.8178 25.278C57.3678 25.278 56.9538 25.389 56.5758 25.611C56.2038 25.827 55.9068 26.121 55.6848 26.493C55.4628 26.865 55.3518 27.279 55.3518 27.735V33H53.8398ZM67.0348 24H68.5468V33H67.0348L66.9718 31.479C66.6898 32.001 66.2998 32.424 65.8018 32.748C65.3098 33.072 64.7218 33.234 64.0378 33.234C63.3778 33.234 62.7598 33.111 62.1838 32.865C61.6078 32.613 61.0978 32.268 60.6538 31.83C60.2158 31.386 59.8738 30.876 59.6278 30.3C59.3818 29.724 59.2588 29.103 59.2588 28.437C59.2588 27.795 59.3788 27.189 59.6188 26.619C59.8588 26.049 60.1918 25.551 60.6178 25.125C61.0498 24.693 61.5478 24.357 62.1118 24.117C62.6758 23.871 63.2818 23.748 63.9298 23.748C64.6378 23.748 65.2588 23.916 65.7928 24.252C66.3268 24.582 66.7588 25.011 67.0888 25.539L67.0348 24ZM64.0107 31.767C64.6048 31.767 65.1178 31.623 65.5498 31.335C65.9878 31.041 66.3238 30.645 66.5578 30.147C66.7978 29.649 66.9178 29.1 66.9178 28.5C66.9178 27.888 66.7978 27.336 66.5578 26.844C66.3178 26.346 65.9788 25.953 65.5408 25.665C65.1088 25.371 64.5988 25.224 64.0107 25.224C63.4168 25.224 62.8768 25.371 62.3908 25.665C61.9048 25.959 61.5178 26.355 61.2298 26.853C60.9478 27.345 60.8068 27.894 60.8068 28.5C60.8068 29.106 60.9538 29.658 61.2478 30.156C61.5418 30.648 61.9318 31.041 62.4178 31.335C62.9038 31.623 63.4348 31.767 64.0107 31.767ZM70.3456 33V24H71.8576V25.125C72.1756 24.705 72.5776 24.372 73.0636 24.126C73.5496 23.874 74.0776 23.748 74.6476 23.748C74.9956 23.748 75.3316 23.793 75.6556 23.883L75.0436 25.395C74.7976 25.317 74.5576 25.278 74.3236 25.278C73.8736 25.278 73.4596 25.389 73.0816 25.611C72.7096 25.827 72.4126 26.121 72.1906 26.493C71.9686 26.865 71.8576 27.279 71.8576 27.735V33H70.3456ZM82.9266 24H84.5286L79.6056 37.5H78.0036L79.6326 33L76.4016 24H78.0576L80.3886 30.921L82.9266 24Z" fill="black" fill-opacity="0.2"/>
<path d="M20.5707 33V20.4H22.0827V33H20.5707ZM29.1815 25.512H27.1385L27.1295 33H25.6175L25.6265 25.512H24.0785V24H25.6265L25.6175 21.174H27.1295L27.1385 24H29.1815V25.512ZM30.707 24H32.219V33H30.707V24ZM31.481 22.533C31.241 22.533 31.04 22.455 30.878 22.299C30.716 22.143 30.635 21.948 30.635 21.714C30.635 21.48 30.716 21.285 30.878 21.129C31.04 20.973 31.238 20.895 31.472 20.895C31.706 20.895 31.904 20.973 32.066 21.129C32.228 21.285 32.309 21.48 32.309 21.714C32.309 21.948 32.228 22.143 32.066 22.299C31.91 22.455 31.715 22.533 31.481 22.533ZM42.284 27.402V33H40.772V27.735C40.772 27.279 40.661 26.865 40.439 26.493C40.217 26.121 39.92 25.827 39.548 25.611C39.176 25.389 38.762 25.278 38.306 25.278C37.856 25.278 37.442 25.389 37.064 25.611C36.692 25.827 36.395 26.121 36.173 26.493C35.951 26.865 35.84 27.279 35.84 27.735V33H34.328V24H35.84V25.125C36.158 24.705 36.56 24.372 37.046 24.126C37.532 23.874 38.06 23.748 38.63 23.748C39.302 23.748 39.914 23.913 40.466 24.243C41.024 24.567 41.465 25.005 41.789 25.557C42.119 26.109 42.284 26.724 42.284 27.402ZM47.8681 33.234C47.0401 33.234 46.2841 33.021 45.6001 32.595C44.9221 32.169 44.3791 31.599 43.9711 30.885C43.5691 30.165 43.3681 29.37 43.3681 28.5C43.3681 27.84 43.4851 27.225 43.7191 26.655C43.9531 26.079 44.2741 25.575 44.6821 25.143C45.0961 24.705 45.5761 24.363 46.1221 24.117C46.6681 23.871 47.2501 23.748 47.8681 23.748C48.5461 23.748 49.1671 23.886 49.7311 24.162C50.3011 24.432 50.7871 24.81 51.1891 25.296C51.5971 25.782 51.9001 26.346 52.0981 26.988C52.3021 27.63 52.3771 28.317 52.3231 29.049H44.9791C45.0511 29.559 45.2191 30.015 45.4831 30.417C45.7471 30.813 46.0831 31.128 46.4911 31.362C46.9051 31.596 47.3641 31.716 47.8681 31.722C48.4081 31.722 48.8971 31.584 49.3351 31.308C49.7731 31.026 50.1271 30.642 50.3971 30.156L51.9361 30.516C51.5761 31.314 51.0331 31.968 50.3071 32.478C49.5811 32.982 48.7681 33.234 47.8681 33.234ZM44.9341 27.861H50.8021C50.7541 27.357 50.5921 26.898 50.3161 26.484C50.0401 26.064 49.6891 25.728 49.2631 25.476C48.8371 25.224 48.3721 25.098 47.8681 25.098C47.3641 25.098 46.9021 25.221 46.4821 25.467C46.0621 25.713 45.7141 26.046 45.4381 26.466C45.1681 26.88 45.0001 27.345 44.9341 27.861ZM53.8398 33V24H55.3518V25.125C55.6698 24.705 56.0718 24.372 56.5578 24.126C57.0438 23.874 57.5718 23.748 58.1418 23.748C58.4898 23.748 58.8258 23.793 59.1498 23.883L58.5378 25.395C58.2918 25.317 58.0518 25.278 57.8178 25.278C57.3678 25.278 56.9538 25.389 56.5758 25.611C56.2038 25.827 55.9068 26.121 55.6848 26.493C55.4628 26.865 55.3518 27.279 55.3518 27.735V33H53.8398ZM67.0348 24H68.5468V33H67.0348L66.9718 31.479C66.6898 32.001 66.2998 32.424 65.8018 32.748C65.3098 33.072 64.7218 33.234 64.0378 33.234C63.3778 33.234 62.7598 33.111 62.1838 32.865C61.6078 32.613 61.0978 32.268 60.6538 31.83C60.2158 31.386 59.8738 30.876 59.6278 30.3C59.3818 29.724 59.2588 29.103 59.2588 28.437C59.2588 27.795 59.3788 27.189 59.6188 26.619C59.8588 26.049 60.1918 25.551 60.6178 25.125C61.0498 24.693 61.5478 24.357 62.1118 24.117C62.6758 23.871 63.2818 23.748 63.9298 23.748C64.6378 23.748 65.2588 23.916 65.7928 24.252C66.3268 24.582 66.7588 25.011 67.0888 25.539L67.0348 24ZM64.0107 31.767C64.6048 31.767 65.1178 31.623 65.5498 31.335C65.9878 31.041 66.3238 30.645 66.5578 30.147C66.7978 29.649 66.9178 29.1 66.9178 28.5C66.9178 27.888 66.7978 27.336 66.5578 26.844C66.3178 26.346 65.9788 25.953 65.5408 25.665C65.1088 25.371 64.5988 25.224 64.0107 25.224C63.4168 25.224 62.8768 25.371 62.3908 25.665C61.9048 25.959 61.5178 26.355 61.2298 26.853C60.9478 27.345 60.8068 27.894 60.8068 28.5C60.8068 29.106 60.9538 29.658 61.2478 30.156C61.5418 30.648 61.9318 31.041 62.4178 31.335C62.9038 31.623 63.4348 31.767 64.0107 31.767ZM70.3456 33V24H71.8576V25.125C72.1756 24.705 72.5776 24.372 73.0636 24.126C73.5496 23.874 74.0776 23.748 74.6476 23.748C74.9956 23.748 75.3316 23.793 75.6556 23.883L75.0436 25.395C74.7976 25.317 74.5576 25.278 74.3236 25.278C73.8736 25.278 73.4596 25.389 73.0816 25.611C72.7096 25.827 72.4126 26.121 72.1906 26.493C71.9686 26.865 71.8576 27.279 71.8576 27.735V33H70.3456ZM82.9266 24H84.5286L79.6056 37.5H78.0036L79.6326 33L76.4016 24H78.0576L80.3886 30.921L82.9266 24Z" fill="black" fill-opacity="0.2"/>
<path d="M20.5707 33V20.4H22.0827V33H20.5707ZM29.1815 25.512H27.1385L27.1295 33H25.6175L25.6265 25.512H24.0785V24H25.6265L25.6175 21.174H27.1295L27.1385 24H29.1815V25.512ZM30.707 24H32.219V33H30.707V24ZM31.481 22.533C31.241 22.533 31.04 22.455 30.878 22.299C30.716 22.143 30.635 21.948 30.635 21.714C30.635 21.48 30.716 21.285 30.878 21.129C31.04 20.973 31.238 20.895 31.472 20.895C31.706 20.895 31.904 20.973 32.066 21.129C32.228 21.285 32.309 21.48 32.309 21.714C32.309 21.948 32.228 22.143 32.066 22.299C31.91 22.455 31.715 22.533 31.481 22.533ZM42.284 27.402V33H40.772V27.735C40.772 27.279 40.661 26.865 40.439 26.493C40.217 26.121 39.92 25.827 39.548 25.611C39.176 25.389 38.762 25.278 38.306 25.278C37.856 25.278 37.442 25.389 37.064 25.611C36.692 25.827 36.395 26.121 36.173 26.493C35.951 26.865 35.84 27.279 35.84 27.735V33H34.328V24H35.84V25.125C36.158 24.705 36.56 24.372 37.046 24.126C37.532 23.874 38.06 23.748 38.63 23.748C39.302 23.748 39.914 23.913 40.466 24.243C41.024 24.567 41.465 25.005 41.789 25.557C42.119 26.109 42.284 26.724 42.284 27.402ZM47.8681 33.234C47.0401 33.234 46.2841 33.021 45.6001 32.595C44.9221 32.169 44.3791 31.599 43.9711 30.885C43.5691 30.165 43.3681 29.37 43.3681 28.5C43.3681 27.84 43.4851 27.225 43.7191 26.655C43.9531 26.079 44.2741 25.575 44.6821 25.143C45.0961 24.705 45.5761 24.363 46.1221 24.117C46.6681 23.871 47.2501 23.748 47.8681 23.748C48.5461 23.748 49.1671 23.886 49.7311 24.162C50.3011 24.432 50.7871 24.81 51.1891 25.296C51.5971 25.782 51.9001 26.346 52.0981 26.988C52.3021 27.63 52.3771 28.317 52.3231 29.049H44.9791C45.0511 29.559 45.2191 30.015 45.4831 30.417C45.7471 30.813 46.0831 31.128 46.4911 31.362C46.9051 31.596 47.3641 31.716 47.8681 31.722C48.4081 31.722 48.8971 31.584 49.3351 31.308C49.7731 31.026 50.1271 30.642 50.3971 30.156L51.9361 30.516C51.5761 31.314 51.0331 31.968 50.3071 32.478C49.5811 32.982 48.7681 33.234 47.8681 33.234ZM44.9341 27.861H50.8021C50.7541 27.357 50.5921 26.898 50.3161 26.484C50.0401 26.064 49.6891 25.728 49.2631 25.476C48.8371 25.224 48.3721 25.098 47.8681 25.098C47.3641 25.098 46.9021 25.221 46.4821 25.467C46.0621 25.713 45.7141 26.046 45.4381 26.466C45.1681 26.88 45.0001 27.345 44.9341 27.861ZM53.8398 33V24H55.3518V25.125C55.6698 24.705 56.0718 24.372 56.5578 24.126C57.0438 23.874 57.5718 23.748 58.1418 23.748C58.4898 23.748 58.8258 23.793 59.1498 23.883L58.5378 25.395C58.2918 25.317 58.0518 25.278 57.8178 25.278C57.3678 25.278 56.9538 25.389 56.5758 25.611C56.2038 25.827 55.9068 26.121 55.6848 26.493C55.4628 26.865 55.3518 27.279 55.3518 27.735V33H53.8398ZM67.0348 24H68.5468V33H67.0348L66.9718 31.479C66.6898 32.001 66.2998 32.424 65.8018 32.748C65.3098 33.072 64.7218 33.234 64.0378 33.234C63.3778 33.234 62.7598 33.111 62.1838 32.865C61.6078 32.613 61.0978 32.268 60.6538 31.83C60.2158 31.386 59.8738 30.876 59.6278 30.3C59.3818 29.724 59.2588 29.103 59.2588 28.437C59.2588 27.795 59.3788 27.189 59.6188 26.619C59.8588 26.049 60.1918 25.551 60.6178 25.125C61.0498 24.693 61.5478 24.357 62.1118 24.117C62.6758 23.871 63.2818 23.748 63.9298 23.748C64.6378 23.748 65.2588 23.916 65.7928 24.252C66.3268 24.582 66.7588 25.011 67.0888 25.539L67.0348 24ZM64.0107 31.767C64.6048 31.767 65.1178 31.623 65.5498 31.335C65.9878 31.041 66.3238 30.645 66.5578 30.147C66.7978 29.649 66.9178 29.1 66.9178 28.5C66.9178 27.888 66.7978 27.336 66.5578 26.844C66.3178 26.346 65.9788 25.953 65.5408 25.665C65.1088 25.371 64.5988 25.224 64.0107 25.224C63.4168 25.224 62.8768 25.371 62.3908 25.665C61.9048 25.959 61.5178 26.355 61.2298 26.853C60.9478 27.345 60.8068 27.894 60.8068 28.5C60.8068 29.106 60.9538 29.658 61.2478 30.156C61.5418 30.648 61.9318 31.041 62.4178 31.335C62.9038 31.623 63.4348 31.767 64.0107 31.767ZM70.3456 33V24H71.8576V25.125C72.1756 24.705 72.5776 24.372 73.0636 24.126C73.5496 23.874 74.0776 23.748 74.6476 23.748C74.9956 23.748 75.3316 23.793 75.6556 23.883L75.0436 25.395C74.7976 25.317 74.5576 25.278 74.3236 25.278C73.8736 25.278 73.4596 25.389 73.0816 25.611C72.7096 25.827 72.4126 26.121 72.1906 26.493C71.9686 26.865 71.8576 27.279 71.8576 27.735V33H70.3456ZM82.9266 24H84.5286L79.6056 37.5H78.0036L79.6326 33L76.4016 24H78.0576L80.3886 30.921L82.9266 24Z" fill="black" fill-opacity="0.2"/>
<path d="M20.5707 33V20.4H22.0827V33H20.5707ZM29.1815 25.512H27.1385L27.1295 33H25.6175L25.6265 25.512H24.0785V24H25.6265L25.6175 21.174H27.1295L27.1385 24H29.1815V25.512ZM30.707 24H32.219V33H30.707V24ZM31.481 22.533C31.241 22.533 31.04 22.455 30.878 22.299C30.716 22.143 30.635 21.948 30.635 21.714C30.635 21.48 30.716 21.285 30.878 21.129C31.04 20.973 31.238 20.895 31.472 20.895C31.706 20.895 31.904 20.973 32.066 21.129C32.228 21.285 32.309 21.48 32.309 21.714C32.309 21.948 32.228 22.143 32.066 22.299C31.91 22.455 31.715 22.533 31.481 22.533ZM42.284 27.402V33H40.772V27.735C40.772 27.279 40.661 26.865 40.439 26.493C40.217 26.121 39.92 25.827 39.548 25.611C39.176 25.389 38.762 25.278 38.306 25.278C37.856 25.278 37.442 25.389 37.064 25.611C36.692 25.827 36.395 26.121 36.173 26.493C35.951 26.865 35.84 27.279 35.84 27.735V33H34.328V24H35.84V25.125C36.158 24.705 36.56 24.372 37.046 24.126C37.532 23.874 38.06 23.748 38.63 23.748C39.302 23.748 39.914 23.913 40.466 24.243C41.024 24.567 41.465 25.005 41.789 25.557C42.119 26.109 42.284 26.724 42.284 27.402ZM47.8681 33.234C47.0401 33.234 46.2841 33.021 45.6001 32.595C44.9221 32.169 44.3791 31.599 43.9711 30.885C43.5691 30.165 43.3681 29.37 43.3681 28.5C43.3681 27.84 43.4851 27.225 43.7191 26.655C43.9531 26.079 44.2741 25.575 44.6821 25.143C45.0961 24.705 45.5761 24.363 46.1221 24.117C46.6681 23.871 47.2501 23.748 47.8681 23.748C48.5461 23.748 49.1671 23.886 49.7311 24.162C50.3011 24.432 50.7871 24.81 51.1891 25.296C51.5971 25.782 51.9001 26.346 52.0981 26.988C52.3021 27.63 52.3771 28.317 52.3231 29.049H44.9791C45.0511 29.559 45.2191 30.015 45.4831 30.417C45.7471 30.813 46.0831 31.128 46.4911 31.362C46.9051 31.596 47.3641 31.716 47.8681 31.722C48.4081 31.722 48.8971 31.584 49.3351 31.308C49.7731 31.026 50.1271 30.642 50.3971 30.156L51.9361 30.516C51.5761 31.314 51.0331 31.968 50.3071 32.478C49.5811 32.982 48.7681 33.234 47.8681 33.234ZM44.9341 27.861H50.8021C50.7541 27.357 50.5921 26.898 50.3161 26.484C50.0401 26.064 49.6891 25.728 49.2631 25.476C48.8371 25.224 48.3721 25.098 47.8681 25.098C47.3641 25.098 46.9021 25.221 46.4821 25.467C46.0621 25.713 45.7141 26.046 45.4381 26.466C45.1681 26.88 45.0001 27.345 44.9341 27.861ZM53.8398 33V24H55.3518V25.125C55.6698 24.705 56.0718 24.372 56.5578 24.126C57.0438 23.874 57.5718 23.748 58.1418 23.748C58.4898 23.748 58.8258 23.793 59.1498 23.883L58.5378 25.395C58.2918 25.317 58.0518 25.278 57.8178 25.278C57.3678 25.278 56.9538 25.389 56.5758 25.611C56.2038 25.827 55.9068 26.121 55.6848 26.493C55.4628 26.865 55.3518 27.279 55.3518 27.735V33H53.8398ZM67.0348 24H68.5468V33H67.0348L66.9718 31.479C66.6898 32.001 66.2998 32.424 65.8018 32.748C65.3098 33.072 64.7218 33.234 64.0378 33.234C63.3778 33.234 62.7598 33.111 62.1838 32.865C61.6078 32.613 61.0978 32.268 60.6538 31.83C60.2158 31.386 59.8738 30.876 59.6278 30.3C59.3818 29.724 59.2588 29.103 59.2588 28.437C59.2588 27.795 59.3788 27.189 59.6188 26.619C59.8588 26.049 60.1918 25.551 60.6178 25.125C61.0498 24.693 61.5478 24.357 62.1118 24.117C62.6758 23.871 63.2818 23.748 63.9298 23.748C64.6378 23.748 65.2588 23.916 65.7928 24.252C66.3268 24.582 66.7588 25.011 67.0888 25.539L67.0348 24ZM64.0107 31.767C64.6048 31.767 65.1178 31.623 65.5498 31.335C65.9878 31.041 66.3238 30.645 66.5578 30.147C66.7978 29.649 66.9178 29.1 66.9178 28.5C66.9178 27.888 66.7978 27.336 66.5578 26.844C66.3178 26.346 65.9788 25.953 65.5408 25.665C65.1088 25.371 64.5988 25.224 64.0107 25.224C63.4168 25.224 62.8768 25.371 62.3908 25.665C61.9048 25.959 61.5178 26.355 61.2298 26.853C60.9478 27.345 60.8068 27.894 60.8068 28.5C60.8068 29.106 60.9538 29.658 61.2478 30.156C61.5418 30.648 61.9318 31.041 62.4178 31.335C62.9038 31.623 63.4348 31.767 64.0107 31.767ZM70.3456 33V24H71.8576V25.125C72.1756 24.705 72.5776 24.372 73.0636 24.126C73.5496 23.874 74.0776 23.748 74.6476 23.748C74.9956 23.748 75.3316 23.793 75.6556 23.883L75.0436 25.395C74.7976 25.317 74.5576 25.278 74.3236 25.278C73.8736 25.278 73.4596 25.389 73.0816 25.611C72.7096 25.827 72.4126 26.121 72.1906 26.493C71.9686 26.865 71.8576 27.279 71.8576 27.735V33H70.3456ZM82.9266 24H84.5286L79.6056 37.5H78.0036L79.6326 33L76.4016 24H78.0576L80.3886 30.921L82.9266 24Z" fill="black" fill-opacity="0.2"/>
<path d="M119.1 25.1223L113.403 29.4973C113.35 29.538 113.287 29.5702 113.218 29.5922C113.149 29.6143 113.075 29.6256 113 29.6256C112.925 29.6256 112.851 29.6143 112.782 29.5922C112.712 29.5702 112.65 29.538 112.597 29.4973L106.899 25.1223C106.792 25.0402 106.732 24.9288 106.732 24.8127C106.732 24.6966 106.792 24.5853 106.899 24.5032C107.006 24.4211 107.151 24.375 107.302 24.375C107.454 24.375 107.599 24.4211 107.706 24.5032L113 28.5692L118.294 24.5032C118.347 24.4626 118.41 24.4303 118.479 24.4083C118.548 24.3863 118.622 24.375 118.697 24.375C118.772 24.375 118.846 24.3863 118.915 24.4083C118.984 24.4303 119.047 24.4626 119.1 24.5032C119.153 24.5439 119.195 24.5921 119.224 24.6452C119.252 24.6983 119.267 24.7553 119.267 24.8127C119.267 24.8702 119.252 24.9272 119.224 24.9803C119.195 25.0334 119.153 25.0816 119.1 25.1223Z" fill="black"/>
<path d="M119.1 25.1223L113.403 29.4973C113.35 29.538 113.287 29.5702 113.218 29.5922C113.149 29.6143 113.075 29.6256 113 29.6256C112.925 29.6256 112.851 29.6143 112.782 29.5922C112.712 29.5702 112.65 29.538 112.597 29.4973L106.899 25.1223C106.792 25.0402 106.732 24.9288 106.732 24.8127C106.732 24.6966 106.792 24.5853 106.899 24.5032C107.006 24.4211 107.151 24.375 107.302 24.375C107.454 24.375 107.599 24.4211 107.706 24.5032L113 28.5692L118.294 24.5032C118.347 24.4626 118.41 24.4303 118.479 24.4083C118.548 24.3863 118.622 24.375 118.697 24.375C118.772 24.375 118.846 24.3863 118.915 24.4083C118.984 24.4303 119.047 24.4626 119.1 24.5032C119.153 24.5439 119.195 24.5921 119.224 24.6452C119.252 24.6983 119.267 24.7553 119.267 24.8127C119.267 24.8702 119.252 24.9272 119.224 24.9803C119.195 25.0334 119.153 25.0816 119.1 25.1223Z" fill="black" fill-opacity="0.2"/>
<path d="M119.1 25.1223L113.403 29.4973C113.35 29.538 113.287 29.5702 113.218 29.5922C113.149 29.6143 113.075 29.6256 113 29.6256C112.925 29.6256 112.851 29.6143 112.782 29.5922C112.712 29.5702 112.65 29.538 112.597 29.4973L106.899 25.1223C106.792 25.0402 106.732 24.9288 106.732 24.8127C106.732 24.6966 106.792 24.5853 106.899 24.5032C107.006 24.4211 107.151 24.375 107.302 24.375C107.454 24.375 107.599 24.4211 107.706 24.5032L113 28.5692L118.294 24.5032C118.347 24.4626 118.41 24.4303 118.479 24.4083C118.548 24.3863 118.622 24.375 118.697 24.375C118.772 24.375 118.846 24.3863 118.915 24.4083C118.984 24.4303 119.047 24.4626 119.1 24.5032C119.153 24.5439 119.195 24.5921 119.224 24.6452C119.252 24.6983 119.267 24.7553 119.267 24.8127C119.267 24.8702 119.252 24.9272 119.224 24.9803C119.195 25.0334 119.153 25.0816 119.1 25.1223Z" fill="black" fill-opacity="0.2"/>
<path d="M119.1 25.1223L113.403 29.4973C113.35 29.538 113.287 29.5702 113.218 29.5922C113.149 29.6143 113.075 29.6256 113 29.6256C112.925 29.6256 112.851 29.6143 112.782 29.5922C112.712 29.5702 112.65 29.538 112.597 29.4973L106.899 25.1223C106.792 25.0402 106.732 24.9288 106.732 24.8127C106.732 24.6966 106.792 24.5853 106.899 24.5032C107.006 24.4211 107.151 24.375 107.302 24.375C107.454 24.375 107.599 24.4211 107.706 24.5032L113 28.5692L118.294 24.5032C118.347 24.4626 118.41 24.4303 118.479 24.4083C118.548 24.3863 118.622 24.375 118.697 24.375C118.772 24.375 118.846 24.3863 118.915 24.4083C118.984 24.4303 119.047 24.4626 119.1 24.5032C119.153 24.5439 119.195 24.5921 119.224 24.6452C119.252 24.6983 119.267 24.7553 119.267 24.8127C119.267 24.8702 119.252 24.9272 119.224 24.9803C119.195 25.0334 119.153 25.0816 119.1 25.1223Z" fill="black" fill-opacity="0.2"/>
<path d="M119.1 25.1223L113.403 29.4973C113.35 29.538 113.287 29.5702 113.218 29.5922C113.149 29.6143 113.075 29.6256 113 29.6256C112.925 29.6256 112.851 29.6143 112.782 29.5922C112.712 29.5702 112.65 29.538 112.597 29.4973L106.899 25.1223C106.792 25.0402 106.732 24.9288 106.732 24.8127C106.732 24.6966 106.792 24.5853 106.899 24.5032C107.006 24.4211 107.151 24.375 107.302 24.375C107.454 24.375 107.599 24.4211 107.706 24.5032L113 28.5692L118.294 24.5032C118.347 24.4626 118.41 24.4303 118.479 24.4083C118.548 24.3863 118.622 24.375 118.697 24.375C118.772 24.375 118.846 24.3863 118.915 24.4083C118.984 24.4303 119.047 24.4626 119.1 24.5032C119.153 24.5439 119.195 24.5921 119.224 24.6452C119.252 24.6983 119.267 24.7553 119.267 24.8127C119.267 24.8702 119.252 24.9272 119.224 24.9803C119.195 25.0334 119.153 25.0816 119.1 25.1223Z" fill="black" fill-opacity="0.2"/>
<path d="M119.1 25.1223L113.403 29.4973C113.35 29.538 113.287 29.5702 113.218 29.5922C113.149 29.6143 113.075 29.6256 113 29.6256C112.925 29.6256 112.851 29.6143 112.782 29.5922C112.712 29.5702 112.65 29.538 112.597 29.4973L106.899 25.1223C106.792 25.0402 106.732 24.9288 106.732 24.8127C106.732 24.6966 106.792 24.5853 106.899 24.5032C107.006 24.4211 107.151 24.375 107.302 24.375C107.454 24.375 107.599 24.4211 107.706 24.5032L113 28.5692L118.294 24.5032C118.347 24.4626 118.41 24.4303 118.479 24.4083C118.548 24.3863 118.622 24.375 118.697 24.375C118.772 24.375 118.846 24.3863 118.915 24.4083C118.984 24.4303 119.047 24.4626 119.1 24.5032C119.153 24.5439 119.195 24.5921 119.224 24.6452C119.252 24.6983 119.267 24.7553 119.267 24.8127C119.267 24.8702 119.252 24.9272 119.224 24.9803C119.195 25.0334 119.153 25.0816 119.1 25.1223Z" fill="black" fill-opacity="0.2"/>
<path d="M119.1 25.1223L113.403 29.4973C113.35 29.538 113.287 29.5702 113.218 29.5922C113.149 29.6143 113.075 29.6256 113 29.6256C112.925 29.6256 112.851 29.6143 112.782 29.5922C112.712 29.5702 112.65 29.538 112.597 29.4973L106.899 25.1223C106.792 25.0402 106.732 24.9288 106.732 24.8127C106.732 24.6966 106.792 24.5853 106.899 24.5032C107.006 24.4211 107.151 24.375 107.302 24.375C107.454 24.375 107.599 24.4211 107.706 24.5032L113 28.5692L118.294 24.5032C118.347 24.4626 118.41 24.4303 118.479 24.4083C118.548 24.3863 118.622 24.375 118.697 24.375C118.772 24.375 118.846 24.3863 118.915 24.4083C118.984 24.4303 119.047 24.4626 119.1 24.5032C119.153 24.5439 119.195 24.5921 119.224 24.6452C119.252 24.6983 119.267 24.7553 119.267 24.8127C119.267 24.8702 119.252 24.9272 119.224 24.9803C119.195 25.0334 119.153 25.0816 119.1 25.1223Z" fill="black" fill-opacity="0.2"/>
<path d="M119.1 25.1223L113.403 29.4973C113.35 29.538 113.287 29.5702 113.218 29.5922C113.149 29.6143 113.075 29.6256 113 29.6256C112.925 29.6256 112.851 29.6143 112.782 29.5922C112.712 29.5702 112.65 29.538 112.597 29.4973L106.899 25.1223C106.792 25.0402 106.732 24.9288 106.732 24.8127C106.732 24.6966 106.792 24.5853 106.899 24.5032C107.006 24.4211 107.151 24.375 107.302 24.375C107.454 24.375 107.599 24.4211 107.706 24.5032L113 28.5692L118.294 24.5032C118.347 24.4626 118.41 24.4303 118.479 24.4083C118.548 24.3863 118.622 24.375 118.697 24.375C118.772 24.375 118.846 24.3863 118.915 24.4083C118.984 24.4303 119.047 24.4626 119.1 24.5032C119.153 24.5439 119.195 24.5921 119.224 24.6452C119.252 24.6983 119.267 24.7553 119.267 24.8127C119.267 24.8702 119.252 24.9272 119.224 24.9803C119.195 25.0334 119.153 25.0816 119.1 25.1223Z" fill="black" fill-opacity="0.2"/>
<path d="M119.1 25.1223L113.403 29.4973C113.35 29.538 113.287 29.5702 113.218 29.5922C113.149 29.6143 113.075 29.6256 113 29.6256C112.925 29.6256 112.851 29.6143 112.782 29.5922C112.712 29.5702 112.65 29.538 112.597 29.4973L106.899 25.1223C106.792 25.0402 106.732 24.9288 106.732 24.8127C106.732 24.6966 106.792 24.5853 106.899 24.5032C107.006 24.4211 107.151 24.375 107.302 24.375C107.454 24.375 107.599 24.4211 107.706 24.5032L113 28.5692L118.294 24.5032C118.347 24.4626 118.41 24.4303 118.479 24.4083C118.548 24.3863 118.622 24.375 118.697 24.375C118.772 24.375 118.846 24.3863 118.915 24.4083C118.984 24.4303 119.047 24.4626 119.1 24.5032C119.153 24.5439 119.195 24.5921 119.224 24.6452C119.252 24.6983 119.267 24.7553 119.267 24.8127C119.267 24.8702 119.252 24.9272 119.224 24.9803C119.195 25.0334 119.153 25.0816 119.1 25.1223Z" fill="black" fill-opacity="0.2"/>
<path d="M119.1 25.1223L113.403 29.4973C113.35 29.538 113.287 29.5702 113.218 29.5922C113.149 29.6143 113.075 29.6256 113 29.6256C112.925 29.6256 112.851 29.6143 112.782 29.5922C112.712 29.5702 112.65 29.538 112.597 29.4973L106.899 25.1223C106.792 25.0402 106.732 24.9288 106.732 24.8127C106.732 24.6966 106.792 24.5853 106.899 24.5032C107.006 24.4211 107.151 24.375 107.302 24.375C107.454 24.375 107.599 24.4211 107.706 24.5032L113 28.5692L118.294 24.5032C118.347 24.4626 118.41 24.4303 118.479 24.4083C118.548 24.3863 118.622 24.375 118.697 24.375C118.772 24.375 118.846 24.3863 118.915 24.4083C118.984 24.4303 119.047 24.4626 119.1 24.5032C119.153 24.5439 119.195 24.5921 119.224 24.6452C119.252 24.6983 119.267 24.7553 119.267 24.8127C119.267 24.8702 119.252 24.9272 119.224 24.9803C119.195 25.0334 119.153 25.0816 119.1 25.1223Z" fill="black" fill-opacity="0.2"/>
<path d="M119.1 25.1223L113.403 29.4973C113.35 29.538 113.287 29.5702 113.218 29.5922C113.149 29.6143 113.075 29.6256 113 29.6256C112.925 29.6256 112.851 29.6143 112.782 29.5922C112.712 29.5702 112.65 29.538 112.597 29.4973L106.899 25.1223C106.792 25.0402 106.732 24.9288 106.732 24.8127C106.732 24.6966 106.792 24.5853 106.899 24.5032C107.006 24.4211 107.151 24.375 107.302 24.375C107.454 24.375 107.599 24.4211 107.706 24.5032L113 28.5692L118.294 24.5032C118.347 24.4626 118.41 24.4303 118.479 24.4083C118.548 24.3863 118.622 24.375 118.697 24.375C118.772 24.375 118.846 24.3863 118.915 24.4083C118.984 24.4303 119.047 24.4626 119.1 24.5032C119.153 24.5439 119.195 24.5921 119.224 24.6452C119.252 24.6983 119.267 24.7553 119.267 24.8127C119.267 24.8702 119.252 24.9272 119.224 24.9803C119.195 25.0334 119.153 25.0816 119.1 25.1223Z" fill="black" fill-opacity="0.2"/>
<path d="M119.1 25.1223L113.403 29.4973C113.35 29.538 113.287 29.5702 113.218 29.5922C113.149 29.6143 113.075 29.6256 113 29.6256C112.925 29.6256 112.851 29.6143 112.782 29.5922C112.712 29.5702 112.65 29.538 112.597 29.4973L106.899 25.1223C106.792 25.0402 106.732 24.9288 106.732 24.8127C106.732 24.6966 106.792 24.5853 106.899 24.5032C107.006 24.4211 107.151 24.375 107.302 24.375C107.454 24.375 107.599 24.4211 107.706 24.5032L113 28.5692L118.294 24.5032C118.347 24.4626 118.41 24.4303 118.479 24.4083C118.548 24.3863 118.622 24.375 118.697 24.375C118.772 24.375 118.846 24.3863 118.915 24.4083C118.984 24.4303 119.047 24.4626 119.1 24.5032C119.153 24.5439 119.195 24.5921 119.224 24.6452C119.252 24.6983 119.267 24.7553 119.267 24.8127C119.267 24.8702 119.252 24.9272 119.224 24.9803C119.195 25.0334 119.153 25.0816 119.1 25.1223Z" fill="black" fill-opacity="0.2"/>
<path d="M119.1 25.1223L113.403 29.4973C113.35 29.538 113.287 29.5702 113.218 29.5922C113.149 29.6143 113.075 29.6256 113 29.6256C112.925 29.6256 112.851 29.6143 112.782 29.5922C112.712 29.5702 112.65 29.538 112.597 29.4973L106.899 25.1223C106.792 25.0402 106.732 24.9288 106.732 24.8127C106.732 24.6966 106.792 24.5853 106.899 24.5032C107.006 24.4211 107.151 24.375 107.302 24.375C107.454 24.375 107.599 24.4211 107.706 24.5032L113 28.5692L118.294 24.5032C118.347 24.4626 118.41 24.4303 118.479 24.4083C118.548 24.3863 118.622 24.375 118.697 24.375C118.772 24.375 118.846 24.3863 118.915 24.4083C118.984 24.4303 119.047 24.4626 119.1 24.5032C119.153 24.5439 119.195 24.5921 119.224 24.6452C119.252 24.6983 119.267 24.7553 119.267 24.8127C119.267 24.8702 119.252 24.9272 119.224 24.9803C119.195 25.0334 119.153 25.0816 119.1 25.1223Z" fill="black" fill-opacity="0.2"/>
</svg>
