<svg width="104" height="54" viewBox="0 0 104 54" fill="none" xmlns="http://www.w3.org/2000/svg">
<rect width="104" height="54" rx="18" fill="#00DC82"/>
<path d="M26.808 33.234C26.364 33.234 25.929 33.159 25.503 33.009C25.083 32.859 24.702 32.637 24.36 32.343L25.557 30.903C25.707 31.029 25.887 31.137 26.097 31.227C26.307 31.317 26.544 31.362 26.808 31.362C27.168 31.362 27.495 31.269 27.789 31.083C28.089 30.891 28.329 30.642 28.509 30.336C28.689 30.024 28.779 29.691 28.779 29.337V20.4H30.651V29.337C30.651 30.039 30.477 30.687 30.129 31.281C29.781 31.869 29.316 32.343 28.734 32.703C28.158 33.057 27.516 33.234 26.808 33.234ZM36.7744 33.234C35.9464 33.234 35.1904 33.021 34.5064 32.595C33.8284 32.169 33.2854 31.599 32.8774 30.885C32.4754 30.165 32.2744 29.37 32.2744 28.5C32.2744 27.84 32.3914 27.225 32.6254 26.655C32.8594 26.079 33.1804 25.575 33.5884 25.143C34.0024 24.705 34.4824 24.363 35.0284 24.117C35.5744 23.871 36.1564 23.748 36.7744 23.748C37.6024 23.748 38.3554 23.961 39.0334 24.387C39.7174 24.813 40.2604 25.386 40.6624 26.106C41.0704 26.826 41.2744 27.624 41.2744 28.5C41.2744 29.154 41.1574 29.766 40.9234 30.336C40.6894 30.906 40.3654 31.41 39.9514 31.848C39.5434 32.28 39.0664 32.619 38.5204 32.865C37.9804 33.111 37.3984 33.234 36.7744 33.234ZM36.7744 31.362C37.2724 31.362 37.7194 31.23 38.1154 30.966C38.5114 30.702 38.8234 30.354 39.0514 29.922C39.2854 29.484 39.4024 29.01 39.4024 28.5C39.4024 27.978 39.2824 27.498 39.0424 27.06C38.8084 26.622 38.4934 26.274 38.0974 26.016C37.7014 25.752 37.2604 25.62 36.7744 25.62C36.2824 25.62 35.8354 25.752 35.4334 26.016C35.0374 26.28 34.7224 26.631 34.4884 27.069C34.2604 27.507 34.1464 27.984 34.1464 28.5C34.1464 29.034 34.2664 29.517 34.5064 29.949C34.7464 30.381 35.0644 30.726 35.4604 30.984C35.8624 31.236 36.3004 31.362 36.7744 31.362ZM42.5527 24H44.4247V33H42.5527V24ZM43.5067 22.695C43.2187 22.695 42.9787 22.602 42.7867 22.416C42.5947 22.23 42.4987 21.996 42.4987 21.714C42.4987 21.438 42.5947 21.207 42.7867 21.021C42.9787 20.829 43.2157 20.733 43.4977 20.733C43.7737 20.733 44.0077 20.829 44.1997 21.021C44.3917 21.207 44.4877 21.438 44.4877 21.714C44.4877 21.996 44.3917 22.23 44.1997 22.416C44.0137 22.602 43.7827 22.695 43.5067 22.695ZM54.6077 27.357V33H52.7357V27.816C52.7357 27.414 52.6367 27.048 52.4387 26.718C52.2467 26.388 51.9857 26.127 51.6557 25.935C51.3317 25.737 50.9657 25.638 50.5577 25.638C50.1617 25.638 49.7987 25.737 49.4687 25.935C49.1387 26.127 48.8747 26.388 48.6767 26.718C48.4787 27.048 48.3797 27.414 48.3797 27.816V33H46.5077V24H48.3797V24.954C48.6917 24.582 49.0757 24.288 49.5317 24.072C49.9877 23.856 50.4797 23.748 51.0077 23.748C51.6737 23.748 52.2797 23.91 52.8257 24.234C53.3717 24.558 53.8037 24.993 54.1217 25.539C54.4457 26.085 54.6077 26.691 54.6077 27.357ZM65.7144 33.234C64.7064 33.234 63.8274 32.988 63.0774 32.496C62.3334 32.004 61.7544 31.344 61.3404 30.516C60.9324 29.682 60.7284 28.758 60.7284 27.744V20.4H62.6004V27.744C62.6004 28.404 62.7204 29.01 62.9604 29.562C63.2064 30.108 63.5604 30.546 64.0224 30.876C64.4904 31.2 65.0544 31.362 65.7144 31.362C66.3924 31.362 66.9624 31.2 67.4244 30.876C67.8864 30.546 68.2344 30.108 68.4684 29.562C68.7084 29.01 68.8284 28.404 68.8284 27.744V20.4H70.7004V27.744C70.7004 28.506 70.5834 29.22 70.3494 29.886C70.1154 30.546 69.7794 31.128 69.3414 31.632C68.9034 32.136 68.3784 32.529 67.7664 32.811C67.1544 33.093 66.4704 33.234 65.7144 33.234ZM75.5573 33.171C75.0833 33.141 74.6213 33.045 74.1713 32.883C73.7213 32.721 73.3253 32.502 72.9833 32.226C72.6473 31.944 72.3953 31.614 72.2273 31.236L73.8203 30.552C73.8983 30.714 74.0333 30.873 74.2253 31.029C74.4233 31.185 74.6543 31.314 74.9183 31.416C75.1823 31.512 75.4583 31.56 75.7463 31.56C76.0283 31.56 76.2893 31.521 76.5293 31.443C76.7753 31.359 76.9763 31.233 77.1323 31.065C77.2883 30.897 77.3663 30.696 77.3663 30.462C77.3663 30.198 77.2763 29.994 77.0963 29.85C76.9223 29.7 76.7033 29.586 76.4393 29.508C76.1753 29.43 75.9113 29.355 75.6473 29.283C75.0593 29.151 74.5193 28.971 74.0273 28.743C73.5413 28.509 73.1543 28.212 72.8663 27.852C72.5783 27.486 72.4343 27.039 72.4343 26.511C72.4343 25.935 72.5903 25.437 72.9023 25.017C73.2143 24.591 73.6223 24.264 74.1263 24.036C74.6363 23.808 75.1793 23.694 75.7553 23.694C76.4753 23.694 77.1353 23.847 77.7353 24.153C78.3353 24.459 78.7943 24.879 79.1123 25.413L77.6273 26.295C77.5373 26.115 77.4023 25.953 77.2223 25.809C77.0423 25.665 76.8383 25.551 76.6103 25.467C76.3823 25.377 76.1453 25.326 75.8993 25.314C75.5933 25.302 75.3083 25.338 75.0443 25.422C74.7863 25.5 74.5793 25.626 74.4233 25.8C74.2673 25.974 74.1893 26.196 74.1893 26.466C74.1893 26.73 74.2823 26.928 74.4683 27.06C74.6543 27.186 74.8883 27.288 75.1703 27.366C75.4583 27.444 75.7523 27.531 76.0523 27.627C76.5863 27.795 77.0873 28.002 77.5553 28.248C78.0233 28.488 78.4013 28.785 78.6893 29.139C78.9773 29.493 79.1153 29.925 79.1033 30.435C79.1033 30.999 78.9323 31.494 78.5903 31.92C78.2543 32.346 77.8163 32.67 77.2763 32.892C76.7363 33.114 76.1633 33.207 75.5573 33.171Z" fill="black"/>
</svg>
