<svg width="89" height="88" viewBox="0 0 89 88" fill="none" xmlns="http://www.w3.org/2000/svg">
<g clip-path="url(#clip0_3107_5839)">
<path d="M44.3786 7.3335L45.5666 7.35183C55.1833 7.66357 64.292 11.7428 70.9283 18.7097C77.5645 25.6766 81.1963 34.9729 81.0404 44.5933C80.8846 54.2138 76.9534 63.3875 70.0949 70.1357C63.2365 76.8839 54.0003 80.6659 44.3786 80.6659C34.7569 80.6659 25.5207 76.8839 18.6622 70.1357C11.8038 63.3875 7.87263 54.2138 7.71673 44.5933C7.56084 34.9729 11.1927 25.6766 17.8289 18.7097C24.4651 11.7428 33.5739 7.66357 43.1906 7.35183L44.3786 7.3335ZM46.6263 26.4368C45.8893 25.867 44.963 25.599 44.0357 25.6874C43.1083 25.7757 42.2493 26.2137 41.6332 26.9125C41.017 27.6112 40.69 28.5183 40.7184 29.4494C40.7469 30.3806 41.1286 31.266 41.7863 31.9258L50.1866 40.3335H29.7119L29.2829 40.3592C28.3549 40.4695 27.5041 40.9301 26.9042 41.6468C26.3044 42.3634 26.0009 43.2821 26.0556 44.215C26.1104 45.148 26.5193 46.0248 27.1989 46.6664C27.8785 47.3079 28.7774 47.6658 29.7119 47.6668H50.1866L41.7863 56.0745L41.4819 56.4192C40.9121 57.1561 40.6441 58.0824 40.7325 59.0098C40.8208 59.9371 41.2588 60.7961 41.9576 61.4123C42.6563 62.0284 43.5634 62.3554 44.4945 62.327C45.4257 62.2986 46.3111 61.9168 46.9709 61.2592L61.6376 46.5925L61.9053 46.2918L62.1399 45.9655L62.3673 45.5512L62.5286 45.1478L62.6386 44.7372L62.7009 44.2752L62.7119 44.0002L62.6863 43.5675L62.5799 43.0248L62.4516 42.6398L62.2536 42.2255L61.9933 41.8185C61.8849 41.6731 61.7661 41.5358 61.6376 41.4078L46.9709 26.7412L46.6263 26.4368Z" fill="#003C3C"/>
</g>
<defs>
<clipPath id="clip0_3107_5839">
<rect width="88" height="88" fill="white" transform="translate(0.378906)"/>
</clipPath>
</defs>
</svg>
