<svg width="88" height="2848" viewBox="0 0 88 2848" fill="none" xmlns="http://www.w3.org/2000/svg">
<line x1="45" y1="3" x2="45" y2="2760" stroke="#404040" stroke-width="2"/>
<g clip-path="url(#clip0_3107_629)">
<rect x="0.742188" width="60.8622" height="60" rx="8" fill="#003C3C"/>
<path d="M29.609 51V30.192H26.441L27.629 25.8H34.001V51H29.609Z" fill="white"/>
</g>
<g clip-path="url(#clip1_3107_629)">
<rect x="0.742188" y="886.377" width="60.8622" height="60" rx="8" fill="#003C3C"/>
<path d="M21.441 936.883V932.959C22.221 932.371 23.145 931.645 24.213 930.781C25.281 929.905 26.379 928.963 27.507 927.955C28.635 926.935 29.679 925.915 30.639 924.895C31.599 923.875 32.379 922.903 32.979 921.979C33.591 921.055 33.897 920.263 33.897 919.603C33.897 918.871 33.717 918.205 33.357 917.605C32.997 916.993 32.517 916.507 31.917 916.147C31.329 915.787 30.669 915.607 29.937 915.607C29.205 915.607 28.539 915.787 27.939 916.147C27.339 916.507 26.859 916.993 26.499 917.605C26.139 918.205 25.959 918.871 25.959 919.603H21.567C21.567 918.019 21.951 916.597 22.719 915.337C23.487 914.065 24.501 913.063 25.761 912.331C27.033 911.587 28.425 911.215 29.937 911.215C31.473 911.215 32.871 911.593 34.131 912.349C35.391 913.093 36.399 914.101 37.155 915.373C37.911 916.645 38.289 918.055 38.289 919.603C38.289 920.419 38.139 921.241 37.839 922.069C37.539 922.897 37.119 923.731 36.579 924.571C36.039 925.411 35.403 926.263 34.671 927.127C33.939 927.979 33.129 928.855 32.241 929.755C31.365 930.643 30.441 931.555 29.469 932.491H38.415V936.883H21.441Z" fill="white"/>
</g>
<g clip-path="url(#clip2_3107_629)">
<rect x="0.742188" y="1772.75" width="60.8622" height="60" rx="8" fill="#003C3C"/>
<path d="M30.199 1816.23C28.675 1816.23 27.301 1815.87 26.077 1815.15C24.853 1814.43 23.881 1813.47 23.161 1812.26C22.441 1811.03 22.081 1809.68 22.081 1808.19H26.473C26.473 1808.86 26.629 1809.47 26.941 1810.02C27.265 1810.58 27.709 1811.02 28.273 1811.36C28.837 1811.68 29.479 1811.84 30.199 1811.84C30.859 1811.84 31.471 1811.68 32.035 1811.36C32.611 1811.02 33.073 1810.58 33.421 1810.02C33.769 1809.47 33.943 1808.86 33.943 1808.19C33.943 1807.31 33.709 1806.59 33.241 1806.01C32.773 1805.42 32.119 1804.98 31.279 1804.7C30.451 1804.41 29.485 1804.26 28.381 1804.26V1800.88C29.869 1800.88 31.045 1800.6 31.909 1800.03C32.785 1799.47 33.223 1798.64 33.223 1797.55C33.223 1796.99 33.079 1796.47 32.791 1796C32.503 1795.53 32.119 1795.16 31.639 1794.89C31.171 1794.6 30.655 1794.45 30.091 1794.45C29.515 1794.45 28.957 1794.6 28.417 1794.89C27.877 1795.16 27.433 1795.53 27.085 1796C26.749 1796.47 26.581 1796.99 26.581 1797.55H22.189C22.189 1796.52 22.399 1795.55 22.819 1794.65C23.239 1793.74 23.815 1792.94 24.547 1792.26C25.291 1791.57 26.131 1791.04 27.067 1790.66C28.015 1790.26 29.005 1790.06 30.037 1790.06C31.393 1790.06 32.647 1790.4 33.799 1791.07C34.951 1791.74 35.875 1792.64 36.571 1793.77C37.267 1794.9 37.615 1796.16 37.615 1797.55C37.615 1798.52 37.387 1799.48 36.931 1800.41C36.475 1801.35 35.827 1802.01 34.987 1802.39C35.719 1802.66 36.331 1803.1 36.823 1803.72C37.315 1804.34 37.687 1805.04 37.939 1805.83C38.203 1806.61 38.335 1807.4 38.335 1808.19C38.335 1809.66 37.963 1811.01 37.219 1812.24C36.475 1813.45 35.485 1814.42 34.249 1815.15C33.025 1815.87 31.675 1816.23 30.199 1816.23Z" fill="white"/>
</g>
<rect y="2745" width="60.8622" height="60" rx="8" fill="#003C3C"/>
<path d="M31.4268 2794.52V2788.42H20.6988V2784.01L30.4008 2769.32H35.8188V2784.02H37.9428V2788.42H35.8188V2794.52H31.4268ZM25.7928 2784.01L31.4268 2784.02L31.4088 2775.31L25.7928 2784.01Z" fill="white"/>
<defs>
<clipPath id="clip0_3107_629">
<rect width="86.5177" height="102.868" fill="white" transform="translate(0.742188)"/>
</clipPath>
<clipPath id="clip1_3107_629">
<rect width="86.5177" height="102.868" fill="white" transform="translate(0.742188 886.377)"/>
</clipPath>
<clipPath id="clip2_3107_629">
<rect width="86.5177" height="102.868" fill="white" transform="translate(0.742188 1772.75)"/>
</clipPath>
</defs>
</svg>
