<svg width="92" height="42" viewBox="0 0 92 42" fill="none" xmlns="http://www.w3.org/2000/svg">
<rect x="0.964844" y="0.5" width="90.5346" height="41" rx="14.5" stroke="black"/>
<circle cx="29.9648" cy="21" r="12.5" fill="#F8F9FB"/>
<path d="M29.9655 15.0479C30.5541 15.0479 31.1295 15.2224 31.619 15.5494C32.1084 15.8765 32.4899 16.3413 32.7151 16.8851C32.9404 17.4289 32.9993 18.0273 32.8845 18.6047C32.7697 19.182 32.4862 19.7123 32.07 20.1285C31.6538 20.5448 31.1234 20.8282 30.5461 20.943C29.9688 21.0579 29.3704 20.9989 28.8266 20.7737C28.2827 20.5484 27.8179 20.167 27.4909 19.6775C27.1639 19.1881 26.9893 18.6127 26.9893 18.024L26.9923 17.8949C27.0256 17.1287 27.3534 16.4049 27.9073 15.8744C28.4612 15.344 29.1986 15.0479 29.9655 15.0479Z" fill="black"/>
<path d="M29.9655 15.0479C30.5541 15.0479 31.1295 15.2224 31.619 15.5494C32.1084 15.8765 32.4899 16.3413 32.7151 16.8851C32.9404 17.4289 32.9993 18.0273 32.8845 18.6047C32.7697 19.182 32.4862 19.7123 32.07 20.1285C31.6538 20.5448 31.1234 20.8282 30.5461 20.943C29.9688 21.0579 29.3704 20.9989 28.8266 20.7737C28.2827 20.5484 27.8179 20.167 27.4909 19.6775C27.1639 19.1881 26.9893 18.6127 26.9893 18.024L26.9923 17.8949C27.0256 17.1287 27.3534 16.4049 27.9073 15.8744C28.4612 15.344 29.1986 15.0479 29.9655 15.0479Z" fill="black" fill-opacity="0.2"/>
<path d="M29.9655 15.0479C30.5541 15.0479 31.1295 15.2224 31.619 15.5494C32.1084 15.8765 32.4899 16.3413 32.7151 16.8851C32.9404 17.4289 32.9993 18.0273 32.8845 18.6047C32.7697 19.182 32.4862 19.7123 32.07 20.1285C31.6538 20.5448 31.1234 20.8282 30.5461 20.943C29.9688 21.0579 29.3704 20.9989 28.8266 20.7737C28.2827 20.5484 27.8179 20.167 27.4909 19.6775C27.1639 19.1881 26.9893 18.6127 26.9893 18.024L26.9923 17.8949C27.0256 17.1287 27.3534 16.4049 27.9073 15.8744C28.4612 15.344 29.1986 15.0479 29.9655 15.0479Z" fill="black" fill-opacity="0.2"/>
<path d="M29.9655 15.0479C30.5541 15.0479 31.1295 15.2224 31.619 15.5494C32.1084 15.8765 32.4899 16.3413 32.7151 16.8851C32.9404 17.4289 32.9993 18.0273 32.8845 18.6047C32.7697 19.182 32.4862 19.7123 32.07 20.1285C31.6538 20.5448 31.1234 20.8282 30.5461 20.943C29.9688 21.0579 29.3704 20.9989 28.8266 20.7737C28.2827 20.5484 27.8179 20.167 27.4909 19.6775C27.1639 19.1881 26.9893 18.6127 26.9893 18.024L26.9923 17.8949C27.0256 17.1287 27.3534 16.4049 27.9073 15.8744C28.4612 15.344 29.1986 15.0479 29.9655 15.0479Z" fill="black" fill-opacity="0.2"/>
<path d="M29.9655 15.0479C30.5541 15.0479 31.1295 15.2224 31.619 15.5494C32.1084 15.8765 32.4899 16.3413 32.7151 16.8851C32.9404 17.4289 32.9993 18.0273 32.8845 18.6047C32.7697 19.182 32.4862 19.7123 32.07 20.1285C31.6538 20.5448 31.1234 20.8282 30.5461 20.943C29.9688 21.0579 29.3704 20.9989 28.8266 20.7737C28.2827 20.5484 27.8179 20.167 27.4909 19.6775C27.1639 19.1881 26.9893 18.6127 26.9893 18.024L26.9923 17.8949C27.0256 17.1287 27.3534 16.4049 27.9073 15.8744C28.4612 15.344 29.1986 15.0479 29.9655 15.0479Z" fill="black" fill-opacity="0.2"/>
<path d="M29.9655 15.0479C30.5541 15.0479 31.1295 15.2224 31.619 15.5494C32.1084 15.8765 32.4899 16.3413 32.7151 16.8851C32.9404 17.4289 32.9993 18.0273 32.8845 18.6047C32.7697 19.182 32.4862 19.7123 32.07 20.1285C31.6538 20.5448 31.1234 20.8282 30.5461 20.943C29.9688 21.0579 29.3704 20.9989 28.8266 20.7737C28.2827 20.5484 27.8179 20.167 27.4909 19.6775C27.1639 19.1881 26.9893 18.6127 26.9893 18.024L26.9923 17.8949C27.0256 17.1287 27.3534 16.4049 27.9073 15.8744C28.4612 15.344 29.1986 15.0479 29.9655 15.0479Z" fill="black" fill-opacity="0.2"/>
<path d="M29.9655 15.0479C30.5541 15.0479 31.1295 15.2224 31.619 15.5494C32.1084 15.8765 32.4899 16.3413 32.7151 16.8851C32.9404 17.4289 32.9993 18.0273 32.8845 18.6047C32.7697 19.182 32.4862 19.7123 32.07 20.1285C31.6538 20.5448 31.1234 20.8282 30.5461 20.943C29.9688 21.0579 29.3704 20.9989 28.8266 20.7737C28.2827 20.5484 27.8179 20.167 27.4909 19.6775C27.1639 19.1881 26.9893 18.6127 26.9893 18.024L26.9923 17.8949C27.0256 17.1287 27.3534 16.4049 27.9073 15.8744C28.4612 15.344 29.1986 15.0479 29.9655 15.0479Z" fill="black" fill-opacity="0.2"/>
<path d="M29.9655 15.0479C30.5541 15.0479 31.1295 15.2224 31.619 15.5494C32.1084 15.8765 32.4899 16.3413 32.7151 16.8851C32.9404 17.4289 32.9993 18.0273 32.8845 18.6047C32.7697 19.182 32.4862 19.7123 32.07 20.1285C31.6538 20.5448 31.1234 20.8282 30.5461 20.943C29.9688 21.0579 29.3704 20.9989 28.8266 20.7737C28.2827 20.5484 27.8179 20.167 27.4909 19.6775C27.1639 19.1881 26.9893 18.6127 26.9893 18.024L26.9923 17.8949C27.0256 17.1287 27.3534 16.4049 27.9073 15.8744C28.4612 15.344 29.1986 15.0479 29.9655 15.0479Z" fill="black" fill-opacity="0.2"/>
<path d="M29.9655 15.0479C30.5541 15.0479 31.1295 15.2224 31.619 15.5494C32.1084 15.8765 32.4899 16.3413 32.7151 16.8851C32.9404 17.4289 32.9993 18.0273 32.8845 18.6047C32.7697 19.182 32.4862 19.7123 32.07 20.1285C31.6538 20.5448 31.1234 20.8282 30.5461 20.943C29.9688 21.0579 29.3704 20.9989 28.8266 20.7737C28.2827 20.5484 27.8179 20.167 27.4909 19.6775C27.1639 19.1881 26.9893 18.6127 26.9893 18.024L26.9923 17.8949C27.0256 17.1287 27.3534 16.4049 27.9073 15.8744C28.4612 15.344 29.1986 15.0479 29.9655 15.0479Z" fill="black" fill-opacity="0.2"/>
<path d="M29.9655 15.0479C30.5541 15.0479 31.1295 15.2224 31.619 15.5494C32.1084 15.8765 32.4899 16.3413 32.7151 16.8851C32.9404 17.4289 32.9993 18.0273 32.8845 18.6047C32.7697 19.182 32.4862 19.7123 32.07 20.1285C31.6538 20.5448 31.1234 20.8282 30.5461 20.943C29.9688 21.0579 29.3704 20.9989 28.8266 20.7737C28.2827 20.5484 27.8179 20.167 27.4909 19.6775C27.1639 19.1881 26.9893 18.6127 26.9893 18.024L26.9923 17.8949C27.0256 17.1287 27.3534 16.4049 27.9073 15.8744C28.4612 15.344 29.1986 15.0479 29.9655 15.0479Z" fill="black" fill-opacity="0.2"/>
<path d="M29.9655 15.0479C30.5541 15.0479 31.1295 15.2224 31.619 15.5494C32.1084 15.8765 32.4899 16.3413 32.7151 16.8851C32.9404 17.4289 32.9993 18.0273 32.8845 18.6047C32.7697 19.182 32.4862 19.7123 32.07 20.1285C31.6538 20.5448 31.1234 20.8282 30.5461 20.943C29.9688 21.0579 29.3704 20.9989 28.8266 20.7737C28.2827 20.5484 27.8179 20.167 27.4909 19.6775C27.1639 19.1881 26.9893 18.6127 26.9893 18.024L26.9923 17.8949C27.0256 17.1287 27.3534 16.4049 27.9073 15.8744C28.4612 15.344 29.1986 15.0479 29.9655 15.0479Z" fill="black" fill-opacity="0.2"/>
<path d="M29.9655 15.0479C30.5541 15.0479 31.1295 15.2224 31.619 15.5494C32.1084 15.8765 32.4899 16.3413 32.7151 16.8851C32.9404 17.4289 32.9993 18.0273 32.8845 18.6047C32.7697 19.182 32.4862 19.7123 32.07 20.1285C31.6538 20.5448 31.1234 20.8282 30.5461 20.943C29.9688 21.0579 29.3704 20.9989 28.8266 20.7737C28.2827 20.5484 27.8179 20.167 27.4909 19.6775C27.1639 19.1881 26.9893 18.6127 26.9893 18.024L26.9923 17.8949C27.0256 17.1287 27.3534 16.4049 27.9073 15.8744C28.4612 15.344 29.1986 15.0479 29.9655 15.0479Z" fill="black" fill-opacity="0.2"/>
<path d="M29.9655 15.0479C30.5541 15.0479 31.1295 15.2224 31.619 15.5494C32.1084 15.8765 32.4899 16.3413 32.7151 16.8851C32.9404 17.4289 32.9993 18.0273 32.8845 18.6047C32.7697 19.182 32.4862 19.7123 32.07 20.1285C31.6538 20.5448 31.1234 20.8282 30.5461 20.943C29.9688 21.0579 29.3704 20.9989 28.8266 20.7737C28.2827 20.5484 27.8179 20.167 27.4909 19.6775C27.1639 19.1881 26.9893 18.6127 26.9893 18.024L26.9923 17.8949C27.0256 17.1287 27.3534 16.4049 27.9073 15.8744C28.4612 15.344 29.1986 15.0479 29.9655 15.0479Z" fill="black" fill-opacity="0.2"/>
<path d="M31.156 22.1907C31.9453 22.1907 32.7023 22.5043 33.2605 23.0624C33.8186 23.6206 34.1322 24.3776 34.1322 25.1669V25.7621C34.1322 26.0779 34.0067 26.3807 33.7835 26.6039C33.5602 26.8272 33.2574 26.9526 32.9417 26.9526H26.9893C26.6736 26.9526 26.3708 26.8272 26.1475 26.6039C25.9243 26.3807 25.7988 26.0779 25.7988 25.7621V25.1669C25.7988 24.3776 26.1124 23.6206 26.6705 23.0624C27.2287 22.5043 27.9857 22.1907 28.775 22.1907H31.156Z" fill="black"/>
<path d="M31.156 22.1907C31.9453 22.1907 32.7023 22.5043 33.2605 23.0624C33.8186 23.6206 34.1322 24.3776 34.1322 25.1669V25.7621C34.1322 26.0779 34.0067 26.3807 33.7835 26.6039C33.5602 26.8272 33.2574 26.9526 32.9417 26.9526H26.9893C26.6736 26.9526 26.3708 26.8272 26.1475 26.6039C25.9243 26.3807 25.7988 26.0779 25.7988 25.7621V25.1669C25.7988 24.3776 26.1124 23.6206 26.6705 23.0624C27.2287 22.5043 27.9857 22.1907 28.775 22.1907H31.156Z" fill="black" fill-opacity="0.2"/>
<path d="M31.156 22.1907C31.9453 22.1907 32.7023 22.5043 33.2605 23.0624C33.8186 23.6206 34.1322 24.3776 34.1322 25.1669V25.7621C34.1322 26.0779 34.0067 26.3807 33.7835 26.6039C33.5602 26.8272 33.2574 26.9526 32.9417 26.9526H26.9893C26.6736 26.9526 26.3708 26.8272 26.1475 26.6039C25.9243 26.3807 25.7988 26.0779 25.7988 25.7621V25.1669C25.7988 24.3776 26.1124 23.6206 26.6705 23.0624C27.2287 22.5043 27.9857 22.1907 28.775 22.1907H31.156Z" fill="black" fill-opacity="0.2"/>
<path d="M31.156 22.1907C31.9453 22.1907 32.7023 22.5043 33.2605 23.0624C33.8186 23.6206 34.1322 24.3776 34.1322 25.1669V25.7621C34.1322 26.0779 34.0067 26.3807 33.7835 26.6039C33.5602 26.8272 33.2574 26.9526 32.9417 26.9526H26.9893C26.6736 26.9526 26.3708 26.8272 26.1475 26.6039C25.9243 26.3807 25.7988 26.0779 25.7988 25.7621V25.1669C25.7988 24.3776 26.1124 23.6206 26.6705 23.0624C27.2287 22.5043 27.9857 22.1907 28.775 22.1907H31.156Z" fill="black" fill-opacity="0.2"/>
<path d="M31.156 22.1907C31.9453 22.1907 32.7023 22.5043 33.2605 23.0624C33.8186 23.6206 34.1322 24.3776 34.1322 25.1669V25.7621C34.1322 26.0779 34.0067 26.3807 33.7835 26.6039C33.5602 26.8272 33.2574 26.9526 32.9417 26.9526H26.9893C26.6736 26.9526 26.3708 26.8272 26.1475 26.6039C25.9243 26.3807 25.7988 26.0779 25.7988 25.7621V25.1669C25.7988 24.3776 26.1124 23.6206 26.6705 23.0624C27.2287 22.5043 27.9857 22.1907 28.775 22.1907H31.156Z" fill="black" fill-opacity="0.2"/>
<path d="M31.156 22.1907C31.9453 22.1907 32.7023 22.5043 33.2605 23.0624C33.8186 23.6206 34.1322 24.3776 34.1322 25.1669V25.7621C34.1322 26.0779 34.0067 26.3807 33.7835 26.6039C33.5602 26.8272 33.2574 26.9526 32.9417 26.9526H26.9893C26.6736 26.9526 26.3708 26.8272 26.1475 26.6039C25.9243 26.3807 25.7988 26.0779 25.7988 25.7621V25.1669C25.7988 24.3776 26.1124 23.6206 26.6705 23.0624C27.2287 22.5043 27.9857 22.1907 28.775 22.1907H31.156Z" fill="black" fill-opacity="0.2"/>
<path d="M31.156 22.1907C31.9453 22.1907 32.7023 22.5043 33.2605 23.0624C33.8186 23.6206 34.1322 24.3776 34.1322 25.1669V25.7621C34.1322 26.0779 34.0067 26.3807 33.7835 26.6039C33.5602 26.8272 33.2574 26.9526 32.9417 26.9526H26.9893C26.6736 26.9526 26.3708 26.8272 26.1475 26.6039C25.9243 26.3807 25.7988 26.0779 25.7988 25.7621V25.1669C25.7988 24.3776 26.1124 23.6206 26.6705 23.0624C27.2287 22.5043 27.9857 22.1907 28.775 22.1907H31.156Z" fill="black" fill-opacity="0.2"/>
<path d="M31.156 22.1907C31.9453 22.1907 32.7023 22.5043 33.2605 23.0624C33.8186 23.6206 34.1322 24.3776 34.1322 25.1669V25.7621C34.1322 26.0779 34.0067 26.3807 33.7835 26.6039C33.5602 26.8272 33.2574 26.9526 32.9417 26.9526H26.9893C26.6736 26.9526 26.3708 26.8272 26.1475 26.6039C25.9243 26.3807 25.7988 26.0779 25.7988 25.7621V25.1669C25.7988 24.3776 26.1124 23.6206 26.6705 23.0624C27.2287 22.5043 27.9857 22.1907 28.775 22.1907H31.156Z" fill="black" fill-opacity="0.2"/>
<path d="M31.156 22.1907C31.9453 22.1907 32.7023 22.5043 33.2605 23.0624C33.8186 23.6206 34.1322 24.3776 34.1322 25.1669V25.7621C34.1322 26.0779 34.0067 26.3807 33.7835 26.6039C33.5602 26.8272 33.2574 26.9526 32.9417 26.9526H26.9893C26.6736 26.9526 26.3708 26.8272 26.1475 26.6039C25.9243 26.3807 25.7988 26.0779 25.7988 25.7621V25.1669C25.7988 24.3776 26.1124 23.6206 26.6705 23.0624C27.2287 22.5043 27.9857 22.1907 28.775 22.1907H31.156Z" fill="black" fill-opacity="0.2"/>
<path d="M31.156 22.1907C31.9453 22.1907 32.7023 22.5043 33.2605 23.0624C33.8186 23.6206 34.1322 24.3776 34.1322 25.1669V25.7621C34.1322 26.0779 34.0067 26.3807 33.7835 26.6039C33.5602 26.8272 33.2574 26.9526 32.9417 26.9526H26.9893C26.6736 26.9526 26.3708 26.8272 26.1475 26.6039C25.9243 26.3807 25.7988 26.0779 25.7988 25.7621V25.1669C25.7988 24.3776 26.1124 23.6206 26.6705 23.0624C27.2287 22.5043 27.9857 22.1907 28.775 22.1907H31.156Z" fill="black" fill-opacity="0.2"/>
<path d="M31.156 22.1907C31.9453 22.1907 32.7023 22.5043 33.2605 23.0624C33.8186 23.6206 34.1322 24.3776 34.1322 25.1669V25.7621C34.1322 26.0779 34.0067 26.3807 33.7835 26.6039C33.5602 26.8272 33.2574 26.9526 32.9417 26.9526H26.9893C26.6736 26.9526 26.3708 26.8272 26.1475 26.6039C25.9243 26.3807 25.7988 26.0779 25.7988 25.7621V25.1669C25.7988 24.3776 26.1124 23.6206 26.6705 23.0624C27.2287 22.5043 27.9857 22.1907 28.775 22.1907H31.156Z" fill="black" fill-opacity="0.2"/>
<path d="M31.156 22.1907C31.9453 22.1907 32.7023 22.5043 33.2605 23.0624C33.8186 23.6206 34.1322 24.3776 34.1322 25.1669V25.7621C34.1322 26.0779 34.0067 26.3807 33.7835 26.6039C33.5602 26.8272 33.2574 26.9526 32.9417 26.9526H26.9893C26.6736 26.9526 26.3708 26.8272 26.1475 26.6039C25.9243 26.3807 25.7988 26.0779 25.7988 25.7621V25.1669C25.7988 24.3776 26.1124 23.6206 26.6705 23.0624C27.2287 22.5043 27.9857 22.1907 28.775 22.1907H31.156Z" fill="black" fill-opacity="0.2"/>
<path d="M31.156 22.1907C31.9453 22.1907 32.7023 22.5043 33.2605 23.0624C33.8186 23.6206 34.1322 24.3776 34.1322 25.1669V25.7621C34.1322 26.0779 34.0067 26.3807 33.7835 26.6039C33.5602 26.8272 33.2574 26.9526 32.9417 26.9526H26.9893C26.6736 26.9526 26.3708 26.8272 26.1475 26.6039C25.9243 26.3807 25.7988 26.0779 25.7988 25.7621V25.1669C25.7988 24.3776 26.1124 23.6206 26.6705 23.0624C27.2287 22.5043 27.9857 22.1907 28.775 22.1907H31.156Z" fill="black" fill-opacity="0.2"/>
<path d="M29.9655 15.0479C30.5541 15.0479 31.1295 15.2224 31.619 15.5494C32.1084 15.8765 32.4899 16.3413 32.7151 16.8851C32.9404 17.4289 32.9993 18.0273 32.8845 18.6047C32.7697 19.182 32.4862 19.7123 32.07 20.1285C31.6538 20.5448 31.1234 20.8282 30.5461 20.943C29.9688 21.0579 29.3704 20.9989 28.8266 20.7737C28.2827 20.5484 27.8179 20.167 27.4909 19.6775C27.1639 19.1881 26.9893 18.6127 26.9893 18.024L26.9923 17.8949C27.0256 17.1287 27.3534 16.4049 27.9073 15.8744C28.4612 15.344 29.1986 15.0479 29.9655 15.0479Z" stroke="black"/>
<path d="M31.156 22.1907C31.9453 22.1907 32.7023 22.5043 33.2605 23.0624C33.8186 23.6206 34.1322 24.3776 34.1322 25.1669V25.7621C34.1322 26.0779 34.0067 26.3807 33.7835 26.6039C33.5602 26.8272 33.2574 26.9526 32.9417 26.9526H26.9893C26.6736 26.9526 26.3708 26.8272 26.1475 26.6039C25.9243 26.3807 25.7988 26.0779 25.7988 25.7621V25.1669C25.7988 24.3776 26.1124 23.6206 26.6705 23.0624C27.2287 22.5043 27.9857 22.1907 28.775 22.1907H31.156Z" stroke="black"/>
<path d="M74.8325 19.1223L69.1353 23.4973C69.0823 23.538 69.0195 23.5702 68.9503 23.5922C68.8812 23.6143 68.807 23.6256 68.7322 23.6256C68.6573 23.6256 68.5832 23.6143 68.514 23.5922C68.4448 23.5702 68.382 23.538 68.3291 23.4973L62.6318 19.1223C62.5249 19.0402 62.4648 18.9288 62.4648 18.8127C62.4648 18.6966 62.5249 18.5853 62.6318 18.5032C62.7387 18.4211 62.8837 18.375 63.0349 18.375C63.1861 18.375 63.3311 18.4211 63.438 18.5032L68.7322 22.5692L74.0264 18.5032C74.0793 18.4626 74.1421 18.4303 74.2113 18.4083C74.2805 18.3863 74.3546 18.375 74.4294 18.375C74.5043 18.375 74.5784 18.3863 74.6476 18.4083C74.7168 18.4303 74.7796 18.4626 74.8325 18.5032C74.8855 18.5439 74.9275 18.5921 74.9561 18.6452C74.9847 18.6983 74.9995 18.7553 74.9995 18.8127C74.9995 18.8702 74.9847 18.9272 74.9561 18.9803C74.9275 19.0334 74.8855 19.0816 74.8325 19.1223Z" fill="black"/>
<path d="M74.8325 19.1223L69.1353 23.4973C69.0823 23.538 69.0195 23.5702 68.9503 23.5922C68.8812 23.6143 68.807 23.6256 68.7322 23.6256C68.6573 23.6256 68.5832 23.6143 68.514 23.5922C68.4448 23.5702 68.382 23.538 68.3291 23.4973L62.6318 19.1223C62.5249 19.0402 62.4648 18.9288 62.4648 18.8127C62.4648 18.6966 62.5249 18.5853 62.6318 18.5032C62.7387 18.4211 62.8837 18.375 63.0349 18.375C63.1861 18.375 63.3311 18.4211 63.438 18.5032L68.7322 22.5692L74.0264 18.5032C74.0793 18.4626 74.1421 18.4303 74.2113 18.4083C74.2805 18.3863 74.3546 18.375 74.4294 18.375C74.5043 18.375 74.5784 18.3863 74.6476 18.4083C74.7168 18.4303 74.7796 18.4626 74.8325 18.5032C74.8855 18.5439 74.9275 18.5921 74.9561 18.6452C74.9847 18.6983 74.9995 18.7553 74.9995 18.8127C74.9995 18.8702 74.9847 18.9272 74.9561 18.9803C74.9275 19.0334 74.8855 19.0816 74.8325 19.1223Z" fill="black" fill-opacity="0.2"/>
<path d="M74.8325 19.1223L69.1353 23.4973C69.0823 23.538 69.0195 23.5702 68.9503 23.5922C68.8812 23.6143 68.807 23.6256 68.7322 23.6256C68.6573 23.6256 68.5832 23.6143 68.514 23.5922C68.4448 23.5702 68.382 23.538 68.3291 23.4973L62.6318 19.1223C62.5249 19.0402 62.4648 18.9288 62.4648 18.8127C62.4648 18.6966 62.5249 18.5853 62.6318 18.5032C62.7387 18.4211 62.8837 18.375 63.0349 18.375C63.1861 18.375 63.3311 18.4211 63.438 18.5032L68.7322 22.5692L74.0264 18.5032C74.0793 18.4626 74.1421 18.4303 74.2113 18.4083C74.2805 18.3863 74.3546 18.375 74.4294 18.375C74.5043 18.375 74.5784 18.3863 74.6476 18.4083C74.7168 18.4303 74.7796 18.4626 74.8325 18.5032C74.8855 18.5439 74.9275 18.5921 74.9561 18.6452C74.9847 18.6983 74.9995 18.7553 74.9995 18.8127C74.9995 18.8702 74.9847 18.9272 74.9561 18.9803C74.9275 19.0334 74.8855 19.0816 74.8325 19.1223Z" fill="black" fill-opacity="0.2"/>
<path d="M74.8325 19.1223L69.1353 23.4973C69.0823 23.538 69.0195 23.5702 68.9503 23.5922C68.8812 23.6143 68.807 23.6256 68.7322 23.6256C68.6573 23.6256 68.5832 23.6143 68.514 23.5922C68.4448 23.5702 68.382 23.538 68.3291 23.4973L62.6318 19.1223C62.5249 19.0402 62.4648 18.9288 62.4648 18.8127C62.4648 18.6966 62.5249 18.5853 62.6318 18.5032C62.7387 18.4211 62.8837 18.375 63.0349 18.375C63.1861 18.375 63.3311 18.4211 63.438 18.5032L68.7322 22.5692L74.0264 18.5032C74.0793 18.4626 74.1421 18.4303 74.2113 18.4083C74.2805 18.3863 74.3546 18.375 74.4294 18.375C74.5043 18.375 74.5784 18.3863 74.6476 18.4083C74.7168 18.4303 74.7796 18.4626 74.8325 18.5032C74.8855 18.5439 74.9275 18.5921 74.9561 18.6452C74.9847 18.6983 74.9995 18.7553 74.9995 18.8127C74.9995 18.8702 74.9847 18.9272 74.9561 18.9803C74.9275 19.0334 74.8855 19.0816 74.8325 19.1223Z" fill="black" fill-opacity="0.2"/>
<path d="M74.8325 19.1223L69.1353 23.4973C69.0823 23.538 69.0195 23.5702 68.9503 23.5922C68.8812 23.6143 68.807 23.6256 68.7322 23.6256C68.6573 23.6256 68.5832 23.6143 68.514 23.5922C68.4448 23.5702 68.382 23.538 68.3291 23.4973L62.6318 19.1223C62.5249 19.0402 62.4648 18.9288 62.4648 18.8127C62.4648 18.6966 62.5249 18.5853 62.6318 18.5032C62.7387 18.4211 62.8837 18.375 63.0349 18.375C63.1861 18.375 63.3311 18.4211 63.438 18.5032L68.7322 22.5692L74.0264 18.5032C74.0793 18.4626 74.1421 18.4303 74.2113 18.4083C74.2805 18.3863 74.3546 18.375 74.4294 18.375C74.5043 18.375 74.5784 18.3863 74.6476 18.4083C74.7168 18.4303 74.7796 18.4626 74.8325 18.5032C74.8855 18.5439 74.9275 18.5921 74.9561 18.6452C74.9847 18.6983 74.9995 18.7553 74.9995 18.8127C74.9995 18.8702 74.9847 18.9272 74.9561 18.9803C74.9275 19.0334 74.8855 19.0816 74.8325 19.1223Z" fill="black" fill-opacity="0.2"/>
<path d="M74.8325 19.1223L69.1353 23.4973C69.0823 23.538 69.0195 23.5702 68.9503 23.5922C68.8812 23.6143 68.807 23.6256 68.7322 23.6256C68.6573 23.6256 68.5832 23.6143 68.514 23.5922C68.4448 23.5702 68.382 23.538 68.3291 23.4973L62.6318 19.1223C62.5249 19.0402 62.4648 18.9288 62.4648 18.8127C62.4648 18.6966 62.5249 18.5853 62.6318 18.5032C62.7387 18.4211 62.8837 18.375 63.0349 18.375C63.1861 18.375 63.3311 18.4211 63.438 18.5032L68.7322 22.5692L74.0264 18.5032C74.0793 18.4626 74.1421 18.4303 74.2113 18.4083C74.2805 18.3863 74.3546 18.375 74.4294 18.375C74.5043 18.375 74.5784 18.3863 74.6476 18.4083C74.7168 18.4303 74.7796 18.4626 74.8325 18.5032C74.8855 18.5439 74.9275 18.5921 74.9561 18.6452C74.9847 18.6983 74.9995 18.7553 74.9995 18.8127C74.9995 18.8702 74.9847 18.9272 74.9561 18.9803C74.9275 19.0334 74.8855 19.0816 74.8325 19.1223Z" fill="black" fill-opacity="0.2"/>
<path d="M74.8325 19.1223L69.1353 23.4973C69.0823 23.538 69.0195 23.5702 68.9503 23.5922C68.8812 23.6143 68.807 23.6256 68.7322 23.6256C68.6573 23.6256 68.5832 23.6143 68.514 23.5922C68.4448 23.5702 68.382 23.538 68.3291 23.4973L62.6318 19.1223C62.5249 19.0402 62.4648 18.9288 62.4648 18.8127C62.4648 18.6966 62.5249 18.5853 62.6318 18.5032C62.7387 18.4211 62.8837 18.375 63.0349 18.375C63.1861 18.375 63.3311 18.4211 63.438 18.5032L68.7322 22.5692L74.0264 18.5032C74.0793 18.4626 74.1421 18.4303 74.2113 18.4083C74.2805 18.3863 74.3546 18.375 74.4294 18.375C74.5043 18.375 74.5784 18.3863 74.6476 18.4083C74.7168 18.4303 74.7796 18.4626 74.8325 18.5032C74.8855 18.5439 74.9275 18.5921 74.9561 18.6452C74.9847 18.6983 74.9995 18.7553 74.9995 18.8127C74.9995 18.8702 74.9847 18.9272 74.9561 18.9803C74.9275 19.0334 74.8855 19.0816 74.8325 19.1223Z" fill="black" fill-opacity="0.2"/>
<path d="M74.8325 19.1223L69.1353 23.4973C69.0823 23.538 69.0195 23.5702 68.9503 23.5922C68.8812 23.6143 68.807 23.6256 68.7322 23.6256C68.6573 23.6256 68.5832 23.6143 68.514 23.5922C68.4448 23.5702 68.382 23.538 68.3291 23.4973L62.6318 19.1223C62.5249 19.0402 62.4648 18.9288 62.4648 18.8127C62.4648 18.6966 62.5249 18.5853 62.6318 18.5032C62.7387 18.4211 62.8837 18.375 63.0349 18.375C63.1861 18.375 63.3311 18.4211 63.438 18.5032L68.7322 22.5692L74.0264 18.5032C74.0793 18.4626 74.1421 18.4303 74.2113 18.4083C74.2805 18.3863 74.3546 18.375 74.4294 18.375C74.5043 18.375 74.5784 18.3863 74.6476 18.4083C74.7168 18.4303 74.7796 18.4626 74.8325 18.5032C74.8855 18.5439 74.9275 18.5921 74.9561 18.6452C74.9847 18.6983 74.9995 18.7553 74.9995 18.8127C74.9995 18.8702 74.9847 18.9272 74.9561 18.9803C74.9275 19.0334 74.8855 19.0816 74.8325 19.1223Z" fill="black" fill-opacity="0.2"/>
<path d="M74.8325 19.1223L69.1353 23.4973C69.0823 23.538 69.0195 23.5702 68.9503 23.5922C68.8812 23.6143 68.807 23.6256 68.7322 23.6256C68.6573 23.6256 68.5832 23.6143 68.514 23.5922C68.4448 23.5702 68.382 23.538 68.3291 23.4973L62.6318 19.1223C62.5249 19.0402 62.4648 18.9288 62.4648 18.8127C62.4648 18.6966 62.5249 18.5853 62.6318 18.5032C62.7387 18.4211 62.8837 18.375 63.0349 18.375C63.1861 18.375 63.3311 18.4211 63.438 18.5032L68.7322 22.5692L74.0264 18.5032C74.0793 18.4626 74.1421 18.4303 74.2113 18.4083C74.2805 18.3863 74.3546 18.375 74.4294 18.375C74.5043 18.375 74.5784 18.3863 74.6476 18.4083C74.7168 18.4303 74.7796 18.4626 74.8325 18.5032C74.8855 18.5439 74.9275 18.5921 74.9561 18.6452C74.9847 18.6983 74.9995 18.7553 74.9995 18.8127C74.9995 18.8702 74.9847 18.9272 74.9561 18.9803C74.9275 19.0334 74.8855 19.0816 74.8325 19.1223Z" fill="black" fill-opacity="0.2"/>
<path d="M74.8325 19.1223L69.1353 23.4973C69.0823 23.538 69.0195 23.5702 68.9503 23.5922C68.8812 23.6143 68.807 23.6256 68.7322 23.6256C68.6573 23.6256 68.5832 23.6143 68.514 23.5922C68.4448 23.5702 68.382 23.538 68.3291 23.4973L62.6318 19.1223C62.5249 19.0402 62.4648 18.9288 62.4648 18.8127C62.4648 18.6966 62.5249 18.5853 62.6318 18.5032C62.7387 18.4211 62.8837 18.375 63.0349 18.375C63.1861 18.375 63.3311 18.4211 63.438 18.5032L68.7322 22.5692L74.0264 18.5032C74.0793 18.4626 74.1421 18.4303 74.2113 18.4083C74.2805 18.3863 74.3546 18.375 74.4294 18.375C74.5043 18.375 74.5784 18.3863 74.6476 18.4083C74.7168 18.4303 74.7796 18.4626 74.8325 18.5032C74.8855 18.5439 74.9275 18.5921 74.9561 18.6452C74.9847 18.6983 74.9995 18.7553 74.9995 18.8127C74.9995 18.8702 74.9847 18.9272 74.9561 18.9803C74.9275 19.0334 74.8855 19.0816 74.8325 19.1223Z" fill="black" fill-opacity="0.2"/>
<path d="M74.8325 19.1223L69.1353 23.4973C69.0823 23.538 69.0195 23.5702 68.9503 23.5922C68.8812 23.6143 68.807 23.6256 68.7322 23.6256C68.6573 23.6256 68.5832 23.6143 68.514 23.5922C68.4448 23.5702 68.382 23.538 68.3291 23.4973L62.6318 19.1223C62.5249 19.0402 62.4648 18.9288 62.4648 18.8127C62.4648 18.6966 62.5249 18.5853 62.6318 18.5032C62.7387 18.4211 62.8837 18.375 63.0349 18.375C63.1861 18.375 63.3311 18.4211 63.438 18.5032L68.7322 22.5692L74.0264 18.5032C74.0793 18.4626 74.1421 18.4303 74.2113 18.4083C74.2805 18.3863 74.3546 18.375 74.4294 18.375C74.5043 18.375 74.5784 18.3863 74.6476 18.4083C74.7168 18.4303 74.7796 18.4626 74.8325 18.5032C74.8855 18.5439 74.9275 18.5921 74.9561 18.6452C74.9847 18.6983 74.9995 18.7553 74.9995 18.8127C74.9995 18.8702 74.9847 18.9272 74.9561 18.9803C74.9275 19.0334 74.8855 19.0816 74.8325 19.1223Z" fill="black" fill-opacity="0.2"/>
<path d="M74.8325 19.1223L69.1353 23.4973C69.0823 23.538 69.0195 23.5702 68.9503 23.5922C68.8812 23.6143 68.807 23.6256 68.7322 23.6256C68.6573 23.6256 68.5832 23.6143 68.514 23.5922C68.4448 23.5702 68.382 23.538 68.3291 23.4973L62.6318 19.1223C62.5249 19.0402 62.4648 18.9288 62.4648 18.8127C62.4648 18.6966 62.5249 18.5853 62.6318 18.5032C62.7387 18.4211 62.8837 18.375 63.0349 18.375C63.1861 18.375 63.3311 18.4211 63.438 18.5032L68.7322 22.5692L74.0264 18.5032C74.0793 18.4626 74.1421 18.4303 74.2113 18.4083C74.2805 18.3863 74.3546 18.375 74.4294 18.375C74.5043 18.375 74.5784 18.3863 74.6476 18.4083C74.7168 18.4303 74.7796 18.4626 74.8325 18.5032C74.8855 18.5439 74.9275 18.5921 74.9561 18.6452C74.9847 18.6983 74.9995 18.7553 74.9995 18.8127C74.9995 18.8702 74.9847 18.9272 74.9561 18.9803C74.9275 19.0334 74.8855 19.0816 74.8325 19.1223Z" fill="black" fill-opacity="0.2"/>
<path d="M74.8325 19.1223L69.1353 23.4973C69.0823 23.538 69.0195 23.5702 68.9503 23.5922C68.8812 23.6143 68.807 23.6256 68.7322 23.6256C68.6573 23.6256 68.5832 23.6143 68.514 23.5922C68.4448 23.5702 68.382 23.538 68.3291 23.4973L62.6318 19.1223C62.5249 19.0402 62.4648 18.9288 62.4648 18.8127C62.4648 18.6966 62.5249 18.5853 62.6318 18.5032C62.7387 18.4211 62.8837 18.375 63.0349 18.375C63.1861 18.375 63.3311 18.4211 63.438 18.5032L68.7322 22.5692L74.0264 18.5032C74.0793 18.4626 74.1421 18.4303 74.2113 18.4083C74.2805 18.3863 74.3546 18.375 74.4294 18.375C74.5043 18.375 74.5784 18.3863 74.6476 18.4083C74.7168 18.4303 74.7796 18.4626 74.8325 18.5032C74.8855 18.5439 74.9275 18.5921 74.9561 18.6452C74.9847 18.6983 74.9995 18.7553 74.9995 18.8127C74.9995 18.8702 74.9847 18.9272 74.9561 18.9803C74.9275 19.0334 74.8855 19.0816 74.8325 19.1223Z" fill="black" fill-opacity="0.2"/>
</svg>
