<svg width="91" height="54" viewBox="0 0 91 54" fill="none" xmlns="http://www.w3.org/2000/svg">
<rect x="0.621094" width="90" height="54" rx="18" fill="#003C3C"/>
<path d="M25.7011 33L28.1401 20.4H29.6521L32.8831 28.887L36.0961 20.4H37.6081L40.0561 33H38.1481L36.5191 24.567L33.5041 32.523H32.2441L29.2381 24.567L27.6091 33H25.7011ZM45.3056 33.234C44.4776 33.234 43.7216 33.021 43.0376 32.595C42.3596 32.169 41.8166 31.599 41.4086 30.885C41.0066 30.165 40.8056 29.37 40.8056 28.5C40.8056 27.84 40.9226 27.225 41.1566 26.655C41.3906 26.079 41.7116 25.575 42.1196 25.143C42.5336 24.705 43.0136 24.363 43.5596 24.117C44.1056 23.871 44.6876 23.748 45.3056 23.748C46.1336 23.748 46.8866 23.961 47.5646 24.387C48.2486 24.813 48.7916 25.386 49.1936 26.106C49.6016 26.826 49.8056 27.624 49.8056 28.5C49.8056 29.154 49.6886 29.766 49.4546 30.336C49.2206 30.906 48.8966 31.41 48.4826 31.848C48.0746 32.28 47.5976 32.619 47.0516 32.865C46.5116 33.111 45.9296 33.234 45.3056 33.234ZM45.3056 31.362C45.8036 31.362 46.2506 31.23 46.6466 30.966C47.0426 30.702 47.3546 30.354 47.5826 29.922C47.8166 29.484 47.9336 29.01 47.9336 28.5C47.9336 27.978 47.8136 27.498 47.5736 27.06C47.3396 26.622 47.0246 26.274 46.6286 26.016C46.2326 25.752 45.7916 25.62 45.3056 25.62C44.8136 25.62 44.3666 25.752 43.9646 26.016C43.5686 26.28 43.2536 26.631 43.0196 27.069C42.7916 27.507 42.6776 27.984 42.6776 28.5C42.6776 29.034 42.7976 29.517 43.0376 29.949C43.2776 30.381 43.5956 30.726 43.9916 30.984C44.3936 31.236 44.8316 31.362 45.3056 31.362ZM51.2597 33V24H53.1317V24.954C53.4437 24.582 53.8277 24.288 54.2837 24.072C54.7397 23.856 55.2317 23.748 55.7597 23.748C56.0957 23.748 56.4287 23.793 56.7587 23.883L56.0117 25.773C55.7777 25.683 55.5437 25.638 55.3097 25.638C54.9137 25.638 54.5507 25.737 54.2207 25.935C53.8907 26.127 53.6267 26.388 53.4287 26.718C53.2307 27.048 53.1317 27.414 53.1317 27.816V33H51.2597ZM61.3369 33.234C60.5089 33.234 59.7529 33.021 59.0689 32.595C58.3909 32.169 57.8479 31.599 57.4399 30.885C57.0379 30.165 56.8369 29.37 56.8369 28.5C56.8369 27.84 56.9539 27.225 57.1879 26.655C57.4219 26.079 57.7429 25.575 58.1509 25.143C58.5649 24.705 59.0449 24.363 59.5909 24.117C60.1369 23.871 60.7189 23.748 61.3369 23.748C62.0269 23.748 62.6599 23.892 63.2359 24.18C63.8119 24.462 64.3039 24.855 64.7119 25.359C65.1199 25.857 65.4199 26.433 65.6119 27.087C65.8039 27.735 65.8609 28.425 65.7829 29.157H58.8439C58.9219 29.571 59.0719 29.946 59.2939 30.282C59.5219 30.612 59.8099 30.873 60.1579 31.065C60.5119 31.257 60.9049 31.356 61.3369 31.362C61.7929 31.362 62.2069 31.248 62.5789 31.02C62.9569 30.792 63.2659 30.477 63.5059 30.075L65.4049 30.516C65.0449 31.314 64.5019 31.968 63.7759 32.478C63.0499 32.982 62.2369 33.234 61.3369 33.234ZM58.7809 27.726H63.8929C63.8329 27.294 63.6799 26.904 63.4339 26.556C63.1939 26.202 62.8909 25.923 62.5249 25.719C62.1649 25.509 61.7689 25.404 61.3369 25.404C60.9109 25.404 60.5149 25.506 60.1489 25.71C59.7889 25.914 59.4889 26.193 59.2489 26.547C59.0149 26.895 58.8589 27.288 58.7809 27.726Z" fill="#F8F9FB"/>
</svg>
