<svg width="26" height="26" viewBox="0 0 26 26" fill="none" xmlns="http://www.w3.org/2000/svg">
<circle cx="12.9648" cy="13" r="12.5" fill="#F8F9FB"/>
<path d="M12.9655 7.04785C13.5541 7.04785 14.1295 7.2224 14.619 7.54943C15.1084 7.87646 15.4899 8.34128 15.7151 8.8851C15.9404 9.42893 15.9993 10.0273 15.8845 10.6047C15.7697 11.182 15.4862 11.7123 15.07 12.1285C14.6538 12.5448 14.1234 12.8282 13.5461 12.943C12.9688 13.0579 12.3704 12.9989 11.8266 12.7737C11.2827 12.5484 10.8179 12.167 10.4909 11.6775C10.1639 11.1881 9.9893 10.6127 9.9893 10.024L9.99228 9.89488C10.0256 9.12866 10.3534 8.40486 10.9073 7.87443C11.4612 7.34401 12.1986 7.0479 12.9655 7.04785Z" fill="black"/>
<path d="M12.9655 7.04785C13.5541 7.04785 14.1295 7.2224 14.619 7.54943C15.1084 7.87646 15.4899 8.34128 15.7151 8.8851C15.9404 9.42893 15.9993 10.0273 15.8845 10.6047C15.7697 11.182 15.4862 11.7123 15.07 12.1285C14.6538 12.5448 14.1234 12.8282 13.5461 12.943C12.9688 13.0579 12.3704 12.9989 11.8266 12.7737C11.2827 12.5484 10.8179 12.167 10.4909 11.6775C10.1639 11.1881 9.9893 10.6127 9.9893 10.024L9.99228 9.89488C10.0256 9.12866 10.3534 8.40486 10.9073 7.87443C11.4612 7.34401 12.1986 7.0479 12.9655 7.04785Z" fill="black" fill-opacity="0.2"/>
<path d="M12.9655 7.04785C13.5541 7.04785 14.1295 7.2224 14.619 7.54943C15.1084 7.87646 15.4899 8.34128 15.7151 8.8851C15.9404 9.42893 15.9993 10.0273 15.8845 10.6047C15.7697 11.182 15.4862 11.7123 15.07 12.1285C14.6538 12.5448 14.1234 12.8282 13.5461 12.943C12.9688 13.0579 12.3704 12.9989 11.8266 12.7737C11.2827 12.5484 10.8179 12.167 10.4909 11.6775C10.1639 11.1881 9.9893 10.6127 9.9893 10.024L9.99228 9.89488C10.0256 9.12866 10.3534 8.40486 10.9073 7.87443C11.4612 7.34401 12.1986 7.0479 12.9655 7.04785Z" fill="black" fill-opacity="0.2"/>
<path d="M12.9655 7.04785C13.5541 7.04785 14.1295 7.2224 14.619 7.54943C15.1084 7.87646 15.4899 8.34128 15.7151 8.8851C15.9404 9.42893 15.9993 10.0273 15.8845 10.6047C15.7697 11.182 15.4862 11.7123 15.07 12.1285C14.6538 12.5448 14.1234 12.8282 13.5461 12.943C12.9688 13.0579 12.3704 12.9989 11.8266 12.7737C11.2827 12.5484 10.8179 12.167 10.4909 11.6775C10.1639 11.1881 9.9893 10.6127 9.9893 10.024L9.99228 9.89488C10.0256 9.12866 10.3534 8.40486 10.9073 7.87443C11.4612 7.34401 12.1986 7.0479 12.9655 7.04785Z" fill="black" fill-opacity="0.2"/>
<path d="M12.9655 7.04785C13.5541 7.04785 14.1295 7.2224 14.619 7.54943C15.1084 7.87646 15.4899 8.34128 15.7151 8.8851C15.9404 9.42893 15.9993 10.0273 15.8845 10.6047C15.7697 11.182 15.4862 11.7123 15.07 12.1285C14.6538 12.5448 14.1234 12.8282 13.5461 12.943C12.9688 13.0579 12.3704 12.9989 11.8266 12.7737C11.2827 12.5484 10.8179 12.167 10.4909 11.6775C10.1639 11.1881 9.9893 10.6127 9.9893 10.024L9.99228 9.89488C10.0256 9.12866 10.3534 8.40486 10.9073 7.87443C11.4612 7.34401 12.1986 7.0479 12.9655 7.04785Z" fill="black" fill-opacity="0.2"/>
<path d="M12.9655 7.04785C13.5541 7.04785 14.1295 7.2224 14.619 7.54943C15.1084 7.87646 15.4899 8.34128 15.7151 8.8851C15.9404 9.42893 15.9993 10.0273 15.8845 10.6047C15.7697 11.182 15.4862 11.7123 15.07 12.1285C14.6538 12.5448 14.1234 12.8282 13.5461 12.943C12.9688 13.0579 12.3704 12.9989 11.8266 12.7737C11.2827 12.5484 10.8179 12.167 10.4909 11.6775C10.1639 11.1881 9.9893 10.6127 9.9893 10.024L9.99228 9.89488C10.0256 9.12866 10.3534 8.40486 10.9073 7.87443C11.4612 7.34401 12.1986 7.0479 12.9655 7.04785Z" fill="black" fill-opacity="0.2"/>
<path d="M12.9655 7.04785C13.5541 7.04785 14.1295 7.2224 14.619 7.54943C15.1084 7.87646 15.4899 8.34128 15.7151 8.8851C15.9404 9.42893 15.9993 10.0273 15.8845 10.6047C15.7697 11.182 15.4862 11.7123 15.07 12.1285C14.6538 12.5448 14.1234 12.8282 13.5461 12.943C12.9688 13.0579 12.3704 12.9989 11.8266 12.7737C11.2827 12.5484 10.8179 12.167 10.4909 11.6775C10.1639 11.1881 9.9893 10.6127 9.9893 10.024L9.99228 9.89488C10.0256 9.12866 10.3534 8.40486 10.9073 7.87443C11.4612 7.34401 12.1986 7.0479 12.9655 7.04785Z" fill="black" fill-opacity="0.2"/>
<path d="M12.9655 7.04785C13.5541 7.04785 14.1295 7.2224 14.619 7.54943C15.1084 7.87646 15.4899 8.34128 15.7151 8.8851C15.9404 9.42893 15.9993 10.0273 15.8845 10.6047C15.7697 11.182 15.4862 11.7123 15.07 12.1285C14.6538 12.5448 14.1234 12.8282 13.5461 12.943C12.9688 13.0579 12.3704 12.9989 11.8266 12.7737C11.2827 12.5484 10.8179 12.167 10.4909 11.6775C10.1639 11.1881 9.9893 10.6127 9.9893 10.024L9.99228 9.89488C10.0256 9.12866 10.3534 8.40486 10.9073 7.87443C11.4612 7.34401 12.1986 7.0479 12.9655 7.04785Z" fill="black" fill-opacity="0.2"/>
<path d="M12.9655 7.04785C13.5541 7.04785 14.1295 7.2224 14.619 7.54943C15.1084 7.87646 15.4899 8.34128 15.7151 8.8851C15.9404 9.42893 15.9993 10.0273 15.8845 10.6047C15.7697 11.182 15.4862 11.7123 15.07 12.1285C14.6538 12.5448 14.1234 12.8282 13.5461 12.943C12.9688 13.0579 12.3704 12.9989 11.8266 12.7737C11.2827 12.5484 10.8179 12.167 10.4909 11.6775C10.1639 11.1881 9.9893 10.6127 9.9893 10.024L9.99228 9.89488C10.0256 9.12866 10.3534 8.40486 10.9073 7.87443C11.4612 7.34401 12.1986 7.0479 12.9655 7.04785Z" fill="black" fill-opacity="0.2"/>
<path d="M12.9655 7.04785C13.5541 7.04785 14.1295 7.2224 14.619 7.54943C15.1084 7.87646 15.4899 8.34128 15.7151 8.8851C15.9404 9.42893 15.9993 10.0273 15.8845 10.6047C15.7697 11.182 15.4862 11.7123 15.07 12.1285C14.6538 12.5448 14.1234 12.8282 13.5461 12.943C12.9688 13.0579 12.3704 12.9989 11.8266 12.7737C11.2827 12.5484 10.8179 12.167 10.4909 11.6775C10.1639 11.1881 9.9893 10.6127 9.9893 10.024L9.99228 9.89488C10.0256 9.12866 10.3534 8.40486 10.9073 7.87443C11.4612 7.34401 12.1986 7.0479 12.9655 7.04785Z" fill="black" fill-opacity="0.2"/>
<path d="M12.9655 7.04785C13.5541 7.04785 14.1295 7.2224 14.619 7.54943C15.1084 7.87646 15.4899 8.34128 15.7151 8.8851C15.9404 9.42893 15.9993 10.0273 15.8845 10.6047C15.7697 11.182 15.4862 11.7123 15.07 12.1285C14.6538 12.5448 14.1234 12.8282 13.5461 12.943C12.9688 13.0579 12.3704 12.9989 11.8266 12.7737C11.2827 12.5484 10.8179 12.167 10.4909 11.6775C10.1639 11.1881 9.9893 10.6127 9.9893 10.024L9.99228 9.89488C10.0256 9.12866 10.3534 8.40486 10.9073 7.87443C11.4612 7.34401 12.1986 7.0479 12.9655 7.04785Z" fill="black" fill-opacity="0.2"/>
<path d="M12.9655 7.04785C13.5541 7.04785 14.1295 7.2224 14.619 7.54943C15.1084 7.87646 15.4899 8.34128 15.7151 8.8851C15.9404 9.42893 15.9993 10.0273 15.8845 10.6047C15.7697 11.182 15.4862 11.7123 15.07 12.1285C14.6538 12.5448 14.1234 12.8282 13.5461 12.943C12.9688 13.0579 12.3704 12.9989 11.8266 12.7737C11.2827 12.5484 10.8179 12.167 10.4909 11.6775C10.1639 11.1881 9.9893 10.6127 9.9893 10.024L9.99228 9.89488C10.0256 9.12866 10.3534 8.40486 10.9073 7.87443C11.4612 7.34401 12.1986 7.0479 12.9655 7.04785Z" fill="black" fill-opacity="0.2"/>
<path d="M12.9655 7.04785C13.5541 7.04785 14.1295 7.2224 14.619 7.54943C15.1084 7.87646 15.4899 8.34128 15.7151 8.8851C15.9404 9.42893 15.9993 10.0273 15.8845 10.6047C15.7697 11.182 15.4862 11.7123 15.07 12.1285C14.6538 12.5448 14.1234 12.8282 13.5461 12.943C12.9688 13.0579 12.3704 12.9989 11.8266 12.7737C11.2827 12.5484 10.8179 12.167 10.4909 11.6775C10.1639 11.1881 9.9893 10.6127 9.9893 10.024L9.99228 9.89488C10.0256 9.12866 10.3534 8.40486 10.9073 7.87443C11.4612 7.34401 12.1986 7.0479 12.9655 7.04785Z" fill="black" fill-opacity="0.2"/>
<path d="M14.156 14.1907C14.9453 14.1907 15.7023 14.5043 16.2605 15.0624C16.8186 15.6206 17.1322 16.3776 17.1322 17.1669V17.7621C17.1322 18.0779 17.0067 18.3807 16.7835 18.6039C16.5602 18.8272 16.2574 18.9526 15.9417 18.9526H9.9893C9.67357 18.9526 9.37077 18.8272 9.14751 18.6039C8.92425 18.3807 8.79883 18.0779 8.79883 17.7621V17.1669C8.79883 16.3776 9.11239 15.6206 9.67053 15.0624C10.2287 14.5043 10.9857 14.1907 11.775 14.1907H14.156Z" fill="black"/>
<path d="M14.156 14.1907C14.9453 14.1907 15.7023 14.5043 16.2605 15.0624C16.8186 15.6206 17.1322 16.3776 17.1322 17.1669V17.7621C17.1322 18.0779 17.0067 18.3807 16.7835 18.6039C16.5602 18.8272 16.2574 18.9526 15.9417 18.9526H9.9893C9.67357 18.9526 9.37077 18.8272 9.14751 18.6039C8.92425 18.3807 8.79883 18.0779 8.79883 17.7621V17.1669C8.79883 16.3776 9.11239 15.6206 9.67053 15.0624C10.2287 14.5043 10.9857 14.1907 11.775 14.1907H14.156Z" fill="black" fill-opacity="0.2"/>
<path d="M14.156 14.1907C14.9453 14.1907 15.7023 14.5043 16.2605 15.0624C16.8186 15.6206 17.1322 16.3776 17.1322 17.1669V17.7621C17.1322 18.0779 17.0067 18.3807 16.7835 18.6039C16.5602 18.8272 16.2574 18.9526 15.9417 18.9526H9.9893C9.67357 18.9526 9.37077 18.8272 9.14751 18.6039C8.92425 18.3807 8.79883 18.0779 8.79883 17.7621V17.1669C8.79883 16.3776 9.11239 15.6206 9.67053 15.0624C10.2287 14.5043 10.9857 14.1907 11.775 14.1907H14.156Z" fill="black" fill-opacity="0.2"/>
<path d="M14.156 14.1907C14.9453 14.1907 15.7023 14.5043 16.2605 15.0624C16.8186 15.6206 17.1322 16.3776 17.1322 17.1669V17.7621C17.1322 18.0779 17.0067 18.3807 16.7835 18.6039C16.5602 18.8272 16.2574 18.9526 15.9417 18.9526H9.9893C9.67357 18.9526 9.37077 18.8272 9.14751 18.6039C8.92425 18.3807 8.79883 18.0779 8.79883 17.7621V17.1669C8.79883 16.3776 9.11239 15.6206 9.67053 15.0624C10.2287 14.5043 10.9857 14.1907 11.775 14.1907H14.156Z" fill="black" fill-opacity="0.2"/>
<path d="M14.156 14.1907C14.9453 14.1907 15.7023 14.5043 16.2605 15.0624C16.8186 15.6206 17.1322 16.3776 17.1322 17.1669V17.7621C17.1322 18.0779 17.0067 18.3807 16.7835 18.6039C16.5602 18.8272 16.2574 18.9526 15.9417 18.9526H9.9893C9.67357 18.9526 9.37077 18.8272 9.14751 18.6039C8.92425 18.3807 8.79883 18.0779 8.79883 17.7621V17.1669C8.79883 16.3776 9.11239 15.6206 9.67053 15.0624C10.2287 14.5043 10.9857 14.1907 11.775 14.1907H14.156Z" fill="black" fill-opacity="0.2"/>
<path d="M14.156 14.1907C14.9453 14.1907 15.7023 14.5043 16.2605 15.0624C16.8186 15.6206 17.1322 16.3776 17.1322 17.1669V17.7621C17.1322 18.0779 17.0067 18.3807 16.7835 18.6039C16.5602 18.8272 16.2574 18.9526 15.9417 18.9526H9.9893C9.67357 18.9526 9.37077 18.8272 9.14751 18.6039C8.92425 18.3807 8.79883 18.0779 8.79883 17.7621V17.1669C8.79883 16.3776 9.11239 15.6206 9.67053 15.0624C10.2287 14.5043 10.9857 14.1907 11.775 14.1907H14.156Z" fill="black" fill-opacity="0.2"/>
<path d="M14.156 14.1907C14.9453 14.1907 15.7023 14.5043 16.2605 15.0624C16.8186 15.6206 17.1322 16.3776 17.1322 17.1669V17.7621C17.1322 18.0779 17.0067 18.3807 16.7835 18.6039C16.5602 18.8272 16.2574 18.9526 15.9417 18.9526H9.9893C9.67357 18.9526 9.37077 18.8272 9.14751 18.6039C8.92425 18.3807 8.79883 18.0779 8.79883 17.7621V17.1669C8.79883 16.3776 9.11239 15.6206 9.67053 15.0624C10.2287 14.5043 10.9857 14.1907 11.775 14.1907H14.156Z" fill="black" fill-opacity="0.2"/>
<path d="M14.156 14.1907C14.9453 14.1907 15.7023 14.5043 16.2605 15.0624C16.8186 15.6206 17.1322 16.3776 17.1322 17.1669V17.7621C17.1322 18.0779 17.0067 18.3807 16.7835 18.6039C16.5602 18.8272 16.2574 18.9526 15.9417 18.9526H9.9893C9.67357 18.9526 9.37077 18.8272 9.14751 18.6039C8.92425 18.3807 8.79883 18.0779 8.79883 17.7621V17.1669C8.79883 16.3776 9.11239 15.6206 9.67053 15.0624C10.2287 14.5043 10.9857 14.1907 11.775 14.1907H14.156Z" fill="black" fill-opacity="0.2"/>
<path d="M14.156 14.1907C14.9453 14.1907 15.7023 14.5043 16.2605 15.0624C16.8186 15.6206 17.1322 16.3776 17.1322 17.1669V17.7621C17.1322 18.0779 17.0067 18.3807 16.7835 18.6039C16.5602 18.8272 16.2574 18.9526 15.9417 18.9526H9.9893C9.67357 18.9526 9.37077 18.8272 9.14751 18.6039C8.92425 18.3807 8.79883 18.0779 8.79883 17.7621V17.1669C8.79883 16.3776 9.11239 15.6206 9.67053 15.0624C10.2287 14.5043 10.9857 14.1907 11.775 14.1907H14.156Z" fill="black" fill-opacity="0.2"/>
<path d="M14.156 14.1907C14.9453 14.1907 15.7023 14.5043 16.2605 15.0624C16.8186 15.6206 17.1322 16.3776 17.1322 17.1669V17.7621C17.1322 18.0779 17.0067 18.3807 16.7835 18.6039C16.5602 18.8272 16.2574 18.9526 15.9417 18.9526H9.9893C9.67357 18.9526 9.37077 18.8272 9.14751 18.6039C8.92425 18.3807 8.79883 18.0779 8.79883 17.7621V17.1669C8.79883 16.3776 9.11239 15.6206 9.67053 15.0624C10.2287 14.5043 10.9857 14.1907 11.775 14.1907H14.156Z" fill="black" fill-opacity="0.2"/>
<path d="M14.156 14.1907C14.9453 14.1907 15.7023 14.5043 16.2605 15.0624C16.8186 15.6206 17.1322 16.3776 17.1322 17.1669V17.7621C17.1322 18.0779 17.0067 18.3807 16.7835 18.6039C16.5602 18.8272 16.2574 18.9526 15.9417 18.9526H9.9893C9.67357 18.9526 9.37077 18.8272 9.14751 18.6039C8.92425 18.3807 8.79883 18.0779 8.79883 17.7621V17.1669C8.79883 16.3776 9.11239 15.6206 9.67053 15.0624C10.2287 14.5043 10.9857 14.1907 11.775 14.1907H14.156Z" fill="black" fill-opacity="0.2"/>
<path d="M14.156 14.1907C14.9453 14.1907 15.7023 14.5043 16.2605 15.0624C16.8186 15.6206 17.1322 16.3776 17.1322 17.1669V17.7621C17.1322 18.0779 17.0067 18.3807 16.7835 18.6039C16.5602 18.8272 16.2574 18.9526 15.9417 18.9526H9.9893C9.67357 18.9526 9.37077 18.8272 9.14751 18.6039C8.92425 18.3807 8.79883 18.0779 8.79883 17.7621V17.1669C8.79883 16.3776 9.11239 15.6206 9.67053 15.0624C10.2287 14.5043 10.9857 14.1907 11.775 14.1907H14.156Z" fill="black" fill-opacity="0.2"/>
<path d="M14.156 14.1907C14.9453 14.1907 15.7023 14.5043 16.2605 15.0624C16.8186 15.6206 17.1322 16.3776 17.1322 17.1669V17.7621C17.1322 18.0779 17.0067 18.3807 16.7835 18.6039C16.5602 18.8272 16.2574 18.9526 15.9417 18.9526H9.9893C9.67357 18.9526 9.37077 18.8272 9.14751 18.6039C8.92425 18.3807 8.79883 18.0779 8.79883 17.7621V17.1669C8.79883 16.3776 9.11239 15.6206 9.67053 15.0624C10.2287 14.5043 10.9857 14.1907 11.775 14.1907H14.156Z" fill="black" fill-opacity="0.2"/>
<path d="M12.9655 7.04785C13.5541 7.04785 14.1295 7.2224 14.619 7.54943C15.1084 7.87646 15.4899 8.34128 15.7151 8.8851C15.9404 9.42893 15.9993 10.0273 15.8845 10.6047C15.7697 11.182 15.4862 11.7123 15.07 12.1285C14.6538 12.5448 14.1234 12.8282 13.5461 12.943C12.9688 13.0579 12.3704 12.9989 11.8266 12.7737C11.2827 12.5484 10.8179 12.167 10.4909 11.6775C10.1639 11.1881 9.9893 10.6127 9.9893 10.024L9.99228 9.89488C10.0256 9.12866 10.3534 8.40486 10.9073 7.87443C11.4612 7.34401 12.1986 7.0479 12.9655 7.04785Z" stroke="black"/>
<path d="M14.156 14.1907C14.9453 14.1907 15.7023 14.5043 16.2605 15.0624C16.8186 15.6206 17.1322 16.3776 17.1322 17.1669V17.7621C17.1322 18.0779 17.0067 18.3807 16.7835 18.6039C16.5602 18.8272 16.2574 18.9526 15.9417 18.9526H9.9893C9.67357 18.9526 9.37077 18.8272 9.14751 18.6039C8.92425 18.3807 8.79883 18.0779 8.79883 17.7621V17.1669C8.79883 16.3776 9.11239 15.6206 9.67053 15.0624C10.2287 14.5043 10.9857 14.1907 11.775 14.1907H14.156Z" stroke="black"/>
</svg>
