<svg width="105" height="54" viewBox="0 0 105 54" fill="none" xmlns="http://www.w3.org/2000/svg">
<rect x="1.12109" y="0.5" width="103" height="53" rx="17.5" stroke="#003C3C"/>
<path d="M25.7011 33V20.4H30.3361C31.0201 20.4 31.6351 20.568 32.1811 20.904C32.7271 21.24 33.1591 21.693 33.4771 22.263C33.8011 22.827 33.9631 23.457 33.9631 24.153C33.9631 24.741 33.8521 25.278 33.6301 25.764C33.4141 26.25 33.1081 26.664 32.7121 27.006C32.3221 27.348 31.8751 27.594 31.3711 27.744L34.4131 33H32.2441L29.2921 27.915H27.5731V33H25.7011ZM27.5731 26.043H30.1381C30.4981 26.043 30.8251 25.953 31.1191 25.773C31.4191 25.593 31.6561 25.353 31.8301 25.053C32.0041 24.753 32.0911 24.414 32.0911 24.036C32.0911 23.658 32.0041 23.319 31.8301 23.019C31.6561 22.713 31.4191 22.473 31.1191 22.299C30.8251 22.119 30.4981 22.029 30.1381 22.029H27.5731V26.043ZM39.0183 33.171C38.5443 33.141 38.0823 33.045 37.6323 32.883C37.1823 32.721 36.7863 32.502 36.4443 32.226C36.1083 31.944 35.8563 31.614 35.6883 31.236L37.2813 30.552C37.3593 30.714 37.4943 30.873 37.6863 31.029C37.8843 31.185 38.1153 31.314 38.3793 31.416C38.6433 31.512 38.9193 31.56 39.2073 31.56C39.4893 31.56 39.7503 31.521 39.9903 31.443C40.2363 31.359 40.4373 31.233 40.5933 31.065C40.7493 30.897 40.8273 30.696 40.8273 30.462C40.8273 30.198 40.7373 29.994 40.5573 29.85C40.3833 29.7 40.1643 29.586 39.9003 29.508C39.6363 29.43 39.3723 29.355 39.1083 29.283C38.5203 29.151 37.9803 28.971 37.4883 28.743C37.0023 28.509 36.6153 28.212 36.3273 27.852C36.0393 27.486 35.8953 27.039 35.8953 26.511C35.8953 25.935 36.0513 25.437 36.3633 25.017C36.6753 24.591 37.0833 24.264 37.5873 24.036C38.0973 23.808 38.6403 23.694 39.2163 23.694C39.9363 23.694 40.5963 23.847 41.1963 24.153C41.7963 24.459 42.2553 24.879 42.5733 25.413L41.0883 26.295C40.9983 26.115 40.8633 25.953 40.6833 25.809C40.5033 25.665 40.2993 25.551 40.0713 25.467C39.8433 25.377 39.6063 25.326 39.3603 25.314C39.0543 25.302 38.7693 25.338 38.5053 25.422C38.2473 25.5 38.0403 25.626 37.8843 25.8C37.7283 25.974 37.6503 26.196 37.6503 26.466C37.6503 26.73 37.7433 26.928 37.9293 27.06C38.1153 27.186 38.3493 27.288 38.6313 27.366C38.9193 27.444 39.2133 27.531 39.5133 27.627C40.0473 27.795 40.5483 28.002 41.0163 28.248C41.4843 28.488 41.8623 28.785 42.1503 29.139C42.4383 29.493 42.5763 29.925 42.5643 30.435C42.5643 30.999 42.3933 31.494 42.0513 31.92C41.7153 32.346 41.2773 32.67 40.7373 32.892C40.1973 33.114 39.6243 33.207 39.0183 33.171ZM44.6561 33.234C44.3801 33.234 44.1461 33.138 43.9541 32.946C43.7681 32.754 43.6751 32.52 43.6751 32.244C43.6751 31.974 43.7681 31.743 43.9541 31.551C44.1461 31.359 44.3801 31.263 44.6561 31.263C44.9321 31.263 45.1661 31.359 45.3581 31.551C45.5501 31.743 45.6461 31.974 45.6461 32.244C45.6461 32.52 45.5501 32.754 45.3581 32.946C45.1661 33.138 44.9321 33.234 44.6561 33.234ZM55.5946 33.234C54.8326 33.234 54.1486 33.057 53.5426 32.703C52.9426 32.349 52.4686 31.875 52.1206 31.281C51.7726 30.687 51.5986 30.027 51.5986 29.301H53.4706C53.4706 29.679 53.5606 30.024 53.7406 30.336C53.9206 30.648 54.1696 30.897 54.4876 31.083C54.8056 31.269 55.1746 31.362 55.5946 31.362C55.9726 31.362 56.3236 31.269 56.6476 31.083C56.9716 30.897 57.2326 30.648 57.4306 30.336C57.6286 30.024 57.7276 29.679 57.7276 29.301C57.7276 28.821 57.6016 28.419 57.3496 28.095C57.0976 27.771 56.7466 27.531 56.2966 27.375C55.8526 27.213 55.3396 27.132 54.7576 27.132V25.656C55.5496 25.656 56.1826 25.5 56.6566 25.188C57.1306 24.876 57.3676 24.411 57.3676 23.793C57.3676 23.469 57.2806 23.175 57.1066 22.911C56.9386 22.641 56.7136 22.428 56.4316 22.272C56.1556 22.11 55.8586 22.029 55.5406 22.029C55.2106 22.029 54.8926 22.11 54.5866 22.272C54.2866 22.428 54.0406 22.641 53.8486 22.911C53.6566 23.175 53.5606 23.469 53.5606 23.793H51.6886C51.6886 23.295 51.7906 22.827 51.9946 22.389C52.2046 21.945 52.4866 21.558 52.8406 21.228C53.2006 20.892 53.6086 20.631 54.0646 20.445C54.5266 20.253 55.0096 20.157 55.5136 20.157C56.1736 20.157 56.7856 20.322 57.3496 20.652C57.9196 20.976 58.3756 21.414 58.7176 21.966C59.0656 22.512 59.2396 23.121 59.2396 23.793C59.2396 24.327 59.1076 24.834 58.8436 25.314C58.5856 25.788 58.2256 26.124 57.7636 26.322C58.1656 26.466 58.5016 26.694 58.7716 27.006C59.0476 27.312 59.2546 27.666 59.3926 28.068C59.5306 28.464 59.5996 28.875 59.5996 29.301C59.5996 30.021 59.4166 30.681 59.0506 31.281C58.6846 31.875 58.1956 32.349 57.5836 32.703C56.9776 33.057 56.3146 33.234 55.5946 33.234ZM66.2575 33V29.778H60.8665V27.897L65.8075 20.4H68.1295V27.906H69.2815V29.778H68.1295V33H66.2575ZM63.0445 27.897L66.2575 27.906L66.2395 22.983L63.0445 27.897ZM73.1584 33L75.7054 28.59C75.0994 28.704 74.5084 28.68 73.9324 28.518C73.3624 28.35 72.8494 28.077 72.3934 27.699C71.9374 27.315 71.5744 26.85 71.3044 26.304C71.0344 25.758 70.8994 25.158 70.8994 24.504C70.8994 23.91 71.0104 23.352 71.2324 22.83C71.4604 22.302 71.7724 21.84 72.1684 21.444C72.5644 21.042 73.0234 20.73 73.5454 20.508C74.0734 20.28 74.6374 20.166 75.2374 20.166C76.0234 20.166 76.7434 20.361 77.3974 20.751C78.0514 21.141 78.5734 21.666 78.9634 22.326C79.3534 22.98 79.5484 23.706 79.5484 24.504C79.5484 24.918 79.4974 25.296 79.3954 25.638C79.2994 25.98 79.1464 26.34 78.9364 26.718L75.3274 33H73.1584ZM75.2194 26.961C75.6994 26.961 76.1254 26.847 76.4974 26.619C76.8694 26.385 77.1604 26.082 77.3704 25.71C77.5864 25.332 77.6944 24.927 77.6944 24.495C77.6944 24.027 77.5804 23.607 77.3524 23.235C77.1244 22.863 76.8214 22.569 76.4434 22.353C76.0714 22.137 75.6694 22.029 75.2374 22.029C74.7574 22.029 74.3314 22.146 73.9594 22.38C73.5874 22.614 73.2934 22.92 73.0774 23.298C72.8614 23.67 72.7534 24.069 72.7534 24.495C72.7534 24.945 72.8614 25.359 73.0774 25.737C73.2994 26.109 73.5964 26.406 73.9684 26.628C74.3404 26.85 74.7574 26.961 75.2194 26.961Z" fill="#003C3C"/>
</svg>
