<svg width="290" height="50" viewBox="0 0 290 50" fill="none" xmlns="http://www.w3.org/2000/svg">
<rect width="290" height="50" rx="25" fill="#F8F9FB"/>
<path d="M50.904 31.208C50.3013 31.208 49.72 31.1147 49.16 30.928C48.6 30.736 48.1093 30.464 47.688 30.112C47.272 29.76 46.976 29.3413 46.8 28.856L48.056 28.384C48.1627 28.6827 48.36 28.944 48.648 29.168C48.9413 29.3867 49.2853 29.5573 49.68 29.68C50.0747 29.8027 50.4827 29.864 50.904 29.864C51.384 29.864 51.8293 29.7867 52.24 29.632C52.656 29.472 52.992 29.2507 53.248 28.968C53.504 28.6853 53.632 28.3547 53.632 27.976C53.632 27.5867 53.4987 27.2693 53.232 27.024C52.9653 26.7733 52.624 26.576 52.208 26.432C51.792 26.2827 51.3573 26.168 50.904 26.088C50.1307 25.96 49.4373 25.7787 48.824 25.544C48.216 25.304 47.7333 24.9707 47.376 24.544C47.024 24.1173 46.848 23.5547 46.848 22.856C46.848 22.2053 47.0347 21.6373 47.408 21.152C47.7867 20.6667 48.2853 20.2907 48.904 20.024C49.5227 19.7573 50.1893 19.624 50.904 19.624C51.496 19.624 52.0693 19.7173 52.624 19.904C53.184 20.0853 53.6773 20.352 54.104 20.704C54.5307 21.056 54.8373 21.4853 55.024 21.992L53.752 22.456C53.6453 22.152 53.4453 21.8907 53.152 21.672C52.864 21.448 52.5227 21.2773 52.128 21.16C51.7387 21.0373 51.3307 20.976 50.904 20.976C50.4293 20.9707 49.9867 21.048 49.576 21.208C49.1653 21.368 48.832 21.5893 48.576 21.872C48.32 22.1547 48.192 22.4827 48.192 22.856C48.192 23.304 48.3093 23.648 48.544 23.888C48.784 24.1227 49.1093 24.2987 49.52 24.416C49.9307 24.5333 50.392 24.6373 50.904 24.728C51.6293 24.8507 52.3013 25.0453 52.92 25.312C53.5387 25.5733 54.0347 25.9227 54.408 26.36C54.7867 26.7973 54.976 27.336 54.976 27.976C54.976 28.6267 54.7867 29.1947 54.408 29.68C54.0347 30.1653 53.5387 30.5413 52.92 30.808C52.3013 31.0747 51.6293 31.208 50.904 31.208ZM60.1675 31.208C59.4315 31.208 58.7595 31.0187 58.1515 30.64C57.5488 30.2613 57.0662 29.7547 56.7035 29.12C56.3462 28.48 56.1675 27.7733 56.1675 27C56.1675 26.4133 56.2715 25.8667 56.4795 25.36C56.6875 24.848 56.9728 24.4 57.3355 24.016C57.7035 23.6267 58.1302 23.3227 58.6155 23.104C59.1008 22.8853 59.6182 22.776 60.1675 22.776C60.7702 22.776 61.3222 22.8987 61.8235 23.144C62.3302 23.384 62.7622 23.72 63.1195 24.152C63.4822 24.584 63.7515 25.0853 63.9275 25.656C64.1088 26.2267 64.1755 26.8373 64.1275 27.488H57.5995C57.6635 27.9413 57.8128 28.3467 58.0475 28.704C58.2822 29.056 58.5808 29.336 58.9435 29.544C59.3115 29.752 59.7195 29.8587 60.1675 29.864C60.6475 29.864 61.0822 29.7413 61.4715 29.496C61.8608 29.2453 62.1755 28.904 62.4155 28.472L63.7835 28.792C63.4635 29.5013 62.9808 30.0827 62.3355 30.536C61.6902 30.984 60.9675 31.208 60.1675 31.208ZM57.5595 26.432H62.7755C62.7328 25.984 62.5888 25.576 62.3435 25.208C62.0982 24.8347 61.7862 24.536 61.4075 24.312C61.0288 24.088 60.6155 23.976 60.1675 23.976C59.7195 23.976 59.3088 24.0853 58.9355 24.304C58.5622 24.5227 58.2528 24.8187 58.0075 25.192C57.7675 25.56 57.6182 25.9733 57.5595 26.432ZM71.8608 23H73.2048V31H71.8608L71.8048 29.648C71.5541 30.112 71.2074 30.488 70.7648 30.776C70.3274 31.064 69.8048 31.208 69.1968 31.208C68.6101 31.208 68.0608 31.0987 67.5488 30.88C67.0368 30.656 66.5834 30.3493 66.1888 29.96C65.7994 29.5653 65.4954 29.112 65.2768 28.6C65.0581 28.088 64.9488 27.536 64.9488 26.944C64.9488 26.3733 65.0554 25.8347 65.2688 25.328C65.4821 24.8213 65.7781 24.3787 66.1568 24C66.5408 23.616 66.9834 23.3173 67.4848 23.104C67.9861 22.8853 68.5248 22.776 69.1008 22.776C69.7301 22.776 70.2821 22.9253 70.7568 23.224C71.2314 23.5173 71.6154 23.8987 71.9088 24.368L71.8608 23ZM69.1727 29.904C69.7008 29.904 70.1568 29.776 70.5408 29.52C70.9301 29.2587 71.2288 28.9067 71.4368 28.464C71.6501 28.0213 71.7568 27.5333 71.7568 27C71.7568 26.456 71.6501 25.9653 71.4368 25.528C71.2234 25.0853 70.9221 24.736 70.5328 24.48C70.1488 24.2187 69.6954 24.088 69.1727 24.088C68.6448 24.088 68.1648 24.2187 67.7328 24.48C67.3008 24.7413 66.9568 25.0933 66.7008 25.536C66.4501 25.9733 66.3248 26.4613 66.3248 27C66.3248 27.5387 66.4554 28.0293 66.7168 28.472C66.9781 28.9093 67.3248 29.2587 67.7568 29.52C68.1888 29.776 68.6608 29.904 69.1727 29.904ZM74.8038 31V23H76.1478V24C76.4304 23.6267 76.7878 23.3307 77.2198 23.112C77.6518 22.888 78.1211 22.776 78.6278 22.776C78.9371 22.776 79.2358 22.816 79.5238 22.896L78.9798 24.24C78.7611 24.1707 78.5478 24.136 78.3398 24.136C77.9398 24.136 77.5718 24.2347 77.2358 24.432C76.9051 24.624 76.6411 24.8853 76.4438 25.216C76.2464 25.5467 76.1478 25.9147 76.1478 26.32V31H74.8038ZM85.6126 28.888L86.8126 29.536C86.45 30.0427 85.9886 30.448 85.4286 30.752C84.874 31.056 84.2713 31.208 83.6206 31.208C82.8846 31.208 82.2126 31.0187 81.6046 30.64C81.002 30.2613 80.5193 29.7547 80.1566 29.12C79.7993 28.48 79.6206 27.7733 79.6206 27C79.6206 26.4133 79.7246 25.8667 79.9326 25.36C80.1406 24.848 80.426 24.4 80.7886 24.016C81.1566 23.6267 81.5833 23.3227 82.0686 23.104C82.554 22.8853 83.0713 22.776 83.6206 22.776C84.2713 22.776 84.874 22.928 85.4286 23.232C85.9886 23.536 86.45 23.944 86.8126 24.456L85.6126 25.104C85.3566 24.7893 85.0526 24.5467 84.7006 24.376C84.3486 24.2053 83.9886 24.12 83.6206 24.12C83.1246 24.12 82.674 24.2533 82.2686 24.52C81.8686 24.7813 81.5513 25.1307 81.3166 25.568C81.082 26.0053 80.9646 26.4827 80.9646 27C80.9646 27.5173 81.082 27.9947 81.3166 28.432C81.5566 28.864 81.8766 29.2107 82.2766 29.472C82.682 29.7333 83.13 29.864 83.6206 29.864C84.0153 29.864 84.386 29.7733 84.7326 29.592C85.0793 29.4107 85.3726 29.176 85.6126 28.888ZM95.1883 26.024V31H93.8443V26.32C93.8443 25.9147 93.7456 25.5467 93.5483 25.216C93.3509 24.8853 93.0869 24.624 92.7563 24.432C92.4256 24.2347 92.0576 24.136 91.6523 24.136C91.2523 24.136 90.8843 24.2347 90.5483 24.432C90.2176 24.624 89.9536 24.8853 89.7563 25.216C89.5589 25.5467 89.4603 25.9147 89.4603 26.32V31H88.1163V19H89.4603V24C89.7429 23.6267 90.1003 23.3307 90.5323 23.112C90.9643 22.888 91.4336 22.776 91.9403 22.776C92.5376 22.776 93.0816 22.9227 93.5723 23.216C94.0683 23.504 94.4603 23.8933 94.7483 24.384C95.0416 24.8747 95.1883 25.4213 95.1883 26.024Z" fill="#404040"/>
<path d="M33.9419 32.0575L30.0302 28.1466C31.1639 26.7854 31.7293 25.0395 31.6086 23.2721C31.488 21.5048 30.6906 19.8519 29.3823 18.6575C28.074 17.463 26.3557 16.819 24.5846 16.8592C22.8136 16.8995 21.1262 17.6209 19.8736 18.8736C18.6209 20.1262 17.8995 21.8136 17.8592 23.5846C17.819 25.3557 18.463 27.074 19.6575 28.3823C20.8519 29.6906 22.5048 30.488 24.2721 30.6086C26.0395 30.7293 27.7854 30.1639 29.1466 29.0302L33.0575 32.9419C33.1156 32.9999 33.1845 33.046 33.2604 33.0774C33.3363 33.1089 33.4176 33.125 33.4997 33.125C33.5818 33.125 33.6631 33.1089 33.739 33.0774C33.8149 33.046 33.8838 32.9999 33.9419 32.9419C33.9999 32.8838 34.046 32.8149 34.0774 32.739C34.1089 32.6631 34.125 32.5818 34.125 32.4997C34.125 32.4176 34.1089 32.3363 34.0774 32.2604C34.046 32.1845 33.9999 32.1156 33.9419 32.0575ZM19.1247 23.7497C19.1247 22.6372 19.4546 21.5496 20.0727 20.6246C20.6908 19.6996 21.5693 18.9786 22.5971 18.5529C23.6249 18.1271 24.7559 18.0157 25.8471 18.2328C26.9382 18.4498 27.9405 18.9855 28.7272 19.7722C29.5138 20.5589 30.0496 21.5612 30.2666 22.6523C30.4837 23.7435 30.3723 24.8744 29.9465 25.9023C29.5208 26.9301 28.7998 27.8086 27.8748 28.4267C26.9497 29.0448 25.8622 29.3747 24.7497 29.3747C23.2584 29.373 21.8286 28.7799 20.774 27.7253C19.7195 26.6708 19.1263 25.241 19.1247 23.7497Z" fill="#404040"/>
</svg>
