<svg width="79" height="98" viewBox="0 0 79 98" fill="none" xmlns="http://www.w3.org/2000/svg">
<path d="M0.112523 49.6145C0.112523 39.2585 1.78623 30.4192 5.13364 23.0967C8.58566 15.7743 13.2407 10.2824 19.0986 6.62118C25.0612 2.85534 31.8606 0.972416 39.4969 0.972416C47.1332 0.972416 53.8804 2.85534 59.7383 6.62118C65.7009 10.387 70.3559 15.9312 73.7033 23.2536C77.1553 30.5761 78.8813 39.3631 78.8813 49.6145C78.8813 59.6568 77.2076 68.3391 73.8602 75.6616C70.5128 82.8794 65.8578 88.3713 59.8952 92.1371C54.0373 95.903 47.2378 97.7859 39.4969 97.7859C31.6514 97.7859 24.7474 95.903 18.7848 92.1371C12.9268 88.2667 8.32415 82.7225 4.97673 75.5047C1.73393 68.1822 0.112523 59.5522 0.112523 49.6145ZM21.1385 49.4576C21.1385 60.7551 21.7661 69.4898 23.0214 75.6616C24.2767 81.8334 26.2119 86.1746 28.8271 88.6851C31.4422 91.0911 34.9988 92.294 39.4969 92.294C43.995 92.294 47.5517 91.0388 50.1668 88.5282C52.8866 85.913 54.8741 81.5196 56.1294 75.3478C57.3847 69.176 58.0123 60.5459 58.0123 49.4576C58.0123 38.0555 57.3847 29.2162 56.1294 22.9398C54.8741 16.6634 52.9389 12.2699 50.3237 9.75939C47.7086 7.24882 44.0996 5.99354 39.4969 5.99354C34.9988 5.99354 31.4422 7.35343 28.8271 10.0732C26.2119 12.6884 24.2767 17.1341 23.0214 23.4106C21.7661 29.687 21.1385 38.3693 21.1385 49.4576Z" fill="#003C3C"/>
</svg>
